<svg width="324" height="64" viewBox="0 0 324 64" fill="none" xmlns="http://www.w3.org/2000/svg">
<path d="M99.2148 29.491C93.0586 35.2297 86.9023 40.9684 82.4631 44.3545C78.0239 47.7406 75.4883 48.6002 71.6154 49.4593C67.7424 50.3183 62.6089 51.1507 58.8988 51.5111C55.1887 51.8716 53.0575 51.7349 49.0321 50.9191C45.0066 50.1033 39.1514 48.6125 33.7777 46.2761C28.4039 43.9397 23.6891 40.8028 20.7141 38.4664C17.7391 36.13 16.6468 34.6892 15.5593 32.2405C13.0499 26.59 12.2785 21.9756 12.119 20.3024C11.8439 17.4173 11.9716 15.2422 12.0816 13.7694C12.1377 13.0188 12.5271 11.1557 13.4755 9.24204C15.0855 5.99329 19.5711 13.9731 20.5162 15.2612C22.1289 17.459 15.9001 11.6424 14.9453 10.7968C14.3461 10.2662 14.6266 9.26061 14.3299 8.60865C13.8836 7.62768 12.4489 8.10639 11.6923 8.44368C10.1876 9.43842 9.1735 10.6371 7.90692 11.7665C7.64961 12.0679 7.54805 12.4098 7.141 12.6724" stroke="#7CB7DF" stroke-width="2" stroke-linecap="round"/>
<path d="M142.753 34.92C142.726 35.08 142.566 35.12 142.273 35.04C142.006 34.9867 141.766 34.8 141.553 34.48C141.339 33.9733 141.233 33.5067 141.233 33.08C141.233 32.6533 141.246 32.0133 141.273 31.16C141.433 30.2267 141.646 29.0133 141.913 27.52C142.206 26 142.539 24.3067 142.913 22.44C143.313 20.5467 143.739 18.5733 144.193 16.52C144.513 15.4533 144.766 14.48 144.953 13.6C145.166 12.6933 145.326 11.96 145.433 11.4C145.539 10.84 145.593 10.56 145.593 10.56C145.593 10.48 145.513 10.52 145.353 10.68C145.219 10.8133 145.086 10.9733 144.953 11.16C144.819 11.3467 144.766 11.4933 144.793 11.6C144.793 11.6 144.699 11.7333 144.513 12C144.326 12.2667 144.086 12.6267 143.793 13.08C143.526 13.3467 143.206 13.88 142.833 14.68C142.459 15.48 142.046 16.2267 141.593 16.92C141.166 17.72 140.713 18.5867 140.233 19.52C139.753 20.4267 139.326 21.1867 138.953 21.8C138.713 22.1467 138.473 22.5467 138.233 23C137.993 23.4533 137.846 23.7467 137.793 23.88C137.686 24.1733 137.499 24.5333 137.233 24.96C136.966 25.36 136.673 25.76 136.353 26.16C136.193 26.4 136.033 26.6533 135.873 26.92C135.713 27.16 135.579 27.3733 135.473 27.56C135.393 27.72 135.353 27.8 135.353 27.8C135.353 27.88 135.219 28.12 134.953 28.52C134.713 28.92 134.406 29.36 134.033 29.84C133.686 30.32 133.353 30.7333 133.033 31.08C132.099 32.0667 131.353 32.6533 130.793 32.84C130.233 33 129.606 32.76 128.913 32.12C128.566 31.6933 128.313 31.2133 128.153 30.68C127.993 30.12 127.926 29.44 127.953 28.64C127.979 27.8133 128.073 26.7867 128.233 25.56C128.419 24.6267 128.593 23.6933 128.753 22.76C128.913 21.8 129.059 20.9067 129.193 20.08C129.353 19.2267 129.486 18.5067 129.593 17.92C129.726 17.3333 129.833 16.9467 129.913 16.76C129.966 16.2267 129.953 15.9333 129.873 15.88C129.793 15.8267 129.633 15.9867 129.393 16.36C129.286 16.5467 129.006 17.0133 128.553 17.76C128.099 18.48 127.566 19.3733 126.953 20.44C126.366 21.5067 125.779 22.6667 125.193 23.92C124.099 25.9467 123.193 27.6267 122.473 28.96C121.779 30.2667 121.219 31.3067 120.793 32.08C120.393 32.8533 120.099 33.4267 119.913 33.8C119.726 34.1733 119.593 34.4267 119.513 34.56C119.433 34.6933 119.366 34.7867 119.313 34.84C119.073 34.84 118.819 34.7333 118.553 34.52C118.313 34.3333 118.059 34.1067 117.793 33.84C117.713 33.6533 117.673 33.4667 117.673 33.28C117.699 33.0933 117.793 32.8267 117.953 32.48C118.113 32.1067 118.353 31.5467 118.673 30.8C119.019 30.1067 119.339 29.5067 119.633 29C119.926 28.4667 120.153 28.1467 120.313 28.04C120.446 27.8267 120.566 27.6133 120.673 27.4C120.779 27.1867 120.846 26.9333 120.873 26.64C121.006 26.48 121.206 26.16 121.473 25.68C121.766 25.1733 122.059 24.6267 122.353 24.04C122.566 23.6933 122.833 23.24 123.153 22.68C123.499 22.12 123.859 21.5067 124.233 20.84C124.606 20.1467 124.939 19.4933 125.233 18.88C126.459 16.7733 127.499 15 128.353 13.56C129.206 12.0933 129.846 11.16 130.273 10.76C130.406 10.6267 130.539 10.44 130.673 10.2C130.833 9.96 130.913 9.74666 130.913 9.56C130.913 9 131.019 8.49333 131.233 8.04C131.473 7.56 131.713 7.34667 131.953 7.4C132.219 7.4 132.459 7.42667 132.673 7.48C132.886 7.53333 133.113 7.70667 133.353 8C133.566 8.32 133.753 8.64 133.913 8.96C134.073 9.28 134.059 9.92 133.873 10.88C133.873 11.2533 133.833 11.68 133.753 12.16C133.673 12.6133 133.593 13.04 133.513 13.44C133.459 13.8133 133.419 14.1067 133.393 14.32C133.046 15.36 132.726 16.5333 132.433 17.84C132.139 19.12 131.873 20.4267 131.633 21.76C131.393 23.0667 131.193 24.2933 131.033 25.44C130.873 26.56 130.766 27.4933 130.713 28.24C130.686 28.96 130.713 29.3733 130.793 29.48C130.979 29.5867 131.139 29.6 131.273 29.52C131.406 29.44 131.633 29.0933 131.953 28.48C132.139 28.16 132.393 27.7733 132.713 27.32C133.059 26.84 133.393 26.4 133.713 26C133.926 25.6267 134.259 25.0667 134.713 24.32C135.166 23.5733 135.739 22.6133 136.433 21.44C137.153 20.2667 138.006 18.84 138.993 17.16C140.006 15.4533 141.153 13.48 142.433 11.24C143.046 10.3067 143.619 9.4 144.153 8.52C144.713 7.61333 145.166 7.02667 145.513 6.76C145.886 6.41333 146.273 6.33333 146.673 6.52C147.073 6.68 147.419 7.02667 147.713 7.56C148.033 8.09333 148.206 8.76 148.233 9.56C148.259 9.93333 148.206 10.5333 148.073 11.36C147.966 12.1867 147.793 13.1333 147.553 14.2C147.313 15.24 147.006 16.32 146.633 17.44C146.553 17.8933 146.419 18.4667 146.233 19.16C146.073 19.8267 145.886 20.52 145.673 21.24C145.459 21.96 145.246 22.64 145.033 23.28C144.899 24.16 144.739 25.0267 144.553 25.88C144.393 26.7333 144.339 27.3067 144.393 27.6C144.153 28.0267 143.993 28.64 143.913 29.44C143.833 30.24 143.793 31.0667 143.793 31.92C143.686 32.96 143.606 33.6933 143.553 34.12C143.499 34.5467 143.406 34.7467 143.273 34.72C142.926 34.6133 142.753 34.68 142.753 34.92ZM156.142 32.48C155.235 32.72 154.595 32.84 154.222 32.84C153.848 32.84 153.448 32.6533 153.022 32.28C152.888 32.1467 152.808 32.0133 152.782 31.88C152.755 31.72 152.688 31.6267 152.582 31.6C152.555 31.4133 152.568 31.2667 152.622 31.16C152.702 31.0267 152.875 30.9067 153.142 30.8C153.542 31.04 154.048 31.1067 154.662 31C155.275 30.8933 155.875 30.6667 156.462 30.32C157.075 29.9467 157.555 29.5067 157.902 29C158.435 28.36 158.848 27.76 159.142 27.2C159.435 26.6133 159.595 26.0933 159.622 25.64C159.622 25.3733 159.582 25.1867 159.502 25.08C159.448 24.9467 159.315 24.7467 159.102 24.48C158.622 24.64 158.182 24.8267 157.782 25.04C157.408 25.2533 157.102 25.48 156.862 25.72C156.062 26.3867 155.435 26.9333 154.982 27.36C154.555 27.7867 154.182 28.2133 153.862 28.64C153.568 29.0667 153.195 29.64 152.742 30.36C152.528 30.6267 152.328 30.8267 152.142 30.96C151.982 31.0933 151.808 31.16 151.622 31.16C151.702 31.6933 151.515 32.0133 151.062 32.12C150.475 31.9867 150.048 31.8133 149.782 31.6C149.515 31.36 149.435 30.9067 149.542 30.24C149.648 29.8667 149.755 29.4267 149.862 28.92C149.968 28.3867 150.088 27.9467 150.222 27.6C150.862 25.8933 151.422 24.3733 151.902 23.04C152.408 21.7067 152.848 20.76 153.222 20.2L154.102 17.92C154.555 17.9467 154.902 18.04 155.142 18.2C155.382 18.3333 155.662 18.6667 155.982 19.2C155.982 19.3333 155.848 19.72 155.582 20.36C155.342 20.9733 155.048 21.68 154.702 22.48C154.382 23.28 154.075 24.0267 153.782 24.72C153.515 25.3867 153.328 25.8533 153.222 26.12C153.115 26.4133 153.195 26.36 153.462 25.96C153.755 25.56 154.262 25.0533 154.982 24.44C155.328 24.0933 155.755 23.7733 156.262 23.48C156.768 23.16 157.195 22.92 157.542 22.76C157.915 22.6 158.222 22.5067 158.462 22.48C158.702 22.4533 158.875 22.4267 158.982 22.4C159.648 22.4 160.182 22.5733 160.582 22.92C160.982 23.24 161.262 23.6133 161.422 24.04C161.608 24.4667 161.702 24.8133 161.702 25.08C161.782 25.5067 161.835 25.92 161.862 26.32C161.915 26.6933 161.888 27.0933 161.782 27.52C161.702 27.7333 161.555 28.0267 161.342 28.4C161.128 28.7733 160.875 29.16 160.582 29.56C160.315 29.9333 159.995 30.24 159.622 30.48C159.382 30.72 159.062 30.9733 158.662 31.24C158.262 31.5067 157.835 31.76 157.382 32C156.955 32.2133 156.542 32.3733 156.142 32.48ZM164.462 33.12C163.982 33.0667 163.582 32.92 163.262 32.68C162.968 32.4133 162.755 32.0267 162.622 31.52C162.622 31.0667 162.675 30.6533 162.782 30.28C162.915 29.88 163.022 29.4933 163.102 29.12C163.235 28.5067 163.422 27.8933 163.662 27.28C163.902 26.6667 164.115 26.0533 164.302 25.44C164.462 25.0667 164.595 24.7067 164.702 24.36C164.808 24.0133 164.915 23.6667 165.022 23.32C165.155 22.8933 165.288 22.48 165.422 22.08C165.555 21.68 165.688 21.28 165.822 20.88C165.928 20.5333 166.008 20.1733 166.062 19.8C166.142 19.4267 166.208 19.0533 166.262 18.68C166.555 18.36 166.875 18.2267 167.222 18.28C167.595 18.3333 168.048 18.64 168.582 19.2C168.715 19.52 168.782 19.8133 168.782 20.08C168.782 20.32 168.715 20.5733 168.582 20.84C168.475 21.08 168.328 21.44 168.142 21.92C167.982 22.4 167.808 22.88 167.622 23.36C167.462 23.8133 167.342 24.16 167.262 24.4C167.208 24.6933 167.062 25.1733 166.822 25.84C166.608 26.5067 166.382 27.2 166.142 27.92C165.902 28.6133 165.728 29.1733 165.622 29.6C165.462 30 165.342 30.3867 165.262 30.76C165.182 31.1333 165.102 31.6 165.022 32.16C165.075 32.4 165.035 32.6 164.902 32.76C164.795 32.8933 164.648 33.0133 164.462 33.12ZM183.402 32.88C183.002 32.88 182.495 32.8533 181.882 32.8C181.295 32.7467 180.789 32.3733 180.362 31.68C180.095 31.2267 179.895 30.7067 179.762 30.12C179.655 29.5333 179.655 29.12 179.762 28.88C180.135 26.8267 180.429 25.4133 180.642 24.64C180.855 23.8667 180.975 23.4267 181.002 23.32C181.055 23.2133 181.162 22.96 181.322 22.56C181.509 22.1333 181.615 21.8667 181.642 21.76C181.775 21.3333 181.815 20.8533 181.762 20.32C181.735 20.1067 181.749 19.92 181.802 19.76C181.882 19.5733 182.002 19.4133 182.162 19.28C182.615 18.9333 182.975 18.48 183.242 17.92C183.322 17.7333 183.469 17.4133 183.682 16.96C183.922 16.48 184.162 16.0133 184.402 15.56C184.669 15.08 184.869 14.7467 185.002 14.56C185.429 14.0267 185.815 13.4667 186.162 12.88C186.535 12.2667 186.989 11.7333 187.522 11.28C187.869 10.6933 188.309 10.16 188.842 9.68C189.375 9.17333 189.909 8.70666 190.442 8.28C190.975 7.85333 191.402 7.48 191.722 7.16C191.855 7.02667 192.215 6.90667 192.802 6.8C193.415 6.66667 193.909 6.54667 194.282 6.44C194.442 6.36 194.749 6.42666 195.202 6.64C195.655 6.82667 195.975 7.04 196.162 7.28C196.509 7.86667 196.709 8.34666 196.762 8.72C196.842 9.09333 196.789 9.53333 196.602 10.04C196.442 10.52 196.122 11.2667 195.642 12.28C195.109 13.3467 194.349 14.36 193.362 15.32C192.402 16.2533 191.415 17.0667 190.402 17.76C189.895 18.2133 189.362 18.6267 188.802 19C188.269 19.3733 187.722 19.7067 187.162 20C186.815 20.1867 186.455 20.36 186.082 20.52C185.735 20.68 185.375 20.8267 185.002 20.96C184.815 21.0133 184.642 21.12 184.482 21.28C184.322 21.4133 184.189 21.6133 184.082 21.88C183.922 22.2533 183.829 22.5733 183.802 22.84C183.802 23.08 183.722 23.28 183.562 23.44C183.482 23.52 183.362 23.84 183.202 24.4C183.069 24.9333 182.909 25.5733 182.722 26.32C182.562 27.04 182.429 27.72 182.322 28.36C182.215 28.9733 182.175 29.3867 182.202 29.6C182.229 29.7333 182.255 29.88 182.282 30.04C182.335 30.1733 182.455 30.28 182.642 30.36C183.042 30.28 183.362 30.1467 183.602 29.96C183.842 29.7467 184.109 29.4667 184.402 29.12C184.722 28.72 185.015 28.2933 185.282 27.84C185.575 27.3867 185.815 26.92 186.002 26.44C186.109 26.1467 186.189 25.84 186.242 25.52C186.295 25.1733 186.389 24.8667 186.522 24.6C186.522 23.9867 186.509 23.5333 186.482 23.24C186.482 22.92 186.455 22.6667 186.402 22.48C186.375 22.2667 186.309 22.0267 186.202 21.76C186.415 21.6267 186.535 21.52 186.562 21.44C186.615 21.36 186.735 21.3467 186.922 21.4C187.269 21.48 187.589 21.6133 187.882 21.8C188.202 21.9867 188.509 22.2267 188.802 22.52C188.909 22.6267 188.975 22.7333 189.002 22.84C189.029 22.9467 189.015 23.0667 188.962 23.2C188.935 23.52 188.895 23.84 188.842 24.16C188.815 24.4533 188.802 24.7467 188.802 25.04C188.615 25.3867 188.495 25.76 188.442 26.16C188.389 26.5333 188.295 26.9067 188.162 27.28C188.002 27.6267 187.842 27.9733 187.682 28.32C187.522 28.6667 187.335 28.9867 187.122 29.28C186.802 29.8667 186.429 30.3867 186.002 30.84C185.602 31.2933 185.175 31.7067 184.722 32.08L183.402 32.88ZM185.242 18.12C185.562 18.1733 185.789 18.1867 185.922 18.16C186.082 18.1067 186.242 17.9733 186.402 17.76C187.655 16.9333 188.802 16.12 189.842 15.32C190.882 14.4933 191.749 13.7067 192.442 12.96C193.162 12.1867 193.629 11.5067 193.842 10.92C193.975 10.6267 194.122 10.3467 194.282 10.08C194.469 9.81333 194.589 9.50667 194.642 9.16L194.482 8.04C193.735 8.38667 193.135 8.70667 192.682 9C192.255 9.29333 191.695 9.78667 191.002 10.48C190.735 10.7467 190.335 11.2 189.802 11.84C189.295 12.4533 188.735 13.1467 188.122 13.92C187.509 14.6933 186.935 15.4533 186.402 16.2C185.895 16.9467 185.509 17.5867 185.242 18.12ZM205.88 32.08C205.293 32.08 204.853 32.0533 204.56 32C204.266 31.9467 204.04 31.8667 203.88 31.76C203.72 31.6533 203.533 31.5067 203.32 31.32C203.213 31.1067 203.08 30.88 202.92 30.64C202.76 30.4 202.626 30.2267 202.52 30.12C202.413 29.72 202.36 29.2 202.36 28.56C202.386 27.92 202.466 27.2267 202.6 26.48C202.76 25.7333 202.973 25.04 203.24 24.4C203.346 24.1867 203.44 23.9733 203.52 23.76C203.6 23.5467 203.64 23.44 203.64 23.44C203.64 23.3067 203.8 22.9867 204.12 22.48C204.466 21.9733 204.84 21.44 205.24 20.88C205.666 20.32 206.013 19.92 206.28 19.68C206.466 19.4667 206.746 19.24 207.12 19C207.52 18.76 207.866 18.5867 208.16 18.48C208.453 18.3733 208.746 18.28 209.04 18.2C209.36 18.12 209.72 18.08 210.12 18.08C210.493 18.08 210.84 18.16 211.16 18.32C211.48 18.48 211.786 18.76 212.08 19.16C212.56 19.64 212.826 20.12 212.88 20.6C212.96 21.0533 212.946 21.52 212.84 22C212.706 22.5333 212.533 22.9467 212.32 23.24C212.106 23.5067 211.866 23.6267 211.6 23.6C211.333 23.5733 211.026 23.3733 210.68 23C210.573 22.7867 210.52 22.6133 210.52 22.48C210.52 22.32 210.573 22.0933 210.68 21.8C210.786 21.4267 210.786 21.04 210.68 20.64C210.573 20.24 210.4 20.04 210.16 20.04C209.813 20.04 209.426 20.2 209 20.52C208.6 20.8133 208.186 21.1867 207.76 21.64C207.573 21.8533 207.306 22.1867 206.96 22.64C206.64 23.0667 206.32 23.5467 206 24.08C205.68 24.5867 205.413 25.08 205.2 25.56C204.906 26.44 204.666 27.1467 204.48 27.68C204.32 28.2133 204.24 28.48 204.24 28.48C204.24 28.5867 204.266 28.6933 204.32 28.8C204.4 28.88 204.44 28.9733 204.44 29.08C204.44 29.4 204.626 29.6533 205 29.84C205.293 30.0267 205.64 30.1333 206.04 30.16C206.44 30.16 206.933 30.0267 207.52 29.76C207.946 29.5467 208.346 29.2667 208.72 28.92C209.12 28.5733 209.533 28.2667 209.96 28C210.253 27.8133 210.48 27.6533 210.64 27.52C210.826 27.3867 210.92 27.3733 210.92 27.48C210.92 27.5867 210.96 27.64 211.04 27.64C211.12 27.64 211.213 27.5867 211.32 27.48C211.48 27.2667 211.653 27.1333 211.84 27.08C212.026 27 212.186 26.9733 212.32 27C212.48 27 212.56 27.04 212.56 27.12C212.506 27.36 212.56 27.56 212.72 27.72C212.72 27.8267 212.68 27.9733 212.6 28.16C212.546 28.32 212.466 28.4533 212.36 28.56C212.226 28.7467 212.026 28.96 211.76 29.2C211.52 29.44 211.293 29.6533 211.08 29.84C210.866 30 210.76 30.08 210.76 30.08C210.653 30.0533 210.546 30.08 210.44 30.16C210.36 30.24 210.266 30.3333 210.16 30.44C209.946 30.6267 209.746 30.7733 209.56 30.88C209.373 30.96 209.226 31 209.12 31C208.933 31.1067 208.786 31.1733 208.68 31.2C208.6 31.2267 208.56 31.2933 208.56 31.4C208.293 31.6667 207.96 31.8533 207.56 31.96C207.186 32.04 206.626 32.08 205.88 32.08ZM218.463 32.4C218.116 32.4 217.836 32.3333 217.623 32.2C217.436 32.0667 217.196 31.88 216.903 31.64C216.396 31.1067 216.036 30.6 215.823 30.12C215.61 29.6133 215.543 29.1333 215.623 28.68C215.703 28.4667 215.73 28.2667 215.703 28.08C215.703 27.8667 215.703 27.76 215.703 27.76C215.57 27.6267 215.53 27.5467 215.583 27.52C215.636 27.4667 215.69 27.3867 215.743 27.28C215.903 27.28 215.956 27.1333 215.903 26.84C215.85 26.6267 215.956 26.16 216.223 25.44C216.49 24.72 216.823 24.04 217.223 23.4C217.383 23.1333 217.623 22.7867 217.943 22.36C218.263 21.9067 218.61 21.4667 218.983 21.04C219.383 20.5867 219.743 20.2267 220.063 19.96C220.73 19.4 221.316 18.9867 221.823 18.72C222.33 18.4533 222.876 18.2533 223.463 18.12C224.05 17.9867 224.45 17.92 224.663 17.92C224.903 17.92 225.223 18.1333 225.623 18.56C226.236 18.8267 226.676 19.1467 226.943 19.52C227.236 19.8933 227.423 20.44 227.503 21.16C227.583 21.96 227.516 22.88 227.303 23.92C227.116 24.9333 226.49 26.2 225.423 27.72C224.756 28.68 224.143 29.4 223.583 29.88C223.023 30.3333 222.356 30.7867 221.583 31.24C221.023 31.6133 220.516 31.8933 220.063 32.08C219.61 32.24 219.076 32.3467 218.463 32.4ZM222.303 28.16C222.943 27.44 223.45 26.76 223.823 26.12C224.223 25.48 224.596 24.6667 224.943 23.68C225.05 23.3867 225.116 23.0267 225.143 22.6C225.17 22.1467 225.156 21.7333 225.103 21.36C225.076 20.96 224.983 20.7333 224.823 20.68C224.503 20.4933 224.116 20.44 223.663 20.52C223.21 20.5733 222.716 20.8267 222.183 21.28C221.356 21.9733 220.636 22.84 220.023 23.88C219.41 24.8933 218.81 26.0533 218.223 27.36C217.823 28.32 217.73 29.0933 217.943 29.68C218.183 30.24 218.676 30.44 219.423 30.28C220.196 30.0933 221.156 29.3867 222.303 28.16ZM242.005 28.6C242.165 28.7867 242.351 28.9333 242.565 29.04C242.805 29.1467 242.978 29.3067 243.085 29.52C243.165 29.7067 243.218 29.8933 243.245 30.08C243.298 30.24 243.298 30.4133 243.245 30.6C243.138 31.16 242.991 31.8133 242.805 32.56C242.618 33.28 242.391 33.9733 242.125 34.64C241.885 35.3333 241.591 35.9067 241.245 36.36C241.058 36.6267 240.831 36.6933 240.565 36.56C240.325 36.4267 240.098 36.3067 239.885 36.2C239.725 36.12 239.605 36.04 239.525 35.96C239.471 35.9067 239.431 35.8267 239.405 35.72C239.378 35.6133 239.338 35.48 239.285 35.32C239.258 35.2933 239.245 35.2667 239.245 35.24C239.245 35.2133 239.231 35.1867 239.205 35.16C239.338 34.7867 239.458 34.4267 239.565 34.08C239.671 33.7333 239.778 33.3733 239.885 33C240.018 32.6533 240.138 32.3067 240.245 31.96C240.325 31.6933 240.351 31.52 240.325 31.44C240.325 31.3333 240.271 31.1467 240.165 30.88C239.498 31.0667 238.698 31.2933 237.765 31.56C236.858 31.8267 236.058 31.96 235.365 31.96C234.805 31.96 234.231 31.9733 233.645 32C233.085 32 232.525 31.9867 231.965 31.96C231.698 31.9333 231.445 31.8933 231.205 31.84C230.965 31.76 230.751 31.6133 230.565 31.4C230.298 31.0267 230.018 30.7733 229.725 30.64C229.458 30.5067 229.311 30.16 229.285 29.6C229.285 29.2 229.351 28.6933 229.485 28.08C229.618 27.4667 229.791 26.8267 230.005 26.16C230.245 25.4667 230.471 24.8267 230.685 24.24C230.898 23.6267 231.085 23.12 231.245 22.72C231.351 22.4533 231.471 22.2 231.605 21.96C231.765 21.6933 231.831 21.4267 231.805 21.16C232.365 20.6 232.685 20.0133 232.765 19.4C232.845 18.7867 232.978 18.24 233.165 17.76C233.298 17.68 233.405 17.6 233.485 17.52C233.565 17.4133 233.658 17.32 233.765 17.24L234.005 17.36C234.298 17.4133 234.591 17.52 234.885 17.68C235.178 17.8133 235.311 18.04 235.285 18.36C235.338 18.5467 235.338 18.76 235.285 19C235.258 19.24 235.218 19.4667 235.165 19.68C235.085 20.08 234.911 20.5467 234.645 21.08C234.378 21.6133 234.098 22.16 233.805 22.72C233.538 23.2533 233.338 23.7467 233.205 24.2C233.045 24.8133 232.885 25.3733 232.725 25.88C232.565 26.36 232.365 26.8933 232.125 27.48C232.018 27.7733 231.898 28.0933 231.765 28.44C231.658 28.7867 231.605 29.1333 231.605 29.48C231.605 29.72 231.711 29.8667 231.925 29.92C232.165 29.9733 232.431 29.9733 232.725 29.92C233.018 29.8667 233.231 29.84 233.365 29.84C233.818 29.7867 234.351 29.7333 234.965 29.68C235.578 29.6267 236.098 29.48 236.525 29.24C236.578 29.0267 236.605 28.8133 236.605 28.6C236.605 28.36 236.658 28.1333 236.765 27.92C236.845 27.76 236.885 27.5733 236.885 27.36C236.885 27.1467 236.925 26.9467 237.005 26.76C237.138 26.4667 237.285 26 237.445 25.36C237.631 24.72 237.831 24.0133 238.045 23.24C238.285 22.4667 238.511 21.72 238.725 21C238.965 20.2533 239.178 19.6267 239.365 19.12C239.578 18.5867 239.765 18.2667 239.925 18.16C240.325 18.2933 240.698 18.4533 241.045 18.64C241.418 18.8267 241.738 19.1067 242.005 19.48C241.871 19.96 241.725 20.44 241.565 20.92C241.405 21.4 241.218 21.88 241.005 22.36C241.005 22.6 240.925 22.9867 240.765 23.52C240.605 24.0533 240.418 24.64 240.205 25.28C239.991 25.8933 239.791 26.4933 239.605 27.08C239.445 27.64 239.325 28.08 239.245 28.4C239.378 28.56 239.511 28.6267 239.645 28.6C239.805 28.5467 239.951 28.5733 240.085 28.68C240.298 28.7867 240.431 28.8 240.485 28.72C240.565 28.64 240.671 28.6 240.805 28.6C241.018 28.6 241.218 28.6 241.405 28.6C241.618 28.6 241.818 28.6 242.005 28.6ZM250.219 32.56C249.446 32.6933 248.739 32.6533 248.099 32.44C247.459 32.2 246.939 31.8133 246.539 31.28C246.166 30.72 245.979 30.0133 245.979 29.16C245.899 28.36 245.993 27.44 246.259 26.4C246.526 25.3333 246.913 24.2667 247.419 23.2C247.953 22.1333 248.526 21.2133 249.139 20.44C249.673 19.8 250.206 19.2133 250.739 18.68C251.273 18.1467 251.753 17.7867 252.179 17.6C252.553 17.44 252.899 17.3467 253.219 17.32C253.566 17.2667 253.846 17.24 254.059 17.24C254.486 17.3467 254.939 17.5467 255.419 17.84C255.926 18.1067 256.179 18.4 256.179 18.72C256.179 18.72 256.206 18.76 256.259 18.84C256.339 18.8933 256.379 18.92 256.379 18.92C256.539 18.92 256.673 19.0933 256.779 19.44C256.913 19.7867 256.993 20.1867 257.019 20.64C257.046 21.0667 256.979 21.4267 256.819 21.72C256.713 22.2267 256.526 22.6667 256.259 23.04C255.993 23.4133 255.753 23.6 255.539 23.6C255.433 23.6 255.326 23.6133 255.219 23.64C255.139 23.64 255.099 23.7067 255.099 23.84C255.099 23.9733 255.019 24.0267 254.859 24C254.726 23.9733 254.579 23.8933 254.419 23.76C254.259 23.6 254.139 23.4133 254.059 23.2C254.059 23.0667 254.113 22.84 254.219 22.52C254.326 22.2 254.433 21.7867 254.539 21.28C254.699 20.5333 254.686 20.0533 254.499 19.84C254.313 19.6 253.953 19.5867 253.419 19.8C252.753 20.1733 252.113 20.6933 251.499 21.36C250.913 22.0267 250.366 22.8933 249.859 23.96C249.353 25 248.899 26.3067 248.499 27.88C248.339 28.4933 248.273 29.0267 248.299 29.48C248.353 29.9333 248.419 30.1733 248.499 30.2C248.873 30.3067 249.379 30.3333 250.019 30.28C250.659 30.2 251.126 30.08 251.419 29.92C251.846 29.7067 252.326 29.4267 252.859 29.08C253.393 28.7067 253.859 28.3733 254.259 28.08C254.393 28 254.553 27.8667 254.739 27.68C254.926 27.4933 255.126 27.3467 255.339 27.24C255.553 26.92 255.739 26.7333 255.899 26.68C256.059 26.6267 256.299 26.6 256.619 26.6C256.833 26.6533 257.033 26.7333 257.219 26.84C257.406 26.9467 257.526 27.0533 257.579 27.16C257.659 27.2667 257.619 27.36 257.459 27.44C257.353 27.44 257.286 27.48 257.259 27.56C257.259 27.6133 257.259 27.64 257.259 27.64C257.313 27.7467 257.193 27.9733 256.899 28.32C256.633 28.64 256.286 29 255.859 29.4C255.433 29.8 255.019 30.1467 254.619 30.44C254.246 30.7067 253.979 30.84 253.819 30.84C253.553 30.84 253.419 30.92 253.419 31.08C253.419 31.1333 253.219 31.2667 252.819 31.48C252.446 31.6933 252.006 31.9067 251.499 32.12C251.019 32.3333 250.593 32.48 250.219 32.56ZM263.918 33.12C262.745 33.12 261.785 32.68 261.038 31.8C260.291 30.8933 259.931 29.7733 259.958 28.44C260.011 27.48 260.198 26.4533 260.518 25.36C260.865 24.24 261.318 23.1733 261.878 22.16C262.438 21.12 263.051 20.2133 263.718 19.44C264.385 18.6667 265.078 18.12 265.798 17.8C266.065 17.6667 266.345 17.56 266.638 17.48C266.958 17.4 267.278 17.36 267.598 17.36C267.891 17.36 268.198 17.4133 268.518 17.52C268.838 17.6 269.105 17.6933 269.318 17.8C269.771 17.9867 270.118 18.2133 270.358 18.48C270.598 18.7467 270.811 19.16 270.998 19.72C271.078 20.2267 271.118 20.5867 271.118 20.8C271.118 21.0133 271.051 21.3333 270.918 21.76C270.598 22.72 270.185 23.5467 269.678 24.24C269.171 24.9333 268.491 25.52 267.638 26C267.425 26.1333 267.171 26.24 266.878 26.32C266.611 26.3733 266.331 26.4 266.038 26.4C265.505 26.4 264.985 26.3067 264.478 26.12C263.998 25.9067 263.611 25.6 263.318 25.2L263.038 24.88L262.918 25.2C262.651 25.92 262.438 26.5867 262.278 27.2C262.145 27.8133 262.078 28.3733 262.078 28.88C262.078 29.2 262.105 29.5067 262.158 29.8C262.238 30.0933 262.345 30.3467 262.478 30.56C262.585 30.72 262.758 30.84 262.998 30.92C263.265 30.9733 263.545 31 263.838 31C264.025 31 264.211 31 264.398 31C264.611 30.9733 264.811 30.92 264.998 30.84C265.451 30.68 265.811 30.5067 266.078 30.32C266.371 30.1333 266.665 29.9333 266.958 29.72L267.118 29.64H267.078C267.398 29.48 267.678 29.32 267.918 29.16C268.185 29 268.318 28.92 268.318 28.92C268.425 28.92 268.531 28.8533 268.638 28.72C268.851 28.6133 269.118 28.6533 269.438 28.84C269.785 29.0267 269.958 29.2667 269.958 29.56C269.931 29.6933 269.811 29.9067 269.598 30.2C269.385 30.4667 269.145 30.72 268.878 30.96C268.638 31.2 268.438 31.3333 268.278 31.36C268.251 31.3867 268.158 31.44 267.998 31.52C267.838 31.5733 267.731 31.6267 267.678 31.68H267.718C267.478 32 267.238 32.16 266.998 32.16H266.678C266.571 32.3467 266.225 32.56 265.638 32.8C265.051 33.0133 264.478 33.12 263.918 33.12ZM265.718 24.32C266.198 24.32 266.611 24.1867 266.958 23.92C267.331 23.6267 267.651 23.3067 267.918 22.96C268.451 22.24 268.758 21.5467 268.838 20.88C268.945 20.1867 268.865 19.7067 268.598 19.44C268.438 19.36 268.291 19.32 268.158 19.32C268.051 19.2933 267.825 19.3333 267.478 19.44C267.238 19.4933 266.905 19.6933 266.478 20.04C266.051 20.3867 265.625 20.7733 265.198 21.2C264.798 21.6267 264.491 21.9867 264.278 22.28L263.758 23.12C263.971 23.04 264.171 23 264.358 23C264.571 22.9733 264.691 22.9867 264.718 23.04C264.718 23.28 264.758 23.5067 264.838 23.72C264.945 23.9067 265.065 24.0533 265.198 24.16C265.358 24.2667 265.531 24.32 265.718 24.32ZM274.206 31.52C274.126 31.4133 274.046 31.28 273.966 31.12C273.913 30.96 273.886 30.8267 273.886 30.72C273.886 30.6667 273.873 30.6 273.846 30.52C273.846 30.44 273.793 30.4 273.686 30.4C273.606 30.32 273.659 30.0133 273.846 29.48C274.059 28.92 274.326 28.28 274.646 27.56C274.993 26.84 275.339 26.1467 275.686 25.48C276.059 24.7867 276.366 24.24 276.606 23.84C276.739 23.76 276.819 23.6533 276.846 23.52C276.899 23.36 276.899 23.28 276.846 23.28C276.846 23.28 276.913 23.16 277.046 22.92C277.206 22.6533 277.326 22.48 277.406 22.4C277.619 22.0267 277.779 21.6533 277.886 21.28C277.993 20.88 278.019 20.5467 277.966 20.28C277.859 20.1467 277.739 20.1067 277.606 20.16C277.473 20.2133 277.406 20.24 277.406 20.24C277.299 20.2667 277.139 20.32 276.926 20.4C276.739 20.4533 276.566 20.5333 276.406 20.64C275.793 21.0667 275.379 21.2667 275.166 21.24C274.953 21.1867 274.713 20.84 274.446 20.2C274.339 19.9067 274.299 19.6933 274.326 19.56C274.353 19.4267 274.459 19.28 274.646 19.12C274.859 18.9333 275.059 18.8133 275.246 18.76C275.433 18.68 275.579 18.6 275.686 18.52C275.979 18.3333 276.219 18.2 276.406 18.12C276.619 18.04 276.779 17.9867 276.886 17.96C277.579 17.7467 278.166 17.7067 278.646 17.84C279.126 17.9733 279.486 18.32 279.726 18.88C280.099 19.3333 280.286 19.8533 280.286 20.44C280.286 21 280.099 21.6533 279.726 22.4L279.326 23C279.193 23.2667 279.166 23.4 279.246 23.4C279.353 23.4 279.473 23.3067 279.606 23.12C279.686 23.0133 279.846 22.8533 280.086 22.64C280.326 22.4267 280.486 22.32 280.566 22.32C280.566 22.32 280.593 22.3067 280.646 22.28C280.726 22.2533 280.766 22.1467 280.766 21.96C280.846 21.88 280.926 21.8 281.006 21.72C281.113 21.64 281.166 21.6 281.166 21.6C281.273 21.6 281.473 21.48 281.766 21.24C282.086 20.9733 282.459 20.6667 282.886 20.32C283.179 20.1067 283.446 20 283.686 20C284.299 19.8133 284.793 20.0133 285.166 20.6C285.566 21.1867 285.766 21.9467 285.766 22.88L284.926 25.04L286.366 23.28C286.526 23.0667 286.686 22.88 286.846 22.72C287.033 22.56 287.193 22.4267 287.326 22.32C287.379 22.1333 287.459 22.0267 287.566 22C287.673 21.9733 287.726 21.96 287.726 21.96C287.726 21.96 287.753 21.96 287.806 21.96C287.859 21.9333 287.886 21.88 287.886 21.8C288.019 21.6933 288.166 21.6 288.326 21.52C288.486 21.4133 288.593 21.3067 288.646 21.2C289.099 21.0133 289.513 20.9867 289.886 21.12C290.259 21.2267 290.579 21.56 290.846 22.12C291.033 22.44 291.139 22.72 291.166 22.96C291.193 23.2 291.206 23.56 291.206 24.04C291.153 24.44 291.099 24.76 291.046 25C291.019 25.2133 290.993 25.44 290.966 25.68C290.939 25.92 290.899 26.2533 290.846 26.68C290.739 26.8933 290.673 27.12 290.646 27.36C290.646 27.6 290.646 27.8267 290.646 28.04C290.646 28.3867 290.659 28.6267 290.686 28.76C290.713 28.8667 290.819 28.92 291.006 28.92C291.379 28.84 291.886 28.6533 292.526 28.36C293.193 28.04 293.686 27.7333 294.006 27.44C294.406 27.0667 294.753 26.88 295.046 26.88C295.366 26.8533 295.566 27 295.646 27.32C295.699 27.4267 295.606 27.6667 295.366 28.04C295.153 28.4133 294.899 28.7733 294.606 29.12C294.339 29.4667 294.139 29.64 294.006 29.64C293.926 29.64 293.833 29.72 293.726 29.88C293.619 30.0133 293.499 30.12 293.366 30.2C293.179 30.3867 292.993 30.56 292.806 30.72C292.646 30.88 292.459 30.96 292.246 30.96C292.139 30.96 292.006 31 291.846 31.08C291.713 31.1333 291.553 31.16 291.366 31.16C291.099 31.24 290.686 31.2 290.126 31.04C289.593 30.88 289.246 30.5067 289.086 29.92C288.979 29.6267 288.886 29.16 288.806 28.52C288.726 27.8533 288.739 27.1867 288.846 26.52C288.953 26.04 289.019 25.6 289.046 25.2C289.073 24.8 289.126 24.52 289.206 24.36C289.206 24.28 289.206 24.0933 289.206 23.8C289.206 23.48 289.166 23.32 289.086 23.32C288.979 23.32 288.726 23.52 288.326 23.92C287.953 24.2933 287.499 24.7733 286.966 25.36C286.459 25.9467 285.953 26.56 285.446 27.2C284.939 27.84 284.526 28.4133 284.206 28.92C283.966 29.2133 283.753 29.5733 283.566 30C283.379 30.4267 283.246 30.6667 283.166 30.72C282.979 30.9333 282.753 30.96 282.486 30.8C282.246 30.64 282.019 30.3867 281.806 30.04C281.726 29.88 281.673 29.7467 281.646 29.64C281.619 29.5067 281.619 29.3333 281.646 29.12C281.699 28.88 281.793 28.5333 281.926 28.08C282.086 27.6267 282.299 26.9867 282.566 26.16C282.859 25.2533 283.113 24.44 283.326 23.72C283.566 22.9733 283.686 22.6 283.686 22.6C283.686 22.4933 283.486 22.6 283.086 22.92C282.686 23.2133 282.219 23.5867 281.686 24.04C281.446 24.3333 281.046 24.7733 280.486 25.36C279.926 25.9467 279.313 26.6133 278.646 27.36C277.979 28.1067 277.339 28.8933 276.726 29.72C275.953 30.8133 275.406 31.48 275.086 31.72C274.793 31.96 274.499 31.8933 274.206 31.52ZM308.378 18.16C308.725 18.3467 308.951 18.5333 309.058 18.72C309.165 18.88 309.378 19.1867 309.698 19.64C309.645 19.88 309.565 20.24 309.458 20.72C309.378 21.1733 309.285 21.6133 309.178 22.04C309.071 22.4667 308.965 22.7867 308.858 23C308.911 23.3733 308.818 23.92 308.578 24.64C308.365 25.3333 308.138 26.0667 307.898 26.84C307.658 27.5867 307.458 28.32 307.298 29.04C307.138 29.76 307.111 30.3867 307.218 30.92C307.138 30.9733 307.058 31.04 306.978 31.12C306.925 31.2 306.845 31.2667 306.738 31.32C306.418 31.48 306.098 31.4933 305.778 31.36C305.458 31.2267 305.205 31 305.018 30.68C304.831 30.3333 304.778 29.9733 304.858 29.6C304.938 29.2533 305.071 28.7333 305.258 28.04C305.445 27.32 305.645 26.5333 305.858 25.68C306.071 24.8267 306.271 24 306.458 23.2C306.645 22.3733 306.805 21.6667 306.938 21.08C307.071 20.4933 307.138 20.1067 307.138 19.92C307.138 19.68 306.951 19.5467 306.578 19.52C306.231 19.4667 305.845 19.48 305.418 19.56C305.018 19.6133 304.751 19.6667 304.618 19.72C304.058 19.96 303.591 20.2933 303.218 20.72C302.845 21.1467 302.538 21.6267 302.298 22.16C302.058 22.6933 301.831 23.24 301.618 23.8C301.645 23.96 301.658 24.1067 301.658 24.24C301.658 24.3467 301.711 24.4667 301.818 24.6C301.951 24.7867 302.151 24.92 302.418 25C302.685 25.08 302.965 25.1467 303.258 25.2C303.551 25.2533 303.805 25.3333 304.018 25.44C304.098 25.4667 304.165 25.48 304.218 25.48C304.271 25.4533 304.325 25.44 304.378 25.44C304.458 25.44 304.525 25.4933 304.578 25.6C304.765 25.92 304.898 26.1867 304.978 26.4C305.058 26.6133 304.965 26.9067 304.698 27.28C304.031 27.7333 303.378 28.1733 302.738 28.6C302.098 29.0267 301.471 29.5067 300.858 30.04C300.671 30.2267 300.445 30.3733 300.178 30.48C299.938 30.56 299.725 30.7067 299.538 30.92C299.378 31.1067 299.191 31.28 298.978 31.44C298.791 31.5733 298.605 31.7333 298.418 31.92C298.311 32.0267 298.205 32.12 298.098 32.2C297.991 32.2533 297.871 32.2267 297.738 32.12C297.338 32.0933 297.045 31.92 296.858 31.6C296.671 31.28 296.525 30.8933 296.418 30.44C296.711 30.0667 297.165 29.6533 297.778 29.2C298.391 28.72 299.071 28.24 299.818 27.76C300.591 27.2533 301.311 26.8133 301.978 26.44C301.285 26.3867 300.751 26.24 300.378 26C300.005 25.7333 299.671 25.4667 299.378 25.2C299.058 24.7733 298.911 24.28 298.938 23.72C298.991 23.16 299.138 22.6133 299.378 22.08C299.618 21.52 299.858 21.0533 300.098 20.68C300.151 20.6267 300.178 20.5733 300.178 20.52C300.205 20.4667 300.231 20.4267 300.258 20.4C300.605 19.7867 300.898 19.3467 301.138 19.08C301.405 18.8133 301.831 18.4933 302.418 18.12C302.631 17.9867 302.858 17.8933 303.098 17.84C303.338 17.76 303.578 17.7067 303.818 17.68C304.085 17.6267 304.445 17.6 304.898 17.6C305.351 17.6 305.805 17.6267 306.258 17.68C306.711 17.7067 307.058 17.7733 307.298 17.88C307.485 17.9333 307.658 18 307.818 18.08C308.005 18.16 308.191 18.1867 308.378 18.16ZM310.569 32.52C310.436 32.52 310.289 32.4533 310.129 32.32C309.996 32.1867 309.876 32.0133 309.769 31.8C309.662 31.56 309.596 31.3467 309.569 31.16C309.569 31.0267 309.742 30.7467 310.089 30.32C310.462 29.8667 310.942 29.32 311.529 28.68C312.116 28.04 312.716 27.4 313.329 26.76L315.049 24.88L314.329 22.96C314.196 22.56 314.036 22.12 313.849 21.64C313.689 21.1333 313.542 20.68 313.409 20.28C313.302 19.8533 313.249 19.5733 313.249 19.44C313.142 19.1467 313.102 18.88 313.129 18.64C313.156 18.3733 313.209 18.1867 313.289 18.08C313.262 17.8667 313.422 17.76 313.769 17.76C314.116 17.76 314.396 17.8533 314.609 18.04C314.822 18.0933 315.022 18.2667 315.209 18.56C315.396 18.8267 315.556 19.1467 315.689 19.52C315.849 19.8667 315.969 20.2133 316.049 20.56C316.049 20.64 316.089 20.8533 316.169 21.2C316.276 21.52 316.382 21.8267 316.489 22.12L316.769 23.48L317.689 22.48C317.876 22.2667 318.076 22.0667 318.289 21.88C318.529 21.6933 318.649 21.5467 318.649 21.44C318.756 21.44 318.942 21.3067 319.209 21.04C319.476 20.7467 319.796 20.4133 320.169 20.04C320.542 19.6133 320.916 19.2667 321.289 19C321.689 18.7067 321.942 18.56 322.049 18.56C322.342 18.5333 322.622 18.6933 322.889 19.04C323.156 19.36 323.302 19.72 323.329 20.12C323.329 20.3067 323.089 20.68 322.609 21.24C322.129 21.8 321.409 22.4267 320.449 23.12C319.862 23.5467 319.409 23.9067 319.089 24.2C318.769 24.4933 318.289 24.8933 317.649 25.4C318.076 26.28 318.476 27.0667 318.849 27.76C319.249 28.4533 319.742 29.12 320.329 29.76C320.622 30.0267 320.889 30.28 321.129 30.52C321.396 30.76 321.529 30.88 321.529 30.88C321.636 30.8533 321.742 30.92 321.849 31.08C321.982 31.2133 322.036 31.3867 322.009 31.6C322.089 31.7867 322.062 31.9467 321.929 32.08C321.822 32.1867 321.689 32.2667 321.529 32.32C321.369 32.3733 321.262 32.44 321.209 32.52C321.022 32.5467 320.849 32.52 320.689 32.44C320.556 32.3333 320.449 32.3067 320.369 32.36C320.262 32.4133 319.969 32.2667 319.489 31.92C319.036 31.5733 318.596 31.16 318.169 30.68C317.982 30.4933 317.742 30.2 317.449 29.8C317.182 29.3733 316.942 29.0267 316.729 28.76C316.542 28.4667 316.369 28.2133 316.209 28C316.049 27.7867 315.942 27.6267 315.889 27.52C315.782 27.6267 315.516 27.9067 315.089 28.36C314.662 28.7867 314.116 29.36 313.449 30.08C312.409 31.0933 311.716 31.76 311.369 32.08C311.049 32.3733 310.782 32.52 310.569 32.52Z" fill="#7CB7DF"/>
</svg>
