<svg width="354" height="143" viewBox="0 0 354 143" fill="none" xmlns="http://www.w3.org/2000/svg">
<path d="M16.2 133.16C15.8 133.027 15.48 132.774 15.24 132.4C15.0267 132.027 14.9867 131.747 15.12 131.56C15.28 131.214 15.4133 130.854 15.52 130.48C15.6267 130.08 15.7733 129.707 15.96 129.36C16.1467 129.04 16.28 128.707 16.36 128.36C16.4667 127.987 16.5733 127.627 16.68 127.28C16.8933 126.667 17.1067 126.067 17.32 125.48C17.5333 124.867 17.7733 124.267 18.04 123.68C18.2533 123.28 18.4267 122.854 18.56 122.4C18.72 121.92 18.9067 121.414 19.12 120.88C18.6667 121.147 18.2533 121.414 17.88 121.68C17.5333 121.947 17.2133 122.24 16.92 122.56C16.3067 123.174 15.7733 123.667 15.32 124.04C14.8933 124.387 14.44 124.747 13.96 125.12C13.5067 125.467 12.9333 125.947 12.24 126.56C12.2133 126.587 12.0133 126.734 11.64 127C11.2667 127.267 10.8133 127.574 10.28 127.92C9.74667 128.24 9.25333 128.547 8.8 128.84C8.34667 129.134 8.02667 129.334 7.84 129.44C7.33333 129.734 6.92 130 6.6 130.24C6.30667 130.48 5.98667 130.72 5.64 130.96C5.29333 131.2 4.8 131.48 4.16 131.8C3.81333 132.014 3.54667 132.12 3.36 132.12C3.17333 132.12 2.98667 132.067 2.8 131.96C2.61333 131.854 2.34667 131.747 2 131.64C1.97333 131.454 1.88 131.24 1.72 131C1.56 130.76 1.62667 130.534 1.92 130.32C2 130.214 2.24 130.027 2.64 129.76C3.04 129.494 3.49333 129.2 4 128.88C4.53333 128.534 5.02667 128.214 5.48 127.92C5.93333 127.627 6.25333 127.4 6.44 127.24C6.62667 127.107 6.93333 126.92 7.36 126.68C7.78667 126.414 8.24 126.134 8.72 125.84C9.2 125.547 9.64 125.28 10.04 125.04C10.4667 124.774 10.7467 124.574 10.88 124.44C10.9333 124.387 11.0133 124.32 11.12 124.24C11.2533 124.134 11.4933 123.947 11.84 123.68C12.1867 123.414 12.72 123.014 13.44 122.48C14.16 121.947 15.1333 121.214 16.36 120.28C16.68 120.067 16.96 119.814 17.2 119.52C17.44 119.2 17.6267 118.84 17.76 118.44C17.68 118.28 17.5067 117.987 17.24 117.56C17 117.134 16.72 116.68 16.4 116.2C16.1067 115.72 15.84 115.307 15.6 114.96C15.3867 114.587 15.2667 114.4 15.24 114.4C15.1867 114.347 15.04 114.187 14.8 113.92C14.5867 113.627 14.3333 113.32 14.04 113C13.7733 112.654 13.5467 112.374 13.36 112.16C13.1733 111.92 13.1067 111.827 13.16 111.88C13.1333 111.854 12.9733 111.627 12.68 111.2C12.3867 110.774 12.04 110.28 11.64 109.72C11.2667 109.16 10.9333 108.667 10.64 108.24C10.3467 107.787 10.1867 107.534 10.16 107.48C9.94667 107.187 9.73333 106.88 9.52 106.56C9.30667 106.24 9.17333 105.894 9.12 105.52C9.25333 105.307 9.44 105.187 9.68 105.16C9.92 105.134 10.0933 105.147 10.2 105.2C10.4933 105.334 10.8 105.454 11.12 105.56C11.44 105.64 11.6933 105.827 11.88 106.12C12.1467 106.414 12.36 106.627 12.52 106.76C12.68 106.894 12.8933 107.187 13.16 107.64L18.36 115C18.4667 115.107 18.64 115.36 18.88 115.76C19.1467 116.134 19.3733 116.48 19.56 116.8C19.7733 117.12 19.8533 117.254 19.8 117.2C19.9067 117.494 20.04 117.547 20.2 117.36C20.3867 117.174 20.5467 116.987 20.68 116.8C20.6533 116.4 20.7067 116.014 20.84 115.64C20.9733 115.24 21.0933 114.827 21.2 114.4C21.4133 113.734 21.6267 113.067 21.84 112.4C22.08 111.707 22.2667 111.027 22.4 110.36C22.4533 110.147 22.5067 109.947 22.56 109.76C22.64 109.574 22.7467 109.387 22.88 109.2C23.0133 108.987 23.0933 108.76 23.12 108.52C23.1467 108.28 23.1867 108.04 23.24 107.8C23.32 107.4 23.4 107 23.48 106.6C23.5867 106.174 23.7467 105.774 23.96 105.4C24.4933 105.267 24.8933 105.387 25.16 105.76C25.4533 106.134 25.7333 106.467 26 106.76C26.0267 106.974 26.0267 107.187 26 107.4C26 107.614 25.9333 107.827 25.8 108.04L25.24 109.92C25.24 109.974 25.1733 110.214 25.04 110.64C24.9333 111.04 24.8 111.494 24.64 112C24.5067 112.507 24.3733 112.92 24.24 113.24C24.1067 113.64 23.9867 114.054 23.88 114.48C23.8 114.88 23.68 115.267 23.52 115.64C23.4133 116.2 23.2667 116.76 23.08 117.32C22.92 117.854 22.7733 118.387 22.64 118.92C22.64 119.08 22.7067 119.094 22.84 118.96C23 118.8 23.1733 118.6 23.36 118.36L24.96 116.84C24.9867 116.814 25.1733 116.627 25.52 116.28C25.8933 115.907 26.36 115.454 26.92 114.92C27.48 114.36 28.0667 113.787 28.68 113.2C29.32 112.587 29.9067 112.04 30.44 111.56C31 111.08 31.44 110.72 31.76 110.48C32.5333 109.707 33.3067 109.027 34.08 108.44C34.8533 107.854 35.5333 107.467 36.12 107.28C36.3867 107.52 36.6667 107.747 36.96 107.96C37.28 108.147 37.4933 108.454 37.6 108.88C37.4667 109.147 37.28 109.44 37.04 109.76C36.8 110.054 36.56 110.28 36.32 110.44C35.6533 110.787 34.9867 111.227 34.32 111.76C33.68 112.267 33.16 112.667 32.76 112.96C32.4667 113.147 32.08 113.44 31.6 113.84C31.1467 114.24 30.6667 114.667 30.16 115.12C29.68 115.574 29.24 116 28.84 116.4C28.44 116.774 28.1733 117.027 28.04 117.16C27.8267 117.4 27.44 117.734 26.88 118.16C26.32 118.587 25.7467 119.2 25.16 120C25.3733 120.374 25.56 120.76 25.72 121.16C25.9067 121.56 26.1467 121.907 26.44 122.2C26.4133 122.174 26.52 122.347 26.76 122.72C27 123.094 27.2933 123.547 27.64 124.08C28.0133 124.614 28.36 125.12 28.68 125.6C29 126.08 29.2133 126.4 29.32 126.56C29.5067 127.014 29.7733 127.427 30.12 127.8C30.4667 128.147 30.7467 128.547 30.96 129C31.1733 129.187 31.36 129.387 31.52 129.6C31.7067 129.787 31.9333 129.947 32.2 130.08C32.4133 130.16 32.5867 130.334 32.72 130.6C32.8533 130.867 32.9867 131.16 33.12 131.48C32.96 131.934 32.7867 132.2 32.6 132.28C32.44 132.387 32.0267 132.467 31.36 132.52C30.9067 132.414 30.4267 132.134 29.92 131.68C29.44 131.2 29.0533 130.734 28.76 130.28C27.9333 129.107 27.2 127.974 26.56 126.88C25.92 125.787 25.32 124.827 24.76 124C24.7067 123.68 24.5867 123.4 24.4 123.16C24.2133 122.894 24.0533 122.627 23.92 122.36C23.8933 122.254 23.8533 122.174 23.8 122.12C23.7467 122.04 23.68 121.974 23.6 121.92C23.5467 121.867 23.4667 121.84 23.36 121.84C23.0667 121.787 22.84 121.64 22.68 121.4C22.52 121.134 22.32 120.854 22.08 120.56C21.8933 121.307 21.6533 122.014 21.36 122.68C21.0667 123.32 20.7867 123.987 20.52 124.68C20.4667 124.84 20.3733 124.987 20.24 125.12C20.1067 125.254 20.04 125.427 20.04 125.64C20.04 125.72 19.96 126 19.8 126.48C19.64 126.934 19.44 127.494 19.2 128.16C18.96 128.8 18.72 129.467 18.48 130.16C18.2667 130.827 18.0933 131.4 17.96 131.88C17.8533 132.174 17.7733 132.4 17.72 132.56C17.6667 132.747 17.56 132.88 17.4 132.96C17.2133 133.067 17.0133 133.147 16.8 133.2C16.6133 133.254 16.4133 133.24 16.2 133.16ZM40.9269 131.76C40.8469 131.787 40.6602 131.747 40.3669 131.64C40.0735 131.507 39.7535 131.347 39.4069 131.16C39.0869 130.947 38.8335 130.747 38.6469 130.56C38.4335 130.294 38.2335 130.027 38.0469 129.76C37.8869 129.467 37.8069 129.134 37.8069 128.76C37.6202 128.36 37.5135 127.947 37.4869 127.52C37.4869 127.067 37.4735 126.627 37.4469 126.2C37.4202 125.534 37.5669 124.854 37.8869 124.16C38.2069 123.44 38.4602 122.907 38.6469 122.56C38.7802 122.187 39.0469 121.707 39.4469 121.12C39.8735 120.507 40.3935 119.907 41.0069 119.32C41.6202 118.734 42.2602 118.28 42.9269 117.96C43.3535 117.747 43.7802 117.574 44.2069 117.44C44.6602 117.28 45.1802 117.307 45.7669 117.52C46.0602 117.6 46.2735 117.707 46.4069 117.84C46.5402 117.974 46.6869 118.107 46.8469 118.24C47.0602 118.08 47.2335 117.694 47.3669 117.08C47.5269 116.44 47.6202 115.72 47.6469 114.92C47.7002 114.094 47.6602 113.307 47.5269 112.56C47.4202 111.787 47.1935 111.174 46.8469 110.72C46.2069 109.84 45.5002 109.267 44.7269 109C43.9535 108.734 43.0735 108.814 42.0869 109.24C41.7669 109.107 41.4735 108.854 41.2069 108.48C40.9669 108.107 40.9002 107.734 41.0069 107.36C41.2202 107.174 41.4869 106.987 41.8069 106.8C42.1269 106.614 42.4469 106.494 42.7669 106.44C43.1402 106.36 43.5135 106.307 43.8869 106.28C44.2869 106.254 44.7002 106.36 45.1269 106.6C46.5135 107.054 47.5535 107.694 48.2469 108.52C48.9669 109.32 49.4602 110.294 49.7269 111.44C49.9935 112.587 50.1535 113.907 50.2069 115.4C50.2602 115.827 50.2735 116.214 50.2469 116.56C50.2469 116.88 50.2069 117.427 50.1269 118.2C49.8602 118.547 49.7535 118.96 49.8069 119.44C49.8869 119.894 49.8335 120.32 49.6469 120.72C49.6202 121.174 49.5135 121.547 49.3269 121.84C49.1402 122.134 49.0469 122.414 49.0469 122.68C48.5669 124.014 47.9135 125.32 47.0869 126.6C46.2869 127.88 45.3669 128.987 44.3269 129.92C43.2869 130.854 42.1535 131.467 40.9269 131.76ZM40.6869 129.16C40.9535 129.267 41.3535 129.16 41.8869 128.84C42.4202 128.494 42.9669 128.04 43.5269 127.48C44.0869 126.894 44.5535 126.334 44.9269 125.8C45.0602 125.614 45.2335 125.307 45.4469 124.88C45.6869 124.454 45.9002 124.04 46.0869 123.64C46.3002 123.24 46.4202 122.987 46.4469 122.88C46.6869 122.214 46.8202 121.587 46.8469 121C46.9002 120.387 46.8335 119.987 46.6469 119.8C46.3535 119.454 45.8735 119.374 45.2069 119.56C44.5669 119.747 43.9535 120.054 43.3669 120.48C42.9402 120.8 42.5535 121.227 42.2069 121.76C41.8869 122.267 41.5535 122.734 41.2069 123.16C41.2335 123.347 41.1802 123.507 41.0469 123.64C40.9402 123.774 40.8202 123.907 40.6869 124.04C40.3402 124.707 40.1135 125.334 40.0069 125.92C39.9002 126.48 39.8469 126.827 39.8469 126.96C39.8469 127.387 39.9135 127.827 40.0469 128.28C40.1802 128.734 40.3935 129.027 40.6869 129.16ZM58.1884 130.6C57.6284 131.08 56.9751 131.36 56.2284 131.44C55.5084 131.52 54.8018 131.414 54.1084 131.12C53.4151 130.8 52.8418 130.32 52.3884 129.68C51.9351 129.094 51.6418 128.427 51.5084 127.68C51.3751 126.907 51.3618 125.907 51.4684 124.68C51.5484 123.64 51.8818 122.6 52.4684 121.56C53.0551 120.494 53.7618 119.547 54.5884 118.72C55.4418 117.894 56.2818 117.32 57.1084 117C57.5084 116.734 57.8418 116.614 58.1084 116.64C58.4018 116.64 58.8418 116.667 59.4284 116.72C60.0418 116.8 60.4951 116.92 60.7884 117.08C61.1084 117.24 61.3618 117.454 61.5484 117.72C61.9484 118.12 62.2151 118.52 62.3484 118.92C62.4818 119.294 62.5484 119.667 62.5484 120.04C62.4418 120.627 62.0418 121.347 61.3484 122.2C60.6818 123.027 59.8018 123.707 58.7084 124.24C58.1218 124.427 57.4818 124.507 56.7884 124.48C56.0951 124.454 55.5218 124.28 55.0684 123.96C54.5618 123.747 54.2284 123.787 54.0684 124.08C53.9084 124.347 53.7618 125.014 53.6284 126.08C53.5218 127.094 53.6018 127.84 53.8684 128.32C54.1351 128.774 54.4951 129.04 54.9484 129.12C55.4818 129.227 55.8951 129.307 56.1884 129.36C56.5084 129.387 56.8951 129.267 57.3484 129C57.7751 128.734 58.0418 128.587 58.1484 128.56C58.2551 128.507 58.3351 128.454 58.3884 128.4C58.4684 128.32 58.6418 128.147 58.9084 127.88C59.0951 127.694 59.2418 127.56 59.3484 127.48C59.4551 127.374 59.5751 127.32 59.7084 127.32C59.8418 127.32 59.9618 127.387 60.0684 127.52C60.1751 127.627 60.2818 127.707 60.3884 127.76C60.6551 127.76 60.7084 127.92 60.5484 128.24C60.4151 128.56 60.1351 128.947 59.7084 129.4C59.2818 129.827 58.7751 130.227 58.1884 130.6ZM58.1484 122.12C58.4418 121.987 58.7484 121.8 59.0684 121.56C59.3884 121.294 59.6551 121.014 59.8684 120.72C60.1084 120.4 60.2284 120.134 60.2284 119.92C60.2284 119.547 60.0551 119.24 59.7084 119C59.3618 118.734 58.8418 118.694 58.1484 118.88C57.8551 118.96 57.5218 119.16 57.1484 119.48C56.7751 119.774 56.4151 120.107 56.0684 120.48C55.7484 120.854 55.4818 121.187 55.2684 121.48C55.0818 121.774 55.0151 121.947 55.0684 122C55.1484 122.134 55.3751 122.24 55.7484 122.32C56.1218 122.374 56.5351 122.387 56.9884 122.36C57.4684 122.334 57.8551 122.254 58.1484 122.12ZM57.6284 114C57.4418 113.814 57.2818 113.587 57.1484 113.32C57.0418 113.027 57.0018 112.827 57.0284 112.72C57.0818 112.587 57.1751 112.334 57.3084 111.96C57.4684 111.56 57.6418 111.28 57.8284 111.12C57.9084 111.067 57.9884 110.987 58.0684 110.88C58.1751 110.747 58.2818 110.667 58.3884 110.64C58.7084 110.427 59.0018 110.4 59.2684 110.56C59.5618 110.694 59.7751 110.974 59.9084 111.4C60.1484 111.774 60.2284 112.107 60.1484 112.4C60.0684 112.667 59.8551 113.027 59.5084 113.48C59.1084 114.014 58.7484 114.307 58.4284 114.36C58.1084 114.414 57.8418 114.294 57.6284 114ZM62.7484 114C62.5618 113.814 62.4018 113.587 62.2684 113.32C62.1618 113.027 62.1218 112.827 62.1484 112.72C62.2018 112.587 62.2951 112.334 62.4284 111.96C62.5884 111.56 62.7618 111.28 62.9484 111.12C63.0284 111.067 63.1084 110.987 63.1884 110.88C63.2951 110.747 63.4018 110.667 63.5084 110.64C63.8284 110.427 64.1218 110.4 64.3884 110.56C64.6818 110.694 64.8951 110.974 65.0284 111.4C65.2684 111.774 65.3484 112.107 65.2684 112.4C65.1884 112.667 64.9751 113.027 64.6284 113.48C64.2284 114.014 63.8684 114.307 63.5484 114.36C63.2284 114.414 62.9618 114.294 62.7484 114ZM80.0763 131.88C79.8096 131.747 79.6096 131.614 79.4763 131.48C79.3429 131.32 79.1163 131.147 78.7963 130.96C78.6896 130.587 78.5696 130.214 78.4363 129.84C78.3296 129.44 78.2896 129.054 78.3163 128.68C78.3429 128.467 78.3029 128.24 78.1963 128C78.1163 127.734 78.1296 127.507 78.2363 127.32C78.1829 126.894 78.1963 126.347 78.2763 125.68C78.3563 124.987 78.4629 124.334 78.5963 123.72C78.7296 123.08 78.8229 122.627 78.8763 122.36C78.7963 122.254 78.7163 122.187 78.6363 122.16C78.5829 122.134 78.5029 122.174 78.3963 122.28C78.1296 122.547 77.8763 122.814 77.6363 123.08C77.3963 123.347 77.1429 123.627 76.8763 123.92C76.7696 124.027 76.6496 124.134 76.5163 124.24C76.3829 124.32 76.3163 124.454 76.3163 124.64L74.8763 126.56C74.7696 126.774 74.5696 127.054 74.2763 127.4C74.0096 127.72 73.7963 128.107 73.6363 128.56C73.5829 128.747 73.4896 128.907 73.3563 129.04C73.2229 129.147 73.0896 129.254 72.9563 129.36C72.6096 129.227 72.3829 129.134 72.2763 129.08C72.1696 129.027 71.9696 128.867 71.6763 128.6C71.4096 128.334 71.2229 128.094 71.1163 127.88C71.0096 127.64 70.9829 127.4 71.0363 127.16C71.0363 126.76 71.0363 126.2 71.0363 125.48C71.0629 124.734 71.0629 124.027 71.0363 123.36C71.0363 122.667 70.9829 122.187 70.8763 121.92C70.5829 121.947 70.3829 121.987 70.2763 122.04C70.1696 122.094 70.0363 122.254 69.8763 122.52C69.9029 122.494 69.7829 122.68 69.5163 123.08C69.2763 123.454 68.9429 123.947 68.5163 124.56C68.1163 125.147 67.7163 125.747 67.3163 126.36C66.9163 126.947 66.5829 127.454 66.3163 127.88C66.0763 128.28 65.9696 128.467 65.9963 128.44C65.8096 128.654 65.6496 128.88 65.5163 129.12C65.4096 129.36 65.3029 129.614 65.1963 129.88C65.0629 130.2 64.9163 130.414 64.7563 130.52C64.5963 130.6 64.4496 130.574 64.3163 130.44C64.1029 130.307 63.8763 130.174 63.6363 130.04C63.4229 129.907 63.2363 129.787 63.0763 129.68C62.9696 129.494 62.8763 129.307 62.7962 129.12C62.7429 128.907 62.7029 128.667 62.6763 128.4C62.8896 128.267 63.0363 128.187 63.1163 128.16C63.1963 128.107 63.2629 128.014 63.3163 127.88C63.9029 127 64.4096 126.254 64.8363 125.64C65.2629 125 65.6229 124.48 65.9163 124.08C66.2096 123.68 66.4363 123.374 66.5963 123.16C66.7563 122.92 66.8496 122.76 66.8763 122.68C67.0096 122.414 67.1696 122.16 67.3563 121.92C67.5696 121.68 67.7696 121.427 67.9563 121.16C67.9829 121.08 68.1163 120.894 68.3563 120.6C68.5963 120.28 68.8496 119.96 69.1163 119.64C69.3829 119.32 69.5696 119.134 69.6763 119.08C69.8096 119 69.9029 118.894 69.9563 118.76C70.0363 118.6 70.1163 118.44 70.1963 118.28C70.2496 118.04 70.3696 117.867 70.5563 117.76C70.7429 117.654 71.0229 117.627 71.3963 117.68C71.6096 117.867 71.8496 118.067 72.1163 118.28C72.3829 118.467 72.6629 118.667 72.9563 118.88C72.9296 119.147 72.9163 119.427 72.9163 119.72C72.9429 120.014 73.0496 120.467 73.2363 121.08C73.1563 121.4 73.1696 121.734 73.2763 122.08C73.3829 122.427 73.3829 122.747 73.2763 123.04C73.2763 123.387 73.3563 123.64 73.5163 123.8C73.7029 123.934 73.9829 123.8 74.3563 123.4C74.7829 122.867 75.2896 122.294 75.8763 121.68C76.4629 121.04 77.0363 120.44 77.5963 119.88C78.1829 119.294 78.6763 118.8 79.0763 118.4C79.5029 117.974 79.7563 117.707 79.8363 117.6C79.8896 117.467 79.9829 117.4 80.1163 117.4C80.2763 117.374 80.4229 117.4 80.5563 117.48C81.0096 117.72 81.3163 117.894 81.4763 118C81.6363 118.107 81.8629 118.307 82.1563 118.6C82.4229 118.974 82.4629 119.307 82.2763 119.6C82.1696 119.867 82.0229 120.307 81.8363 120.92C81.6763 121.507 81.5029 122.16 81.3163 122.88C81.1563 123.6 81.0096 124.28 80.8763 124.92C80.7696 125.534 80.7029 126.014 80.6763 126.36C80.6496 126.894 80.6229 127.454 80.5963 128.04C80.5696 128.6 80.6096 129.187 80.7162 129.8C80.9296 130.627 80.9829 131.16 80.8763 131.4C80.7963 131.614 80.5296 131.774 80.0763 131.88ZM98.9422 134.28C97.7955 133.534 97.0222 132.88 96.6222 132.32C96.2222 131.787 96.3822 131.294 97.1022 130.84C97.2622 130.734 97.5155 130.827 97.8622 131.12C98.2355 131.387 98.5422 131.64 98.7822 131.88C99.3155 132.36 99.9689 132.654 100.742 132.76C101.542 132.894 102.436 132.827 103.422 132.56C104.542 132.214 105.516 131.734 106.342 131.12C107.196 130.48 107.996 129.707 108.742 128.8C109.302 128.08 109.689 127.307 109.902 126.48C110.116 125.627 110.196 124.84 110.142 124.12C110.116 123.4 109.969 122.894 109.702 122.6C109.036 121.667 108.102 121.027 106.902 120.68C105.729 120.307 104.342 120.334 102.742 120.76C102.556 120.787 102.276 120.84 101.902 120.92C101.529 121 101.196 121.08 100.902 121.16C100.609 121.214 100.449 121.24 100.422 121.24C100.236 121.294 100.089 121.36 99.9822 121.44C99.8755 121.494 99.7422 121.694 99.5822 122.04C99.4489 122.36 99.2355 122.947 98.9422 123.8C98.6489 124.627 98.2089 125.854 97.6222 127.48C97.0622 129.107 96.6089 130.267 96.2622 130.96C95.9422 131.627 95.6489 131.934 95.3822 131.88C95.1422 131.8 94.8355 131.507 94.4622 131C94.2489 130.627 94.1155 130.267 94.0622 129.92C94.0089 129.547 94.1155 129.12 94.3822 128.64C94.5155 128.4 94.6222 128.187 94.7022 128C94.7822 127.787 94.8889 127.427 95.0222 126.92C95.1555 126.52 95.4089 125.827 95.7822 124.84C96.1822 123.827 96.6489 122.654 97.1822 121.32C97.7155 119.96 98.2755 118.56 98.8622 117.12C99.4489 115.68 100.009 114.32 100.542 113.04C101.102 111.76 101.569 110.68 101.942 109.8C102.316 108.974 102.542 108.374 102.622 108C102.702 107.627 102.676 107.427 102.542 107.4C102.542 107.267 102.502 107.147 102.422 107.04C102.342 106.907 102.316 106.787 102.342 106.68C102.342 106.574 102.516 106.427 102.862 106.24C103.236 106.054 103.636 105.88 104.062 105.72C104.516 105.56 104.862 105.507 105.102 105.56C105.236 105.56 105.396 105.56 105.582 105.56C105.769 105.534 105.862 105.467 105.862 105.36C105.942 105.36 106.196 105.334 106.622 105.28C107.049 105.227 107.516 105.227 108.022 105.28C109.809 105.44 111.196 105.96 112.182 106.84C113.169 107.694 113.649 108.867 113.622 110.36C113.596 110.814 113.356 111.427 112.902 112.2C112.476 112.974 111.942 113.747 111.302 114.52C110.689 115.294 110.089 115.947 109.502 116.48C109.156 116.774 108.782 117.08 108.382 117.4C108.009 117.694 107.676 117.947 107.382 118.16C107.116 118.347 106.982 118.44 106.982 118.44C106.982 118.44 107.089 118.48 107.302 118.56C107.516 118.64 107.742 118.72 107.982 118.8C109.209 119.254 110.222 119.827 111.022 120.52C111.822 121.214 112.369 122.174 112.662 123.4C112.769 123.8 112.769 124.294 112.662 124.88C112.582 125.467 112.462 126.054 112.302 126.64C112.142 127.2 111.969 127.68 111.782 128.08C111.596 128.267 111.449 128.467 111.342 128.68C111.236 128.867 111.182 128.96 111.182 128.96C111.182 129.014 111.076 129.227 110.862 129.6C110.649 129.947 110.396 130.334 110.102 130.76C109.809 131.187 109.529 131.56 109.262 131.88C108.996 132.094 108.676 132.347 108.302 132.64C107.956 132.934 107.556 133.214 107.102 133.48C106.676 133.747 106.209 133.974 105.702 134.16C104.956 134.48 104.142 134.694 103.262 134.8C102.409 134.934 101.596 134.947 100.822 134.84C100.049 134.76 99.4222 134.574 98.9422 134.28ZM100.902 118.88C100.902 118.88 101.142 118.84 101.622 118.76C102.129 118.654 102.676 118.547 103.262 118.44C103.849 118.307 104.276 118.187 104.542 118.08C104.676 118 104.862 117.894 105.102 117.76C105.369 117.627 105.636 117.427 105.902 117.16C106.276 116.814 106.742 116.32 107.302 115.68C107.889 115.014 108.462 114.32 109.022 113.6C109.582 112.854 110.009 112.187 110.302 111.6C110.916 110.64 111.249 109.934 111.302 109.48C111.356 109 111.209 108.587 110.862 108.24C110.622 107.947 110.209 107.76 109.622 107.68C109.062 107.574 108.462 107.547 107.822 107.6C107.182 107.627 106.636 107.707 106.182 107.84C105.836 107.947 105.569 108.08 105.382 108.24C105.196 108.374 105.102 108.587 105.102 108.88C105.102 109.12 105.022 109.36 104.862 109.6C104.729 109.814 104.596 109.987 104.462 110.12C104.436 110.307 104.369 110.48 104.262 110.64C104.156 110.774 104.102 110.84 104.102 110.84C104.102 110.947 103.916 111.387 103.542 112.16C103.169 112.934 102.796 113.827 102.422 114.84C101.942 115.987 101.569 116.92 101.302 117.64C101.036 118.334 100.902 118.747 100.902 118.88ZM115.491 130.56C115.384 130.347 115.251 130.187 115.091 130.08C114.931 129.947 114.851 129.827 114.851 129.72C114.851 129.614 114.838 129.507 114.811 129.4C114.811 129.267 114.758 129.147 114.651 129.04C114.518 128.88 114.531 128.52 114.691 127.96C114.851 127.374 115.118 126.667 115.491 125.84C115.864 124.987 116.304 124.094 116.811 123.16C117.024 122.947 117.238 122.667 117.451 122.32C117.664 121.974 117.824 121.747 117.931 121.64C117.931 121.534 117.971 121.44 118.051 121.36C118.131 121.254 118.224 121.2 118.331 121.2V120.96C118.331 120.827 118.451 120.6 118.691 120.28C118.958 119.96 119.278 119.614 119.651 119.24C120.024 118.84 120.411 118.467 120.811 118.12C121.211 117.747 121.544 117.48 121.811 117.32C122.371 116.947 122.944 116.72 123.531 116.64C124.144 116.56 124.664 116.694 125.091 117.04C125.171 117.12 125.304 117.254 125.491 117.44C125.678 117.627 125.891 117.84 126.131 118.08C126.398 118.294 126.664 118.52 126.931 118.76L128.411 120.08L127.691 122.08C127.344 123.147 127.251 124.08 127.411 124.88C127.598 125.68 127.864 126.374 128.211 126.96C128.344 127.254 128.611 127.534 129.011 127.8C129.438 128.067 129.838 128.227 130.211 128.28C130.424 128.307 130.624 128.387 130.811 128.52C130.998 128.654 131.091 128.867 131.091 129.16C131.091 129.427 131.038 129.64 130.931 129.8C130.824 129.96 130.638 130.067 130.371 130.12C129.491 130.227 128.664 130.014 127.891 129.48C127.144 128.947 126.451 128.067 125.811 126.84C125.704 126.68 125.558 126.387 125.371 125.96C125.211 125.507 125.118 125.214 125.091 125.08C124.984 125.214 124.784 125.467 124.491 125.84C124.198 126.187 123.971 126.44 123.811 126.6C121.918 128.52 120.278 129.814 118.891 130.48C117.531 131.12 116.398 131.147 115.491 130.56ZM116.931 128.32C116.931 128.507 117.211 128.507 117.771 128.32C118.358 128.107 118.984 127.734 119.651 127.2C120.558 126.427 121.464 125.574 122.371 124.64C123.304 123.707 124.051 122.84 124.611 122.04L125.491 120.6C125.224 119.987 124.931 119.574 124.611 119.36C124.318 119.12 124.064 119 123.851 119C123.504 119 122.984 119.32 122.291 119.96C121.624 120.6 120.904 121.454 120.131 122.52C119.358 123.587 118.624 124.76 117.931 126.04C117.664 126.574 117.424 127.094 117.211 127.6C117.024 128.08 116.931 128.32 116.931 128.32ZM136.872 131.08C136.285 131.08 135.845 131.054 135.552 131C135.259 130.947 135.032 130.867 134.872 130.76C134.712 130.654 134.525 130.507 134.312 130.32C134.205 130.107 134.072 129.88 133.912 129.64C133.752 129.4 133.619 129.227 133.512 129.12C133.405 128.72 133.352 128.2 133.352 127.56C133.379 126.92 133.459 126.227 133.592 125.48C133.752 124.734 133.965 124.04 134.232 123.4C134.339 123.187 134.432 122.974 134.512 122.76C134.592 122.547 134.632 122.44 134.632 122.44C134.632 122.307 134.792 121.987 135.112 121.48C135.459 120.974 135.832 120.44 136.232 119.88C136.659 119.32 137.005 118.92 137.272 118.68C137.459 118.467 137.739 118.24 138.112 118C138.512 117.76 138.859 117.587 139.152 117.48C139.445 117.374 139.739 117.28 140.032 117.2C140.352 117.12 140.712 117.08 141.112 117.08C141.485 117.08 141.832 117.16 142.152 117.32C142.472 117.48 142.779 117.76 143.072 118.16C143.552 118.64 143.819 119.12 143.872 119.6C143.952 120.054 143.939 120.52 143.832 121C143.699 121.534 143.525 121.947 143.312 122.24C143.099 122.507 142.859 122.627 142.592 122.6C142.325 122.574 142.019 122.374 141.672 122C141.565 121.787 141.512 121.614 141.512 121.48C141.512 121.32 141.565 121.094 141.672 120.8C141.779 120.427 141.779 120.04 141.672 119.64C141.565 119.24 141.392 119.04 141.152 119.04C140.805 119.04 140.419 119.2 139.992 119.52C139.592 119.814 139.179 120.187 138.752 120.64C138.565 120.854 138.299 121.187 137.952 121.64C137.632 122.067 137.312 122.547 136.992 123.08C136.672 123.587 136.405 124.08 136.192 124.56C135.899 125.44 135.659 126.147 135.472 126.68C135.312 127.214 135.232 127.48 135.232 127.48C135.232 127.587 135.259 127.694 135.312 127.8C135.392 127.88 135.432 127.974 135.432 128.08C135.432 128.4 135.619 128.654 135.992 128.84C136.285 129.027 136.632 129.134 137.032 129.16C137.432 129.16 137.925 129.027 138.512 128.76C138.939 128.547 139.339 128.267 139.712 127.92C140.112 127.574 140.525 127.267 140.952 127C141.245 126.814 141.472 126.654 141.632 126.52C141.819 126.387 141.912 126.374 141.912 126.48C141.912 126.587 141.952 126.64 142.032 126.64C142.112 126.64 142.205 126.587 142.312 126.48C142.472 126.267 142.645 126.134 142.832 126.08C143.019 126 143.179 125.974 143.312 126C143.472 126 143.552 126.04 143.552 126.12C143.499 126.36 143.552 126.56 143.712 126.72C143.712 126.827 143.672 126.974 143.592 127.16C143.539 127.32 143.459 127.454 143.352 127.56C143.219 127.747 143.019 127.96 142.752 128.2C142.512 128.44 142.285 128.654 142.072 128.84C141.859 129 141.752 129.08 141.752 129.08C141.645 129.054 141.539 129.08 141.432 129.16C141.352 129.24 141.259 129.334 141.152 129.44C140.939 129.627 140.739 129.774 140.552 129.88C140.365 129.96 140.219 130 140.112 130C139.925 130.107 139.779 130.174 139.672 130.2C139.592 130.227 139.552 130.294 139.552 130.4C139.285 130.667 138.952 130.854 138.552 130.96C138.179 131.04 137.619 131.08 136.872 131.08ZM161.183 118.56C161.609 118.427 162.129 118.147 162.743 117.72C163.356 117.294 163.956 116.827 164.543 116.32C165.129 115.814 165.569 115.387 165.863 115.04C166.129 114.747 166.369 114.44 166.583 114.12C166.823 113.8 167.076 113.494 167.343 113.2C167.769 112.747 168.169 112.147 168.543 111.4C168.916 110.654 169.103 109.974 169.103 109.36C169.103 109.2 169.023 109.067 168.863 108.96C168.729 108.854 168.596 108.827 168.463 108.88C168.249 108.96 168.036 109.067 167.823 109.2C167.609 109.307 167.423 109.44 167.263 109.6C166.916 109.947 166.529 110.294 166.103 110.64C165.676 110.96 165.289 111.307 164.943 111.68C164.916 111.707 164.889 111.747 164.863 111.8C164.863 111.827 164.849 111.867 164.823 111.92C164.583 112.374 164.316 112.814 164.023 113.24C163.756 113.667 163.476 114.107 163.183 114.56C162.783 115.2 162.436 115.867 162.143 116.56C161.876 117.254 161.556 117.92 161.183 118.56ZM162.223 121.04C162.303 121.04 162.383 121.04 162.463 121.04C162.569 121.014 162.663 120.987 162.743 120.96C163.009 120.987 163.263 121.04 163.503 121.12C163.769 121.174 164.036 121.227 164.303 121.28C164.436 121.52 164.596 121.787 164.783 122.08C164.996 122.347 165.143 122.614 165.223 122.88C165.276 123.067 165.329 123.267 165.383 123.48C165.436 123.667 165.476 123.867 165.503 124.08C165.449 124.214 165.436 124.494 165.463 124.92C165.516 125.347 165.476 125.734 165.343 126.08C165.183 126.587 165.036 127.107 164.903 127.64C164.769 128.147 164.556 128.627 164.263 129.08C164.076 129.374 163.783 129.76 163.383 130.24C163.009 130.72 162.676 131.054 162.383 131.24C162.196 131.347 161.996 131.427 161.783 131.48C161.596 131.507 161.396 131.574 161.183 131.68C160.836 131.867 160.463 131.84 160.063 131.6C159.689 131.36 159.343 131.24 159.023 131.24C158.783 131.24 158.503 131.054 158.183 130.68C157.889 130.307 157.636 129.88 157.423 129.4C157.236 128.92 157.169 128.507 157.223 128.16C157.249 128.027 157.223 127.907 157.143 127.8C157.089 127.694 157.063 127.574 157.063 127.44C157.063 126.907 157.076 126.28 157.103 125.56C157.129 124.84 157.196 124.12 157.303 123.4C157.436 122.68 157.609 122.094 157.823 121.64C157.609 121.507 157.436 121.334 157.303 121.12C157.196 120.907 157.076 120.694 156.943 120.48C156.996 120.347 157.049 120.214 157.103 120.08C157.156 119.947 157.196 119.827 157.223 119.72C157.409 119.694 157.583 119.667 157.743 119.64C157.929 119.614 158.116 119.574 158.303 119.52C158.756 118.134 159.316 116.72 159.983 115.28C160.676 113.84 161.503 112.494 162.463 111.24C163.423 109.96 164.529 108.92 165.783 108.12C166.103 107.907 166.489 107.68 166.943 107.44C167.423 107.174 167.863 107.08 168.263 107.16C168.343 107.134 168.423 107.134 168.503 107.16C168.609 107.187 168.689 107.174 168.743 107.12C168.796 107.147 168.849 107.174 168.903 107.2C168.956 107.2 169.009 107.227 169.063 107.28C169.196 107.467 169.503 107.734 169.983 108.08C170.489 108.4 170.916 108.84 171.263 109.4C171.529 109.827 171.529 110.334 171.263 110.92C171.023 111.507 170.823 112.027 170.663 112.48C170.529 112.854 170.329 113.2 170.063 113.52C169.823 113.814 169.623 114.147 169.463 114.52C169.409 114.68 169.316 114.814 169.183 114.92C169.049 115 168.956 115.134 168.903 115.32C168.663 115.427 168.489 115.587 168.383 115.8C168.303 116.014 168.169 116.187 167.983 116.32C167.796 116.48 167.623 116.627 167.463 116.76C167.329 116.894 167.183 117.054 167.023 117.24C166.756 117.56 166.436 117.84 166.063 118.08C165.716 118.294 165.396 118.56 165.103 118.88C164.676 119.094 164.249 119.374 163.823 119.72C163.423 120.067 162.996 120.307 162.543 120.44C162.276 120.52 161.996 120.627 161.703 120.76C161.409 120.867 161.129 120.987 160.863 121.12C160.623 121.227 160.423 121.507 160.263 121.96C160.129 122.387 160.009 122.894 159.903 123.48C159.796 124.067 159.716 124.627 159.663 125.16C159.609 125.694 159.569 126.08 159.543 126.32C159.516 126.64 159.543 127.134 159.623 127.8C159.703 128.44 159.809 128.907 159.943 129.2C159.996 129.307 160.116 129.414 160.303 129.52C160.489 129.627 160.636 129.627 160.743 129.52C160.823 129.44 160.956 129.28 161.143 129.04C161.356 128.8 161.556 128.56 161.743 128.32C161.956 128.054 162.089 127.867 162.143 127.76C162.303 127.44 162.463 127.08 162.623 126.68C162.783 126.28 162.916 125.907 163.023 125.56C163.183 124.974 163.223 124.467 163.143 124.04C163.089 123.614 162.983 123.227 162.823 122.88C162.663 122.534 162.516 122.214 162.383 121.92C162.249 121.627 162.196 121.334 162.223 121.04ZM178.458 131.92C178.378 131.814 178.298 131.734 178.218 131.68C178.138 131.6 178.044 131.52 177.938 131.44C177.858 131.334 177.724 131.2 177.538 131.04C177.511 130.72 177.551 130.28 177.658 129.72C177.791 129.16 177.938 128.6 178.098 128.04C178.258 127.48 178.391 127.067 178.498 126.8C178.498 126.8 178.564 126.574 178.698 126.12C178.858 125.667 179.044 125.12 179.258 124.48C179.471 123.814 179.684 123.16 179.898 122.52C180.138 121.854 180.324 121.307 180.458 120.88C180.618 120.427 180.698 120.2 180.698 120.2C180.751 120.094 180.778 119.987 180.778 119.88C180.778 119.747 180.778 119.587 180.778 119.4C180.698 118.92 180.738 118.56 180.898 118.32C181.084 118.08 181.231 117.827 181.338 117.56C181.631 117.587 181.831 117.587 181.938 117.56C182.071 117.534 182.218 117.56 182.378 117.64C182.564 117.667 182.924 117.64 183.458 117.56C183.991 117.48 184.524 117.374 185.058 117.24C185.618 117.107 185.991 117 186.178 116.92C186.551 116.92 186.911 116.907 187.258 116.88C187.631 116.854 187.991 116.867 188.338 116.92C188.791 116.92 189.191 117.08 189.538 117.4C189.884 117.72 190.124 117.974 190.258 118.16C190.204 118.267 190.138 118.374 190.058 118.48C190.004 118.56 189.951 118.64 189.898 118.72C189.844 118.8 189.778 118.88 189.698 118.96C189.538 118.96 189.204 118.96 188.698 118.96C188.191 118.96 187.644 118.987 187.058 119.04C186.498 119.094 186.031 119.187 185.658 119.32C185.311 119.427 184.938 119.494 184.538 119.52C184.164 119.52 183.818 119.587 183.498 119.72C183.364 119.854 183.231 120.12 183.098 120.52C182.964 120.92 182.844 121.334 182.738 121.76C182.631 122.187 182.538 122.507 182.458 122.72C182.458 122.694 182.378 122.88 182.218 123.28C182.084 123.68 181.924 124.134 181.738 124.64C181.578 125.147 181.444 125.56 181.338 125.88C181.231 126.04 181.098 126.347 180.938 126.8C180.778 127.254 180.631 127.707 180.498 128.16C180.364 128.614 180.271 128.947 180.218 129.16C180.111 129.64 179.978 130.12 179.818 130.6C179.658 131.054 179.458 131.507 179.218 131.96C179.111 131.96 178.991 131.96 178.858 131.96C178.724 131.934 178.591 131.92 178.458 131.92ZM193.669 130.48C193.109 130.587 192.749 130.627 192.589 130.6C192.455 130.547 192.242 130.387 191.949 130.12C191.522 129.907 191.162 129.64 190.869 129.32C190.602 129 190.402 128.667 190.269 128.32C190.162 127.947 190.122 127.64 190.149 127.4C190.229 126.467 190.455 125.467 190.829 124.4C191.202 123.334 191.655 122.307 192.189 121.32C192.722 120.334 193.295 119.494 193.909 118.8C194.549 118.08 195.162 117.614 195.749 117.4C196.282 117.187 196.789 117.107 197.269 117.16C197.749 117.214 198.095 117.467 198.309 117.92C198.709 118.694 198.615 119.187 198.029 119.4C197.949 119.4 197.855 119.44 197.749 119.52C197.642 119.574 197.589 119.654 197.589 119.76C197.695 119.814 197.989 119.827 198.469 119.8C198.949 119.747 199.429 119.667 199.909 119.56C200.415 119.427 200.749 119.294 200.909 119.16C201.069 119.08 201.189 119.04 201.269 119.04C201.349 119.04 201.549 119.067 201.869 119.12C202.322 119.254 202.549 119.414 202.549 119.6C202.549 119.707 202.589 119.814 202.669 119.92C202.749 120 202.842 120.04 202.949 120.04C203.135 120.067 203.109 120.187 202.869 120.4C202.655 120.614 202.282 120.907 201.749 121.28C201.242 121.6 200.922 121.814 200.789 121.92C200.682 122 200.669 122.187 200.749 122.48C200.962 122.987 200.975 123.574 200.789 124.24C200.602 124.907 200.269 125.587 199.789 126.28C199.309 126.974 198.722 127.627 198.029 128.24C197.362 128.827 196.642 129.334 195.869 129.76C195.122 130.16 194.389 130.4 193.669 130.48ZM192.989 128.72C193.095 128.72 193.282 128.667 193.549 128.56C193.815 128.427 194.029 128.32 194.189 128.24C194.295 128.134 194.429 128.014 194.589 127.88C194.775 127.72 194.922 127.627 195.029 127.6C195.135 127.6 195.269 127.56 195.429 127.48C195.589 127.374 195.815 127.174 196.109 126.88C196.402 126.56 196.789 126.094 197.269 125.48C197.802 124.894 198.215 124.36 198.509 123.88C198.802 123.374 198.882 122.907 198.749 122.48C198.722 122.374 198.642 122.307 198.509 122.28C198.402 122.254 198.255 122.187 198.069 122.08C197.802 122.08 197.549 122.014 197.309 121.88C197.095 121.72 196.842 121.52 196.549 121.28L195.909 120.48L195.229 121.16C194.802 121.587 194.349 122.227 193.869 123.08C193.415 123.907 193.029 124.76 192.709 125.64C192.389 126.494 192.202 127.174 192.149 127.68C192.122 128.08 192.189 128.347 192.349 128.48C192.509 128.614 192.722 128.694 192.989 128.72ZM207.77 131.08C207.184 131.08 206.744 131.054 206.45 131C206.157 130.947 205.93 130.867 205.77 130.76C205.61 130.654 205.424 130.507 205.21 130.32C205.104 130.107 204.97 129.88 204.81 129.64C204.65 129.4 204.517 129.227 204.41 129.12C204.304 128.72 204.25 128.2 204.25 127.56C204.277 126.92 204.357 126.227 204.49 125.48C204.65 124.734 204.864 124.04 205.13 123.4C205.237 123.187 205.33 122.974 205.41 122.76C205.49 122.547 205.53 122.44 205.53 122.44C205.53 122.307 205.69 121.987 206.01 121.48C206.357 120.974 206.73 120.44 207.13 119.88C207.557 119.32 207.904 118.92 208.17 118.68C208.357 118.467 208.637 118.24 209.01 118C209.41 117.76 209.757 117.587 210.05 117.48C210.344 117.374 210.637 117.28 210.93 117.2C211.25 117.12 211.61 117.08 212.01 117.08C212.384 117.08 212.73 117.16 213.05 117.32C213.37 117.48 213.677 117.76 213.97 118.16C214.45 118.64 214.717 119.12 214.77 119.6C214.85 120.054 214.837 120.52 214.73 121C214.597 121.534 214.424 121.947 214.21 122.24C213.997 122.507 213.757 122.627 213.49 122.6C213.224 122.574 212.917 122.374 212.57 122C212.464 121.787 212.41 121.614 212.41 121.48C212.41 121.32 212.464 121.094 212.57 120.8C212.677 120.427 212.677 120.04 212.57 119.64C212.464 119.24 212.29 119.04 212.05 119.04C211.704 119.04 211.317 119.2 210.89 119.52C210.49 119.814 210.077 120.187 209.65 120.64C209.464 120.854 209.197 121.187 208.85 121.64C208.53 122.067 208.21 122.547 207.89 123.08C207.57 123.587 207.304 124.08 207.09 124.56C206.797 125.44 206.557 126.147 206.37 126.68C206.21 127.214 206.13 127.48 206.13 127.48C206.13 127.587 206.157 127.694 206.21 127.8C206.29 127.88 206.33 127.974 206.33 128.08C206.33 128.4 206.517 128.654 206.89 128.84C207.184 129.027 207.53 129.134 207.93 129.16C208.33 129.16 208.824 129.027 209.41 128.76C209.837 128.547 210.237 128.267 210.61 127.92C211.01 127.574 211.424 127.267 211.85 127C212.144 126.814 212.37 126.654 212.53 126.52C212.717 126.387 212.81 126.374 212.81 126.48C212.81 126.587 212.85 126.64 212.93 126.64C213.01 126.64 213.104 126.587 213.21 126.48C213.37 126.267 213.544 126.134 213.73 126.08C213.917 126 214.077 125.974 214.21 126C214.37 126 214.45 126.04 214.45 126.12C214.397 126.36 214.45 126.56 214.61 126.72C214.61 126.827 214.57 126.974 214.49 127.16C214.437 127.32 214.357 127.454 214.25 127.56C214.117 127.747 213.917 127.96 213.65 128.2C213.41 128.44 213.184 128.654 212.97 128.84C212.757 129 212.65 129.08 212.65 129.08C212.544 129.054 212.437 129.08 212.33 129.16C212.25 129.24 212.157 129.334 212.05 129.44C211.837 129.627 211.637 129.774 211.45 129.88C211.264 129.96 211.117 130 211.01 130C210.824 130.107 210.677 130.174 210.57 130.2C210.49 130.227 210.45 130.294 210.45 130.4C210.184 130.667 209.85 130.854 209.45 130.96C209.077 131.04 208.517 131.08 207.77 131.08ZM219.474 130.04C219.18 129.854 218.914 129.614 218.674 129.32C218.434 129 218.314 128.6 218.314 128.12C218.314 127.854 218.367 127.4 218.474 126.76C218.58 126.12 218.727 125.4 218.914 124.6C219.1 123.8 219.287 123.054 219.474 122.36C219.74 121.88 219.967 121.4 220.154 120.92C220.34 120.44 220.434 120.147 220.434 120.04C220.487 119.72 220.554 119.347 220.634 118.92C220.74 118.494 220.847 118.107 220.954 117.76C221.06 117.414 221.14 117.214 221.194 117.16C221.327 117.027 221.487 116.947 221.674 116.92C221.86 116.867 222.047 116.894 222.234 117C222.447 117.08 222.607 117.254 222.714 117.52C223.007 117.84 223.154 118.227 223.154 118.68C223.154 119.107 223.007 119.747 222.714 120.6C222.474 121.134 222.234 121.76 221.994 122.48C221.754 123.2 221.54 123.867 221.354 124.48C221.194 125.067 221.1 125.467 221.074 125.68L220.274 125.92C220.727 125.494 221.154 125.054 221.554 124.6C221.954 124.12 222.247 123.747 222.434 123.48C222.887 122.867 223.274 122.36 223.594 121.96C223.94 121.534 224.38 121.027 224.914 120.44C225.447 119.827 225.967 119.454 226.474 119.32C227.007 119.16 227.42 119.08 227.714 119.08C228.3 119.187 228.767 119.494 229.114 120C229.487 120.48 229.727 121.2 229.834 122.16C229.834 122.534 229.794 122.974 229.714 123.48C229.66 123.987 229.634 124.24 229.634 124.24C229.634 124.24 229.847 123.96 230.274 123.4C230.727 122.84 231.327 122.227 232.074 121.56C232.58 121.187 233.074 120.974 233.554 120.92C234.034 120.84 234.46 121 234.834 121.4C235.527 121.774 235.98 122.347 236.194 123.12C236.407 123.867 236.46 124.827 236.354 126C236.274 126.694 236.26 127.214 236.314 127.56C236.367 127.88 236.447 128.2 236.554 128.52C236.767 128.627 236.807 128.854 236.674 129.2C236.54 129.52 236.38 129.68 236.194 129.68C235.927 129.68 235.62 129.627 235.274 129.52C234.954 129.414 234.66 129.24 234.394 129C234.154 128.734 234.034 128.374 234.034 127.92V125.44C234.034 124.854 234.007 124.374 233.954 124C233.927 123.627 233.86 123.4 233.754 123.32C233.46 123.16 233.034 123.334 232.474 123.84C231.914 124.347 231.314 125.027 230.674 125.88C230.034 126.734 229.434 127.614 228.874 128.52C228.367 129.347 228.047 129.827 227.914 129.96C227.807 130.067 227.607 130.027 227.314 129.84C226.727 129.654 226.354 129.4 226.194 129.08C226.06 128.734 226.047 128.347 226.154 127.92C226.287 127.467 226.447 126.854 226.634 126.08C226.847 125.307 227.047 124.56 227.234 123.84C227.42 123.094 227.54 122.56 227.594 122.24C227.487 122.027 227.3 121.96 227.034 122.04C226.794 122.094 226.54 122.214 226.274 122.4C225.954 122.614 225.567 123.014 225.114 123.6C224.66 124.187 224.194 124.867 223.714 125.64C223.394 126.147 223.06 126.654 222.714 127.16C222.367 127.64 222.047 128.067 221.754 128.44C221.46 128.814 221.207 129.094 220.994 129.28C220.62 129.867 220.367 130.187 220.234 130.24C220.1 130.294 219.847 130.227 219.474 130.04ZM250.137 132.04C249.87 132.174 249.563 132.094 249.217 131.8C248.87 131.507 248.63 131.267 248.497 131.08C248.257 130.76 248.083 130.32 247.977 129.76C247.87 129.2 247.817 128.734 247.817 128.36C247.817 127.667 247.763 127.267 247.657 127.16C247.577 127.054 247.403 127.147 247.137 127.44C246.897 127.707 246.537 128.08 246.057 128.56C245.843 128.774 245.497 129.054 245.017 129.4C244.537 129.747 244.043 130.04 243.537 130.28C243.03 130.52 242.603 130.64 242.257 130.64C242.017 130.614 241.777 130.48 241.537 130.24C241.297 130 241.083 129.734 240.897 129.44C240.737 129.12 240.617 128.854 240.537 128.64C240.403 128.24 240.39 127.587 240.497 126.68C240.63 125.747 240.843 124.72 241.137 123.6C241.457 122.454 241.817 121.36 242.217 120.32C242.643 119.254 243.07 118.387 243.497 117.72C243.95 117.027 244.39 116.68 244.817 116.68C245.11 116.68 245.337 116.854 245.497 117.2C245.683 117.52 245.83 117.787 245.937 118C246.07 118.267 246.11 118.44 246.057 118.52C246.03 118.6 245.923 118.747 245.737 118.96C245.523 119.227 245.27 119.68 244.977 120.32C244.683 120.934 244.377 121.614 244.057 122.36C243.763 123.08 243.497 123.774 243.257 124.44C243.017 125.107 242.843 125.614 242.737 125.96C242.683 126.174 242.603 126.467 242.497 126.84C242.417 127.214 242.39 127.507 242.417 127.72C242.417 127.747 242.43 127.814 242.457 127.92C242.483 128 242.59 128.04 242.777 128.04C243.363 128.04 243.95 127.8 244.537 127.32C245.15 126.814 245.75 126.16 246.337 125.36C246.95 124.56 247.523 123.72 248.057 122.84C248.59 121.96 249.083 121.12 249.537 120.32C250.017 119.52 250.43 118.867 250.777 118.36C251.123 117.827 251.403 117.547 251.617 117.52C251.803 117.494 252.017 117.52 252.257 117.6C252.523 117.654 252.75 117.747 252.937 117.88C253.123 118.014 253.203 118.2 253.177 118.44C252.857 119.427 252.47 120.414 252.017 121.4C251.563 122.36 251.137 123.334 250.737 124.32C250.363 125.307 250.097 126.32 249.937 127.36C249.83 128 249.87 128.627 250.057 129.24C250.27 129.854 250.603 130.4 251.057 130.88C251.323 131.147 251.297 131.4 250.977 131.64C250.657 131.88 250.377 132.014 250.137 132.04ZM258.075 125.2C257.329 125.334 256.835 124.974 256.595 124.12C256.355 123.267 256.422 122.094 256.795 120.6C256.955 120.28 257.089 119.974 257.195 119.68C257.302 119.36 257.355 119.107 257.355 118.92C257.462 118.574 257.595 118.174 257.755 117.72C257.942 117.24 258.129 116.8 258.315 116.4C258.502 115.974 258.635 115.694 258.715 115.56C258.822 115.56 258.929 115.467 259.035 115.28C259.169 115.094 259.235 114.907 259.235 114.72C259.235 114.507 259.275 114.267 259.355 114C259.462 113.734 259.569 113.547 259.675 113.44C259.675 113.307 259.729 113.16 259.835 113C259.942 112.84 259.995 112.707 259.995 112.6C259.995 112.494 260.022 112.4 260.075 112.32C260.155 112.24 260.195 112.147 260.195 112.04C260.435 111.614 260.742 110.987 261.115 110.16C261.515 109.307 261.902 108.414 262.275 107.48C262.675 106.547 263.009 105.72 263.275 105C263.542 104.28 263.675 103.84 263.675 103.68C263.729 103.467 263.809 103.307 263.915 103.2C264.022 103.094 264.182 103.067 264.395 103.12C264.502 103.04 264.609 103 264.715 103C264.822 102.974 264.929 102.96 265.035 102.96C265.035 102.96 265.075 103.014 265.155 103.12C265.262 103.227 265.409 103.387 265.595 103.6C265.809 103.787 265.929 104 265.955 104.24C265.982 104.48 265.995 104.76 265.995 105.08C265.969 105.587 265.782 106.16 265.435 106.8C265.089 107.44 264.702 108.147 264.275 108.92C264.009 109.427 263.742 109.907 263.475 110.36C263.235 110.814 263.115 111.094 263.115 111.2C263.115 111.307 263.062 111.467 262.955 111.68C262.849 111.894 262.729 112.16 262.595 112.48C262.435 112.747 262.262 113.067 262.075 113.44C261.889 113.814 261.715 114.16 261.555 114.48C261.422 114.774 261.355 114.96 261.355 115.04C261.329 115.147 261.289 115.254 261.235 115.36C261.209 115.467 261.142 115.574 261.035 115.68C260.929 115.68 260.862 115.76 260.835 115.92C260.835 116.054 260.835 116.12 260.835 116.12C260.835 116.227 260.769 116.48 260.635 116.88C260.529 117.254 260.342 117.707 260.075 118.24C259.569 119.654 259.209 120.787 258.995 121.64C258.782 122.467 258.649 123.174 258.595 123.76C258.542 124.4 258.489 124.774 258.435 124.88C258.409 124.987 258.289 125.094 258.075 125.2ZM255.915 131.6C255.409 131.787 254.982 131.88 254.635 131.88C254.315 131.854 253.955 131.694 253.555 131.4C253.049 130.92 252.875 130.44 253.035 129.96C253.222 129.454 253.662 128.96 254.355 128.48C254.835 128.187 255.182 128.027 255.395 128C255.635 127.974 255.995 128.067 256.475 128.28C257.275 128.787 257.622 129.347 257.515 129.96C257.435 130.574 256.902 131.12 255.915 131.6Z" fill="#7CB7DF"/>
<path d="M288.015 129.927C289.949 129.809 291.426 129.097 292.617 128.643C294.705 127.849 295.655 126.885 298.038 125.631C299.64 124.789 302.333 122.821 304.143 121.468C306.836 119.456 308.1 118.116 309.179 117.186C310.36 116.168 311.808 114.103 313.911 112.102C314.801 111.256 315.174 110.597 316.432 109.06C317.69 107.522 319.782 105.087 321.018 103.554C322.652 101.527 323.816 99.7931 325.319 97.8827C326.914 95.8551 328.25 93.6258 329.396 91.7381C329.978 90.7805 331.176 88.1268 332.205 84.4169C333.042 81.3963 333.092 79.328 333.145 76.7597C333.204 73.8997 333.465 71.3621 333.455 70.0504C333.442 68.3629 333.092 66.9575 332.871 65.4361C332.659 63.9797 331.964 62.1607 331.636 60.8426C331.225 59.1923 330.606 57.2266 330.202 56.2115C329.782 55.1551 329.654 53.8381 329.131 52.588C328.728 51.6249 328.333 50.6222 327.739 49.4227C326.511 46.9415 323.546 43.0649 322.972 42.4733C322.419 41.9033 321.505 41.17 320.861 40.5202C320.258 39.9124 319.705 39.3172 318.998 38.6788C318.037 37.8115 316.304 36.9467 315.011 36.1102C313.296 35.0008 311.582 33.4441 310.314 32.798C308.987 32.1218 307.701 30.7701 306.627 29.9552C305.672 29.2298 303.975 28.3337 303.08 27.8872C302.031 27.3643 300.747 26.5391 299.446 25.9497C298.218 25.3933 296.657 24.906 295.498 24.5329C294.208 24.1175 293.029 23.8628 291.952 23.5069C290.672 23.0841 289.484 23.2528 288.487 23.1212C287.492 22.9899 286.37 22.7696 284.648 22.5376C283.567 22.392 282.634 22.7044 281.782 22.5825C280.717 22.4299 279.842 22.7013 278.92 22.8342C277.943 22.975 276.718 23.1303 275.682 23.2009C274.283 23.2964 272.887 23.9661 270.333 24.5677C268.875 24.9111 267.168 25.3022 265.504 25.7916C264.31 26.1425 263.058 26.2507 261.809 26.7762C260.324 27.4008 259.468 27.7553 258.761 28.0564C258.598 28.1258 258.457 28.225 258.455 28.2264C258.022 28.517 259.779 27.8212 260.632 27.8403C261.648 27.863 262.989 28.6529 263.785 28.9557C264.423 29.1985 265.235 29.3013 265.697 29.6196C266.441 30.1317 263.706 29.7098 262.662 29.8175C261.688 29.918 260.755 29.8852 259.983 29.8776C259.179 29.8696 258.222 29.6379 257.36 29.554C257.191 29.5375 257.111 29.341 257.117 29.1961C257.146 28.5251 257.779 27.8502 258.146 27.1494C258.513 26.4493 258.898 25.7779 259.297 24.8148C259.648 23.9683 260.305 23.5122 260.753 22.9328C260.866 22.7874 260.977 22.6442 260.986 22.7054C261.148 23.723 259.988 24.6919 259.67 25.3598C259.334 26.1066 259.094 26.6844 258.935 27.0686C258.854 27.2621 258.775 27.4527 258.502 27.9864" stroke="#7CB7DF" stroke-width="2" stroke-linecap="round"/>
</svg>
