<svg width="279" height="50" viewBox="0 0 279 50" fill="none" xmlns="http://www.w3.org/2000/svg">
<path d="M219 25.0676C223.175 22.2033 227.351 19.339 230.199 17.7179C233.047 16.0967 234.441 15.8056 236.472 15.6291C238.504 15.4526 241.13 15.3996 242.975 15.5037C244.821 15.6079 245.807 15.8708 247.548 16.6969C249.289 17.5229 251.756 18.9042 253.81 20.7439C255.865 22.5836 257.432 24.8399 258.343 26.4746C259.255 28.1093 259.463 29.0539 259.451 30.5936C259.423 34.1465 258.792 36.9386 258.506 37.9408C258.012 39.6689 257.48 40.9431 257.109 41.8038C256.92 42.2425 256.331 43.31 255.465 44.3595C253.994 46.1413 253.585 41.0433 253.413 40.2015C253.121 38.7652 254.829 42.7341 255.101 43.3153C255.272 43.68 254.92 44.2502 254.92 44.6607C254.921 45.2784 255.708 45.1182 256.141 44.9836C257.074 44.5245 257.816 43.903 258.664 43.344C258.852 43.1879 258.974 42.9946 259.225 42.8743" stroke="#7CB7DF" stroke-width="1.3" stroke-linecap="round"/>
<path d="M12.96 31.928C12.64 31.8213 12.384 31.6187 12.192 31.32C12.0213 31.0213 11.9893 30.7973 12.096 30.648C12.224 30.3707 12.3307 30.0827 12.416 29.784C12.5013 29.464 12.6187 29.1653 12.768 28.888C12.9173 28.632 13.024 28.3653 13.088 28.088C13.1733 27.7893 13.2587 27.5013 13.344 27.224C13.5147 26.7333 13.6853 26.2533 13.856 25.784C14.0267 25.2933 14.2187 24.8133 14.432 24.344C14.6027 24.024 14.7413 23.6827 14.848 23.32C14.976 22.936 15.1253 22.5307 15.296 22.104C14.9333 22.3173 14.6027 22.5307 14.304 22.744C14.0267 22.9573 13.7707 23.192 13.536 23.448C13.0453 23.9387 12.6187 24.3333 12.256 24.632C11.9147 24.9093 11.552 25.1973 11.168 25.496C10.8053 25.7733 10.3467 26.1573 9.792 26.648C9.77067 26.6693 9.61067 26.7867 9.312 27C9.01333 27.2133 8.65067 27.4587 8.224 27.736C7.79733 27.992 7.40267 28.2373 7.04 28.472C6.67733 28.7067 6.42133 28.8667 6.272 28.952C5.86667 29.1867 5.536 29.4 5.28 29.592C5.04533 29.784 4.78933 29.976 4.512 30.168C4.23467 30.36 3.84 30.584 3.328 30.84C3.05067 31.0107 2.83733 31.096 2.688 31.096C2.53867 31.096 2.38933 31.0533 2.24 30.968C2.09067 30.8827 1.87733 30.7973 1.6 30.712C1.57867 30.5627 1.504 30.392 1.376 30.2C1.248 30.008 1.30133 29.8267 1.536 29.656C1.6 29.5707 1.792 29.4213 2.112 29.208C2.432 28.9947 2.79467 28.76 3.2 28.504C3.62667 28.2267 4.02133 27.9707 4.384 27.736C4.74667 27.5013 5.00267 27.32 5.152 27.192C5.30133 27.0853 5.54667 26.936 5.888 26.744C6.22933 26.5307 6.592 26.3067 6.976 26.072C7.36 25.8373 7.712 25.624 8.032 25.432C8.37333 25.2187 8.59733 25.0587 8.704 24.952C8.74667 24.9093 8.81067 24.856 8.896 24.792C9.00267 24.7067 9.19467 24.5573 9.472 24.344C9.74933 24.1307 10.176 23.8107 10.752 23.384C11.328 22.9573 12.1067 22.3707 13.088 21.624C13.344 21.4533 13.568 21.2507 13.76 21.016C13.952 20.76 14.1013 20.472 14.208 20.152C14.144 20.024 14.0053 19.7893 13.792 19.448C13.6 19.1067 13.376 18.744 13.12 18.36C12.8853 17.976 12.672 17.6453 12.48 17.368C12.3093 17.0693 12.2133 16.92 12.192 16.92C12.1493 16.8773 12.032 16.7493 11.84 16.536C11.6693 16.3013 11.4667 16.056 11.232 15.8C11.0187 15.5227 10.8373 15.2987 10.688 15.128C10.5387 14.936 10.4853 14.8613 10.528 14.904C10.5067 14.8827 10.3787 14.7013 10.144 14.36C9.90933 14.0187 9.632 13.624 9.312 13.176C9.01333 12.728 8.74667 12.3333 8.512 11.992C8.27733 11.6293 8.14933 11.4267 8.128 11.384C7.95733 11.1493 7.78667 10.904 7.616 10.648C7.44533 10.392 7.33867 10.1147 7.296 9.816C7.40267 9.64533 7.552 9.54933 7.744 9.528C7.936 9.50667 8.07467 9.51733 8.16 9.56C8.39467 9.66667 8.64 9.76267 8.896 9.848C9.152 9.912 9.35467 10.0613 9.504 10.296C9.71733 10.5307 9.888 10.7013 10.016 10.808C10.144 10.9147 10.3147 11.1493 10.528 11.512L14.688 17.4C14.7733 17.4853 14.912 17.688 15.104 18.008C15.3173 18.3067 15.4987 18.584 15.648 18.84C15.8187 19.096 15.8827 19.2027 15.84 19.16C15.9253 19.3947 16.032 19.4373 16.16 19.288C16.3093 19.1387 16.4373 18.9893 16.544 18.84C16.5227 18.52 16.5653 18.2107 16.672 17.912C16.7787 17.592 16.8747 17.2613 16.96 16.92C17.1307 16.3867 17.3013 15.8533 17.472 15.32C17.664 14.7653 17.8133 14.2213 17.92 13.688C17.9627 13.5173 18.0053 13.3573 18.048 13.208C18.112 13.0587 18.1973 12.9093 18.304 12.76C18.4107 12.5893 18.4747 12.408 18.496 12.216C18.5173 12.024 18.5493 11.832 18.592 11.64C18.656 11.32 18.72 11 18.784 10.68C18.8693 10.3387 18.9973 10.0187 19.168 9.72C19.5947 9.61333 19.9147 9.70933 20.128 10.008C20.3627 10.3067 20.5867 10.5733 20.8 10.808C20.8213 10.9787 20.8213 11.1493 20.8 11.32C20.8 11.4907 20.7467 11.6613 20.64 11.832L20.192 13.336C20.192 13.3787 20.1387 13.5707 20.032 13.912C19.9467 14.232 19.84 14.5947 19.712 15C19.6053 15.4053 19.4987 15.736 19.392 15.992C19.2853 16.312 19.1893 16.6427 19.104 16.984C19.04 17.304 18.944 17.6133 18.816 17.912C18.7307 18.36 18.6133 18.808 18.464 19.256C18.336 19.6827 18.2187 20.1093 18.112 20.536C18.112 20.664 18.1653 20.6747 18.272 20.568C18.4 20.44 18.5387 20.28 18.688 20.088L19.968 18.872C19.9893 18.8507 20.1387 18.7013 20.416 18.424C20.7147 18.1253 21.088 17.7627 21.536 17.336C21.984 16.888 22.4533 16.4293 22.944 15.96C23.456 15.4693 23.9253 15.032 24.352 14.648C24.8 14.264 25.152 13.976 25.408 13.784C26.0267 13.1653 26.6453 12.6213 27.264 12.152C27.8827 11.6827 28.4267 11.3733 28.896 11.224C29.1093 11.416 29.3333 11.5973 29.568 11.768C29.824 11.9173 29.9947 12.1627 30.08 12.504C29.9733 12.7173 29.824 12.952 29.632 13.208C29.44 13.4427 29.248 13.624 29.056 13.752C28.5227 14.0293 27.9893 14.3813 27.456 14.808C26.944 15.2133 26.528 15.5333 26.208 15.768C25.9733 15.9173 25.664 16.152 25.28 16.472C24.9173 16.792 24.5333 17.1333 24.128 17.496C23.744 17.8587 23.392 18.2 23.072 18.52C22.752 18.8187 22.5387 19.0213 22.432 19.128C22.2613 19.32 21.952 19.5867 21.504 19.928C21.056 20.2693 20.5973 20.76 20.128 21.4C20.2987 21.6987 20.448 22.008 20.576 22.328C20.7253 22.648 20.9173 22.9253 21.152 23.16C21.1307 23.1387 21.216 23.2773 21.408 23.576C21.6 23.8747 21.8347 24.2373 22.112 24.664C22.4107 25.0907 22.688 25.496 22.944 25.88C23.2 26.264 23.3707 26.52 23.456 26.648C23.6053 27.0107 23.8187 27.3413 24.096 27.64C24.3733 27.9173 24.5973 28.2373 24.768 28.6C24.9387 28.7493 25.088 28.9093 25.216 29.08C25.3653 29.2293 25.5467 29.3573 25.76 29.464C25.9307 29.528 26.0693 29.6667 26.176 29.88C26.2827 30.0933 26.3893 30.328 26.496 30.584C26.368 30.9467 26.2293 31.16 26.08 31.224C25.952 31.3093 25.6213 31.3733 25.088 31.416C24.7253 31.3307 24.3413 31.1067 23.936 30.744C23.552 30.36 23.2427 29.9867 23.008 29.624C22.3467 28.6853 21.76 27.7787 21.248 26.904C20.736 26.0293 20.256 25.2613 19.808 24.6C19.7653 24.344 19.6693 24.12 19.52 23.928C19.3707 23.7147 19.2427 23.5013 19.136 23.288C19.1147 23.2027 19.0827 23.1387 19.04 23.096C18.9973 23.032 18.944 22.9787 18.88 22.936C18.8373 22.8933 18.7733 22.872 18.688 22.872C18.4533 22.8293 18.272 22.712 18.144 22.52C18.016 22.3067 17.856 22.0827 17.664 21.848C17.5147 22.4453 17.3227 23.0107 17.088 23.544C16.8533 24.056 16.6293 24.5893 16.416 25.144C16.3733 25.272 16.2987 25.3893 16.192 25.496C16.0853 25.6027 16.032 25.7413 16.032 25.912C16.032 25.976 15.968 26.2 15.84 26.584C15.712 26.9467 15.552 27.3947 15.36 27.928C15.168 28.44 14.976 28.9733 14.784 29.528C14.6133 30.0613 14.4747 30.52 14.368 30.904C14.2827 31.1387 14.2187 31.32 14.176 31.448C14.1333 31.5973 14.048 31.704 13.92 31.768C13.7707 31.8533 13.6107 31.9173 13.44 31.96C13.2907 32.0027 13.1307 31.992 12.96 31.928ZM32.7415 30.808C32.6775 30.8293 32.5282 30.7973 32.2935 30.712C32.0588 30.6053 31.8028 30.4773 31.5255 30.328C31.2695 30.1573 31.0668 29.9973 30.9175 29.848C30.7468 29.6347 30.5868 29.4213 30.4375 29.208C30.3095 28.9733 30.2455 28.7067 30.2455 28.408C30.0962 28.088 30.0108 27.7573 29.9895 27.416C29.9895 27.0533 29.9788 26.7013 29.9575 26.36C29.9362 25.8267 30.0535 25.2827 30.3095 24.728C30.5655 24.152 30.7682 23.7253 30.9175 23.448C31.0242 23.1493 31.2375 22.7653 31.5575 22.296C31.8988 21.8053 32.3148 21.3253 32.8055 20.856C33.2962 20.3867 33.8082 20.024 34.3415 19.768C34.6828 19.5973 35.0242 19.4587 35.3655 19.352C35.7282 19.224 36.1442 19.2453 36.6135 19.416C36.8482 19.48 37.0188 19.5653 37.1255 19.672C37.2322 19.7787 37.3495 19.8853 37.4775 19.992C37.6482 19.864 37.7868 19.5547 37.8935 19.064C38.0215 18.552 38.0962 17.976 38.1175 17.336C38.1602 16.6747 38.1282 16.0453 38.0215 15.448C37.9362 14.8293 37.7548 14.3387 37.4775 13.976C36.9655 13.272 36.4002 12.8133 35.7815 12.6C35.1628 12.3867 34.4588 12.4507 33.6695 12.792C33.4135 12.6853 33.1788 12.4827 32.9655 12.184C32.7735 11.8853 32.7202 11.5867 32.8055 11.288C32.9762 11.1387 33.1895 10.9893 33.4455 10.84C33.7015 10.6907 33.9575 10.5947 34.2135 10.552C34.5122 10.488 34.8108 10.4453 35.1095 10.424C35.4295 10.4027 35.7602 10.488 36.1015 10.68C37.2108 11.0427 38.0428 11.5547 38.5975 12.216C39.1735 12.856 39.5682 13.6347 39.7815 14.552C39.9948 15.4693 40.1228 16.5253 40.1655 17.72C40.2082 18.0613 40.2188 18.3707 40.1975 18.648C40.1975 18.904 40.1655 19.3413 40.1015 19.96C39.8882 20.2373 39.8028 20.568 39.8455 20.952C39.9095 21.3147 39.8668 21.656 39.7175 21.976C39.6962 22.3387 39.6108 22.6373 39.4615 22.872C39.3122 23.1067 39.2375 23.3307 39.2375 23.544C38.8535 24.6107 38.3308 25.656 37.6695 26.68C37.0295 27.704 36.2935 28.5893 35.4615 29.336C34.6295 30.0827 33.7228 30.5733 32.7415 30.808ZM32.5495 28.728C32.7628 28.8133 33.0828 28.728 33.5095 28.472C33.9362 28.1947 34.3735 27.832 34.8215 27.384C35.2695 26.9147 35.6428 26.4667 35.9415 26.04C36.0482 25.8907 36.1868 25.6453 36.3575 25.304C36.5495 24.9627 36.7202 24.632 36.8695 24.312C37.0402 23.992 37.1362 23.7893 37.1575 23.704C37.3495 23.1707 37.4562 22.6693 37.4775 22.2C37.5202 21.7093 37.4668 21.3893 37.3175 21.24C37.0828 20.9627 36.6988 20.8987 36.1655 21.048C35.6535 21.1973 35.1628 21.4427 34.6935 21.784C34.3522 22.04 34.0428 22.3813 33.7655 22.808C33.5095 23.2133 33.2428 23.5867 32.9655 23.928C32.9868 24.0773 32.9442 24.2053 32.8375 24.312C32.7522 24.4187 32.6562 24.5253 32.5495 24.632C32.2722 25.1653 32.0908 25.6667 32.0055 26.136C31.9202 26.584 31.8775 26.8613 31.8775 26.968C31.8775 27.3093 31.9308 27.6613 32.0375 28.024C32.1442 28.3867 32.3148 28.6213 32.5495 28.728ZM46.5508 29.88C46.1028 30.264 45.5801 30.488 44.9828 30.552C44.4068 30.616 43.8414 30.5307 43.2868 30.296C42.7321 30.04 42.2734 29.656 41.9108 29.144C41.5481 28.6747 41.3134 28.1413 41.2068 27.544C41.1001 26.9253 41.0894 26.1253 41.1748 25.144C41.2388 24.312 41.5054 23.48 41.9748 22.648C42.4441 21.7947 43.0094 21.0373 43.6708 20.376C44.3534 19.7147 45.0254 19.256 45.6868 19C46.0068 18.7867 46.2734 18.6907 46.4868 18.712C46.7214 18.712 47.0734 18.7333 47.5428 18.776C48.0334 18.84 48.3961 18.936 48.6308 19.064C48.8868 19.192 49.0894 19.3627 49.2388 19.576C49.5588 19.896 49.7721 20.216 49.8788 20.536C49.9854 20.8347 50.0388 21.1333 50.0388 21.432C49.9534 21.9013 49.6334 22.4773 49.0788 23.16C48.5454 23.8213 47.8414 24.3653 46.9668 24.792C46.4974 24.9413 45.9854 25.0053 45.4308 24.984C44.8761 24.9627 44.4174 24.824 44.0548 24.568C43.6494 24.3973 43.3828 24.4293 43.2548 24.664C43.1268 24.8773 43.0094 25.4107 42.9028 26.264C42.8174 27.0747 42.8814 27.672 43.0948 28.056C43.3081 28.4187 43.5961 28.632 43.9588 28.696C44.3854 28.7813 44.7161 28.8453 44.9508 28.888C45.2068 28.9093 45.5161 28.8133 45.8788 28.6C46.2201 28.3867 46.4334 28.2693 46.5188 28.248C46.6041 28.2053 46.6681 28.1627 46.7108 28.12C46.7748 28.056 46.9134 27.9173 47.1267 27.704C47.2761 27.5547 47.3934 27.448 47.4788 27.384C47.5641 27.2987 47.6601 27.256 47.7668 27.256C47.8734 27.256 47.9694 27.3093 48.0548 27.416C48.1401 27.5013 48.2254 27.5653 48.3108 27.608C48.5241 27.608 48.5668 27.736 48.4388 27.992C48.3321 28.248 48.1081 28.5573 47.7668 28.92C47.4254 29.2613 47.0201 29.5813 46.5508 29.88ZM46.5188 23.096C46.7534 22.9893 46.9988 22.84 47.2548 22.648C47.5108 22.4347 47.7241 22.2107 47.8948 21.976C48.0868 21.72 48.1828 21.5067 48.1828 21.336C48.1828 21.0373 48.0441 20.792 47.7668 20.6C47.4894 20.3867 47.0734 20.3547 46.5188 20.504C46.2841 20.568 46.0174 20.728 45.7188 20.984C45.4201 21.2187 45.1321 21.4853 44.8548 21.784C44.5988 22.0827 44.3854 22.3493 44.2148 22.584C44.0654 22.8187 44.0121 22.9573 44.0548 23C44.1188 23.1067 44.3001 23.192 44.5988 23.256C44.8974 23.2987 45.2281 23.3093 45.5908 23.288C45.9748 23.2667 46.2841 23.2027 46.5188 23.096ZM46.1028 16.6C45.9534 16.4507 45.8254 16.2693 45.7188 16.056C45.6334 15.8213 45.6014 15.6613 45.6228 15.576C45.6654 15.4693 45.7401 15.2667 45.8468 14.968C45.9748 14.648 46.1134 14.424 46.2628 14.296C46.3268 14.2533 46.3908 14.1893 46.4548 14.104C46.5401 13.9973 46.6254 13.9333 46.7108 13.912C46.9668 13.7413 47.2014 13.72 47.4148 13.848C47.6494 13.9547 47.8201 14.1787 47.9268 14.52C48.1188 14.8187 48.1828 15.0853 48.1188 15.32C48.0548 15.5333 47.8841 15.8213 47.6068 16.184C47.2868 16.6107 46.9988 16.8453 46.7428 16.888C46.4868 16.9307 46.2734 16.8347 46.1028 16.6ZM50.1988 16.6C50.0494 16.4507 49.9214 16.2693 49.8148 16.056C49.7294 15.8213 49.6974 15.6613 49.7188 15.576C49.7614 15.4693 49.8361 15.2667 49.9428 14.968C50.0708 14.648 50.2094 14.424 50.3588 14.296C50.4228 14.2533 50.4868 14.1893 50.5508 14.104C50.6361 13.9973 50.7214 13.9333 50.8068 13.912C51.0628 13.7413 51.2974 13.72 51.5108 13.848C51.7454 13.9547 51.9161 14.1787 52.0228 14.52C52.2148 14.8187 52.2788 15.0853 52.2148 15.32C52.1508 15.5333 51.9801 15.8213 51.7028 16.184C51.3828 16.6107 51.0948 16.8453 50.8388 16.888C50.5828 16.9307 50.3694 16.8347 50.1988 16.6ZM64.061 30.904C63.8477 30.7973 63.6877 30.6907 63.581 30.584C63.4743 30.456 63.293 30.3173 63.037 30.168C62.9517 29.8693 62.8557 29.5707 62.749 29.272C62.6637 28.952 62.6317 28.6427 62.653 28.344C62.6743 28.1733 62.6423 27.992 62.557 27.8C62.493 27.5867 62.5037 27.4053 62.589 27.256C62.5463 26.9147 62.557 26.4773 62.621 25.944C62.685 25.3893 62.7703 24.8667 62.877 24.376C62.9837 23.864 63.0583 23.5013 63.101 23.288C63.037 23.2027 62.973 23.1493 62.909 23.128C62.8663 23.1067 62.8023 23.1387 62.717 23.224C62.5037 23.4373 62.301 23.6507 62.109 23.864C61.917 24.0773 61.7143 24.3013 61.501 24.536C61.4157 24.6213 61.3197 24.7067 61.213 24.792C61.1063 24.856 61.053 24.9627 61.053 25.112L59.901 26.648C59.8157 26.8187 59.6557 27.0427 59.421 27.32C59.2077 27.576 59.037 27.8853 58.909 28.248C58.8663 28.3973 58.7917 28.5253 58.685 28.632C58.5783 28.7173 58.4717 28.8027 58.365 28.888C58.0877 28.7813 57.9063 28.7067 57.821 28.664C57.7357 28.6213 57.5757 28.4933 57.341 28.28C57.1277 28.0667 56.9783 27.8747 56.893 27.704C56.8077 27.512 56.7863 27.32 56.829 27.128C56.829 26.808 56.829 26.36 56.829 25.784C56.8503 25.1867 56.8503 24.6213 56.829 24.088C56.829 23.5333 56.7863 23.1493 56.701 22.936C56.4663 22.9573 56.3063 22.9893 56.221 23.032C56.1357 23.0747 56.029 23.2027 55.901 23.416C55.9223 23.3947 55.8263 23.544 55.613 23.864C55.421 24.1627 55.1543 24.5573 54.813 25.048C54.493 25.5173 54.173 25.9973 53.853 26.488C53.533 26.9573 53.2663 27.3627 53.053 27.704C52.861 28.024 52.7757 28.1733 52.797 28.152C52.6477 28.3227 52.5197 28.504 52.413 28.696C52.3277 28.888 52.2423 29.0907 52.157 29.304C52.0503 29.56 51.933 29.7307 51.805 29.816C51.677 29.88 51.5597 29.8587 51.453 29.752C51.2823 29.6453 51.101 29.5387 50.909 29.432C50.7383 29.3253 50.589 29.2293 50.461 29.144C50.3757 28.9947 50.301 28.8453 50.237 28.696C50.1943 28.5253 50.1623 28.3333 50.141 28.12C50.3117 28.0133 50.429 27.9493 50.493 27.928C50.557 27.8853 50.6103 27.8107 50.653 27.704C51.1223 27 51.5277 26.4027 51.869 25.912C52.2103 25.4 52.4983 24.984 52.733 24.664C52.9677 24.344 53.149 24.0987 53.277 23.928C53.405 23.736 53.4797 23.608 53.501 23.544C53.6077 23.3307 53.7357 23.128 53.885 22.936C54.0557 22.744 54.2157 22.5413 54.365 22.328C54.3863 22.264 54.493 22.1147 54.685 21.88C54.877 21.624 55.0797 21.368 55.293 21.112C55.5063 20.856 55.6557 20.7067 55.741 20.664C55.8477 20.6 55.9223 20.5147 55.965 20.408C56.029 20.28 56.093 20.152 56.157 20.024C56.1997 19.832 56.2957 19.6933 56.445 19.608C56.5943 19.5227 56.8183 19.5013 57.117 19.544C57.2877 19.6933 57.4797 19.8533 57.693 20.024C57.9063 20.1733 58.1303 20.3333 58.365 20.504C58.3437 20.7173 58.333 20.9413 58.333 21.176C58.3543 21.4107 58.4397 21.7733 58.589 22.264C58.525 22.52 58.5357 22.7867 58.621 23.064C58.7063 23.3413 58.7063 23.5973 58.621 23.832C58.621 24.1093 58.685 24.312 58.813 24.44C58.9623 24.5467 59.1863 24.44 59.485 24.12C59.8263 23.6933 60.2317 23.2347 60.701 22.744C61.1703 22.232 61.629 21.752 62.077 21.304C62.5463 20.8347 62.941 20.44 63.261 20.12C63.6023 19.7787 63.805 19.5653 63.869 19.48C63.9117 19.3733 63.9863 19.32 64.093 19.32C64.221 19.2987 64.3383 19.32 64.445 19.384C64.8077 19.576 65.053 19.7147 65.181 19.8C65.309 19.8853 65.4903 20.0453 65.725 20.28C65.9383 20.5787 65.9703 20.8453 65.821 21.08C65.7357 21.2933 65.6183 21.6453 65.469 22.136C65.341 22.6053 65.2023 23.128 65.053 23.704C64.925 24.28 64.8077 24.824 64.701 25.336C64.6157 25.8267 64.5623 26.2107 64.541 26.488C64.5197 26.9147 64.4983 27.3627 64.477 27.832C64.4557 28.28 64.4877 28.7493 64.573 29.24C64.7437 29.9013 64.7863 30.328 64.701 30.52C64.637 30.6907 64.4237 30.8187 64.061 30.904ZM79.1538 32.824C78.2364 32.2267 77.6178 31.704 77.2977 31.256C76.9777 30.8293 77.1058 30.4347 77.6818 30.072C77.8098 29.9867 78.0124 30.0613 78.2898 30.296C78.5884 30.5093 78.8338 30.712 79.0258 30.904C79.4524 31.288 79.9751 31.5227 80.5938 31.608C81.2338 31.7147 81.9484 31.6613 82.7378 31.448C83.6338 31.1707 84.4124 30.7867 85.0738 30.296C85.7564 29.784 86.3964 29.1653 86.9938 28.44C87.4418 27.864 87.7511 27.2453 87.9218 26.584C88.0924 25.9013 88.1564 25.272 88.1138 24.696C88.0924 24.12 87.9751 23.7147 87.7618 23.48C87.2284 22.7333 86.4818 22.2213 85.5218 21.944C84.5831 21.6453 83.4738 21.6667 82.1938 22.008C82.0444 22.0293 81.8204 22.072 81.5218 22.136C81.2231 22.2 80.9564 22.264 80.7218 22.328C80.4871 22.3707 80.3591 22.392 80.3378 22.392C80.1884 22.4347 80.0711 22.488 79.9858 22.552C79.9004 22.5947 79.7938 22.7547 79.6658 23.032C79.5591 23.288 79.3884 23.7573 79.1538 24.44C78.9191 25.1013 78.5671 26.0827 78.0978 27.384C77.6498 28.6853 77.2871 29.6133 77.0098 30.168C76.7538 30.7013 76.5191 30.9467 76.3058 30.904C76.1138 30.84 75.8684 30.6053 75.5698 30.2C75.3991 29.9013 75.2924 29.6133 75.2498 29.336C75.2071 29.0373 75.2924 28.696 75.5058 28.312C75.6124 28.12 75.6978 27.9493 75.7618 27.8C75.8258 27.6293 75.9111 27.3413 76.0178 26.936C76.1244 26.616 76.3271 26.0613 76.6258 25.272C76.9458 24.4613 77.3191 23.5227 77.7458 22.456C78.1724 21.368 78.6204 20.248 79.0898 19.096C79.5591 17.944 80.0071 16.856 80.4338 15.832C80.8818 14.808 81.2551 13.944 81.5538 13.24C81.8524 12.5787 82.0338 12.0987 82.0978 11.8C82.1618 11.5013 82.1404 11.3413 82.0338 11.32C82.0338 11.2133 82.0018 11.1173 81.9378 11.032C81.8738 10.9253 81.8524 10.8293 81.8738 10.744C81.8738 10.6587 82.0124 10.5413 82.2898 10.392C82.5884 10.2427 82.9084 10.104 83.2498 9.976C83.6124 9.848 83.8898 9.80533 84.0818 9.848C84.1884 9.848 84.3164 9.848 84.4658 9.848C84.6151 9.82667 84.6898 9.77333 84.6898 9.688C84.7538 9.688 84.9564 9.66667 85.2978 9.624C85.6391 9.58133 86.0124 9.58133 86.4178 9.624C87.8471 9.752 88.9564 10.168 89.7458 10.872C90.5351 11.5547 90.9191 12.4933 90.8978 13.688C90.8764 14.0507 90.6844 14.5413 90.3218 15.16C89.9804 15.7787 89.5538 16.3973 89.0417 17.016C88.5511 17.6347 88.0711 18.1573 87.6018 18.584C87.3244 18.8187 87.0258 19.064 86.7058 19.32C86.4071 19.5547 86.1404 19.7573 85.9058 19.928C85.6924 20.0773 85.5858 20.152 85.5858 20.152C85.5858 20.152 85.6711 20.184 85.8418 20.248C86.0124 20.312 86.1938 20.376 86.3858 20.44C87.3671 20.8027 88.1778 21.2613 88.8178 21.816C89.4578 22.3707 89.8951 23.1387 90.1298 24.12C90.2151 24.44 90.2151 24.8347 90.1298 25.304C90.0658 25.7733 89.9698 26.2427 89.8418 26.712C89.7138 27.16 89.5751 27.544 89.4258 27.864C89.2764 28.0133 89.1591 28.1733 89.0738 28.344C88.9884 28.4933 88.9458 28.568 88.9458 28.568C88.9458 28.6107 88.8604 28.7813 88.6898 29.08C88.5191 29.3573 88.3164 29.6667 88.0818 30.008C87.8471 30.3493 87.6231 30.648 87.4098 30.904C87.1964 31.0747 86.9404 31.2773 86.6418 31.512C86.3644 31.7467 86.0444 31.9707 85.6818 32.184C85.3404 32.3973 84.9671 32.5787 84.5618 32.728C83.9644 32.984 83.3138 33.1547 82.6098 33.24C81.9271 33.3467 81.2764 33.3573 80.6578 33.272C80.0391 33.208 79.5378 33.0587 79.1538 32.824ZM80.7218 20.504C80.7218 20.504 80.9138 20.472 81.2978 20.408C81.7031 20.3227 82.1404 20.2373 82.6098 20.152C83.0791 20.0453 83.4204 19.9493 83.6338 19.864C83.7404 19.8 83.8898 19.7147 84.0818 19.608C84.2951 19.5013 84.5084 19.3413 84.7218 19.128C85.0204 18.8507 85.3938 18.456 85.8418 17.944C86.3111 17.4107 86.7698 16.856 87.2178 16.28C87.6658 15.6827 88.0071 15.1493 88.2418 14.68C88.7324 13.912 88.9991 13.3467 89.0417 12.984C89.0844 12.6 88.9671 12.2693 88.6898 11.992C88.4978 11.7573 88.1671 11.608 87.6978 11.544C87.2498 11.4587 86.7698 11.4373 86.2578 11.48C85.7458 11.5013 85.3084 11.5653 84.9458 11.672C84.6684 11.7573 84.4551 11.864 84.3058 11.992C84.1564 12.0987 84.0818 12.2693 84.0818 12.504C84.0818 12.696 84.0178 12.888 83.8898 13.08C83.7831 13.2507 83.6764 13.3893 83.5698 13.496C83.5484 13.6453 83.4951 13.784 83.4098 13.912C83.3244 14.0187 83.2818 14.072 83.2818 14.072C83.2818 14.1573 83.1324 14.5093 82.8338 15.128C82.5351 15.7467 82.2364 16.4613 81.9378 17.272C81.5538 18.1893 81.2551 18.936 81.0417 19.512C80.8284 20.0667 80.7218 20.3973 80.7218 20.504ZM92.3928 29.848C92.3074 29.6773 92.2008 29.5493 92.0728 29.464C91.9448 29.3573 91.8808 29.2613 91.8808 29.176C91.8808 29.0907 91.8701 29.0053 91.8488 28.92C91.8488 28.8133 91.8061 28.7173 91.7208 28.632C91.6141 28.504 91.6248 28.216 91.7528 27.768C91.8808 27.2987 92.0941 26.7333 92.3928 26.072C92.6914 25.3893 93.0434 24.6747 93.4488 23.928C93.6194 23.7573 93.7901 23.5333 93.9608 23.256C94.1314 22.9787 94.2594 22.7973 94.3448 22.712C94.3448 22.6267 94.3768 22.552 94.4408 22.488C94.5048 22.4027 94.5794 22.36 94.6648 22.36V22.168C94.6648 22.0613 94.7608 21.88 94.9528 21.624C95.1661 21.368 95.4221 21.0907 95.7208 20.792C96.0194 20.472 96.3288 20.1733 96.6488 19.896C96.9688 19.5973 97.2354 19.384 97.4488 19.256C97.8968 18.9573 98.3554 18.776 98.8248 18.712C99.3154 18.648 99.7314 18.7547 100.073 19.032C100.137 19.096 100.243 19.2027 100.393 19.352C100.542 19.5013 100.713 19.672 100.905 19.864C101.118 20.0347 101.331 20.216 101.545 20.408L102.729 21.464L102.153 23.064C101.875 23.9173 101.801 24.664 101.929 25.304C102.078 25.944 102.291 26.4987 102.569 26.968C102.675 27.2027 102.889 27.4267 103.209 27.64C103.55 27.8533 103.87 27.9813 104.169 28.024C104.339 28.0453 104.499 28.1093 104.649 28.216C104.798 28.3227 104.873 28.4933 104.873 28.728C104.873 28.9413 104.83 29.112 104.745 29.24C104.659 29.368 104.51 29.4533 104.297 29.496C103.593 29.5813 102.931 29.4107 102.313 28.984C101.715 28.5573 101.161 27.8533 100.649 26.872C100.563 26.744 100.446 26.5093 100.297 26.168C100.169 25.8053 100.094 25.5707 100.073 25.464C99.9874 25.5707 99.8274 25.7733 99.5928 26.072C99.3581 26.3493 99.1768 26.552 99.0488 26.68C97.5341 28.216 96.2221 29.2507 95.1128 29.784C94.0248 30.296 93.1181 30.3173 92.3928 29.848ZM93.5448 28.056C93.5448 28.2053 93.7688 28.2053 94.2168 28.056C94.6861 27.8853 95.1874 27.5867 95.7208 27.16C96.4461 26.5413 97.1714 25.8587 97.8968 25.112C98.6434 24.3653 99.2408 23.672 99.6888 23.032L100.393 21.88C100.179 21.3893 99.9448 21.0587 99.6888 20.888C99.4541 20.696 99.2514 20.6 99.0808 20.6C98.8034 20.6 98.3874 20.856 97.8328 21.368C97.2994 21.88 96.7234 22.5627 96.1048 23.416C95.4861 24.2693 94.8994 25.208 94.3448 26.232C94.1314 26.6587 93.9394 27.0747 93.7688 27.48C93.6194 27.864 93.5448 28.056 93.5448 28.056ZM109.498 30.264C109.028 30.264 108.676 30.2427 108.442 30.2C108.207 30.1573 108.026 30.0933 107.898 30.008C107.77 29.9227 107.62 29.8053 107.45 29.656C107.364 29.4853 107.258 29.304 107.13 29.112C107.002 28.92 106.895 28.7813 106.81 28.696C106.724 28.376 106.682 27.96 106.682 27.448C106.703 26.936 106.767 26.3813 106.874 25.784C107.002 25.1867 107.172 24.632 107.386 24.12C107.471 23.9493 107.546 23.7787 107.61 23.608C107.674 23.4373 107.706 23.352 107.706 23.352C107.706 23.2453 107.834 22.9893 108.09 22.584C108.367 22.1787 108.666 21.752 108.986 21.304C109.327 20.856 109.604 20.536 109.818 20.344C109.967 20.1733 110.191 19.992 110.49 19.8C110.81 19.608 111.087 19.4693 111.322 19.384C111.556 19.2987 111.791 19.224 112.026 19.16C112.282 19.096 112.57 19.064 112.89 19.064C113.188 19.064 113.466 19.128 113.722 19.256C113.978 19.384 114.223 19.608 114.458 19.928C114.842 20.312 115.055 20.696 115.098 21.08C115.162 21.4427 115.151 21.816 115.066 22.2C114.959 22.6267 114.82 22.9573 114.65 23.192C114.479 23.4053 114.287 23.5013 114.074 23.48C113.86 23.4587 113.615 23.2987 113.338 23C113.252 22.8293 113.21 22.6907 113.21 22.584C113.21 22.456 113.252 22.2747 113.338 22.04C113.423 21.7413 113.423 21.432 113.338 21.112C113.252 20.792 113.114 20.632 112.922 20.632C112.644 20.632 112.335 20.76 111.994 21.016C111.674 21.2507 111.343 21.5493 111.002 21.912C110.852 22.0827 110.639 22.3493 110.362 22.712C110.106 23.0533 109.85 23.4373 109.594 23.864C109.338 24.2693 109.124 24.664 108.954 25.048C108.719 25.752 108.527 26.3173 108.378 26.744C108.25 27.1707 108.186 27.384 108.186 27.384C108.186 27.4693 108.207 27.5547 108.25 27.64C108.314 27.704 108.346 27.7787 108.346 27.864C108.346 28.12 108.495 28.3227 108.794 28.472C109.028 28.6213 109.306 28.7067 109.626 28.728C109.946 28.728 110.34 28.6213 110.81 28.408C111.151 28.2373 111.471 28.0133 111.77 27.736C112.09 27.4587 112.42 27.2133 112.762 27C112.996 26.8507 113.178 26.7227 113.306 26.616C113.455 26.5093 113.53 26.4987 113.53 26.584C113.53 26.6693 113.562 26.712 113.626 26.712C113.69 26.712 113.764 26.6693 113.85 26.584C113.978 26.4133 114.116 26.3067 114.266 26.264C114.415 26.2 114.543 26.1787 114.65 26.2C114.778 26.2 114.842 26.232 114.842 26.296C114.799 26.488 114.842 26.648 114.97 26.776C114.97 26.8613 114.938 26.9787 114.874 27.128C114.831 27.256 114.767 27.3627 114.682 27.448C114.575 27.5973 114.415 27.768 114.202 27.96C114.01 28.152 113.828 28.3227 113.658 28.472C113.487 28.6 113.402 28.664 113.402 28.664C113.316 28.6427 113.231 28.664 113.146 28.728C113.082 28.792 113.007 28.8667 112.922 28.952C112.751 29.1013 112.591 29.2187 112.442 29.304C112.292 29.368 112.175 29.4 112.09 29.4C111.94 29.4853 111.823 29.5387 111.738 29.56C111.674 29.5813 111.642 29.6347 111.642 29.72C111.428 29.9333 111.162 30.0827 110.842 30.168C110.543 30.232 110.095 30.264 109.498 30.264ZM128.946 20.248C129.288 20.1413 129.704 19.9173 130.194 19.576C130.685 19.2347 131.165 18.8613 131.634 18.456C132.104 18.0507 132.456 17.7093 132.69 17.432C132.904 17.1973 133.096 16.952 133.266 16.696C133.458 16.44 133.661 16.1947 133.874 15.96C134.216 15.5973 134.536 15.1173 134.834 14.52C135.133 13.9227 135.282 13.3787 135.282 12.888C135.282 12.76 135.218 12.6533 135.09 12.568C134.984 12.4827 134.877 12.4613 134.77 12.504C134.6 12.568 134.429 12.6533 134.258 12.76C134.088 12.8453 133.938 12.952 133.81 13.08C133.533 13.3573 133.224 13.6347 132.882 13.912C132.541 14.168 132.232 14.4453 131.954 14.744C131.933 14.7653 131.912 14.7973 131.89 14.84C131.89 14.8613 131.88 14.8933 131.858 14.936C131.666 15.2987 131.453 15.6507 131.218 15.992C131.005 16.3333 130.781 16.6853 130.546 17.048C130.226 17.56 129.949 18.0933 129.714 18.648C129.501 19.2027 129.245 19.736 128.946 20.248ZM129.778 22.232C129.842 22.232 129.906 22.232 129.97 22.232C130.056 22.2107 130.13 22.1893 130.194 22.168C130.408 22.1893 130.61 22.232 130.802 22.296C131.016 22.3387 131.229 22.3813 131.442 22.424C131.549 22.616 131.677 22.8293 131.826 23.064C131.997 23.2773 132.114 23.4907 132.178 23.704C132.221 23.8533 132.264 24.0133 132.306 24.184C132.349 24.3333 132.381 24.4933 132.402 24.664C132.36 24.7707 132.349 24.9947 132.37 25.336C132.413 25.6773 132.381 25.9867 132.274 26.264C132.146 26.6693 132.029 27.0853 131.922 27.512C131.816 27.9173 131.645 28.3013 131.41 28.664C131.261 28.8987 131.026 29.208 130.706 29.592C130.408 29.976 130.141 30.2427 129.906 30.392C129.757 30.4773 129.597 30.5413 129.426 30.584C129.277 30.6053 129.117 30.6587 128.946 30.744C128.669 30.8933 128.37 30.872 128.05 30.68C127.752 30.488 127.474 30.392 127.218 30.392C127.026 30.392 126.802 30.2427 126.546 29.944C126.312 29.6453 126.109 29.304 125.938 28.92C125.789 28.536 125.736 28.2053 125.778 27.928C125.8 27.8213 125.778 27.7253 125.714 27.64C125.672 27.5547 125.65 27.4587 125.65 27.352C125.65 26.9253 125.661 26.424 125.682 25.848C125.704 25.272 125.757 24.696 125.842 24.12C125.949 23.544 126.088 23.0747 126.258 22.712C126.088 22.6053 125.949 22.4667 125.842 22.296C125.757 22.1253 125.661 21.9547 125.554 21.784C125.597 21.6773 125.64 21.5707 125.682 21.464C125.725 21.3573 125.757 21.2613 125.778 21.176C125.928 21.1547 126.066 21.1333 126.194 21.112C126.344 21.0907 126.493 21.0587 126.642 21.016C127.005 19.9067 127.453 18.776 127.986 17.624C128.541 16.472 129.202 15.3947 129.97 14.392C130.738 13.368 131.624 12.536 132.626 11.896C132.882 11.7253 133.192 11.544 133.554 11.352C133.938 11.1387 134.29 11.064 134.61 11.128C134.674 11.1067 134.738 11.1067 134.802 11.128C134.888 11.1493 134.952 11.1387 134.994 11.096C135.037 11.1173 135.08 11.1387 135.122 11.16C135.165 11.16 135.208 11.1813 135.25 11.224C135.357 11.3733 135.602 11.5867 135.986 11.864C136.392 12.12 136.733 12.472 137.01 12.92C137.224 13.2613 137.224 13.6667 137.01 14.136C136.818 14.6053 136.658 15.0213 136.53 15.384C136.424 15.6827 136.264 15.96 136.05 16.216C135.858 16.4507 135.698 16.7173 135.57 17.016C135.528 17.144 135.453 17.2507 135.346 17.336C135.24 17.4 135.165 17.5067 135.122 17.656C134.93 17.7413 134.792 17.8693 134.706 18.04C134.642 18.2107 134.536 18.3493 134.386 18.456C134.237 18.584 134.098 18.7013 133.97 18.808C133.864 18.9147 133.746 19.0427 133.618 19.192C133.405 19.448 133.149 19.672 132.85 19.864C132.573 20.0347 132.317 20.248 132.082 20.504C131.741 20.6747 131.4 20.8987 131.058 21.176C130.738 21.4533 130.397 21.6453 130.034 21.752C129.821 21.816 129.597 21.9013 129.362 22.008C129.128 22.0933 128.904 22.1893 128.69 22.296C128.498 22.3813 128.338 22.6053 128.21 22.968C128.104 23.3093 128.008 23.7147 127.922 24.184C127.837 24.6533 127.773 25.1013 127.73 25.528C127.688 25.9547 127.656 26.264 127.634 26.456C127.613 26.712 127.634 27.1067 127.698 27.64C127.762 28.152 127.848 28.5253 127.954 28.76C127.997 28.8453 128.093 28.9307 128.242 29.016C128.392 29.1013 128.509 29.1013 128.594 29.016C128.658 28.952 128.765 28.824 128.914 28.632C129.085 28.44 129.245 28.248 129.394 28.056C129.565 27.8427 129.672 27.6933 129.714 27.608C129.842 27.352 129.97 27.064 130.098 26.744C130.226 26.424 130.333 26.1253 130.418 25.848C130.546 25.3787 130.578 24.9733 130.514 24.632C130.472 24.2907 130.386 23.9813 130.258 23.704C130.13 23.4267 130.013 23.1707 129.906 22.936C129.8 22.7013 129.757 22.4667 129.778 22.232ZM142.766 30.936C142.702 30.8507 142.638 30.7867 142.574 30.744C142.51 30.68 142.436 30.616 142.35 30.552C142.286 30.4667 142.18 30.36 142.03 30.232C142.009 29.976 142.041 29.624 142.126 29.176C142.233 28.728 142.35 28.28 142.478 27.832C142.606 27.384 142.713 27.0533 142.798 26.84C142.798 26.84 142.852 26.6587 142.958 26.296C143.086 25.9333 143.236 25.496 143.406 24.984C143.577 24.4507 143.748 23.928 143.918 23.416C144.11 22.8827 144.26 22.4453 144.366 22.104C144.494 21.7413 144.558 21.56 144.558 21.56C144.601 21.4747 144.622 21.3893 144.622 21.304C144.622 21.1973 144.622 21.0693 144.622 20.92C144.558 20.536 144.59 20.248 144.718 20.056C144.868 19.864 144.985 19.6613 145.07 19.448C145.305 19.4693 145.465 19.4693 145.55 19.448C145.657 19.4267 145.774 19.448 145.902 19.512C146.052 19.5333 146.34 19.512 146.766 19.448C147.193 19.384 147.62 19.2987 148.046 19.192C148.494 19.0853 148.793 19 148.942 18.936C149.241 18.936 149.529 18.9253 149.806 18.904C150.105 18.8827 150.393 18.8933 150.67 18.936C151.033 18.936 151.353 19.064 151.63 19.32C151.908 19.576 152.1 19.7787 152.206 19.928C152.164 20.0133 152.11 20.0987 152.046 20.184C152.004 20.248 151.961 20.312 151.918 20.376C151.876 20.44 151.822 20.504 151.758 20.568C151.63 20.568 151.364 20.568 150.958 20.568C150.553 20.568 150.116 20.5893 149.646 20.632C149.198 20.6747 148.825 20.7493 148.526 20.856C148.249 20.9413 147.95 20.9947 147.63 21.016C147.332 21.016 147.054 21.0693 146.798 21.176C146.692 21.2827 146.585 21.496 146.478 21.816C146.372 22.136 146.276 22.4667 146.19 22.808C146.105 23.1493 146.03 23.4053 145.966 23.576C145.966 23.5547 145.902 23.704 145.774 24.024C145.668 24.344 145.54 24.7067 145.39 25.112C145.262 25.5173 145.156 25.848 145.07 26.104C144.985 26.232 144.878 26.4773 144.75 26.84C144.622 27.2027 144.505 27.5653 144.398 27.928C144.292 28.2907 144.217 28.5573 144.174 28.728C144.089 29.112 143.982 29.496 143.854 29.88C143.726 30.2427 143.566 30.6053 143.374 30.968C143.289 30.968 143.193 30.968 143.086 30.968C142.98 30.9467 142.873 30.936 142.766 30.936ZM154.935 29.784C154.487 29.8693 154.199 29.9013 154.071 29.88C153.964 29.8373 153.794 29.7093 153.559 29.496C153.218 29.3253 152.93 29.112 152.695 28.856C152.482 28.6 152.322 28.3333 152.215 28.056C152.13 27.7573 152.098 27.512 152.119 27.32C152.183 26.5733 152.364 25.7733 152.663 24.92C152.962 24.0667 153.324 23.2453 153.751 22.456C154.178 21.6667 154.636 20.9947 155.127 20.44C155.639 19.864 156.13 19.4907 156.599 19.32C157.026 19.1493 157.431 19.0853 157.815 19.128C158.199 19.1707 158.476 19.3733 158.647 19.736C158.967 20.3547 158.892 20.7493 158.423 20.92C158.359 20.92 158.284 20.952 158.199 21.016C158.114 21.0587 158.071 21.1227 158.071 21.208C158.156 21.2507 158.391 21.2613 158.775 21.24C159.159 21.1973 159.543 21.1333 159.927 21.048C160.332 20.9413 160.599 20.8347 160.727 20.728C160.855 20.664 160.951 20.632 161.015 20.632C161.079 20.632 161.239 20.6533 161.495 20.696C161.858 20.8027 162.039 20.9307 162.039 21.08C162.039 21.1653 162.071 21.2507 162.135 21.336C162.199 21.4 162.274 21.432 162.359 21.432C162.508 21.4533 162.487 21.5493 162.295 21.72C162.124 21.8907 161.826 22.1253 161.399 22.424C160.994 22.68 160.738 22.8507 160.631 22.936C160.546 23 160.535 23.1493 160.599 23.384C160.77 23.7893 160.78 24.2587 160.631 24.792C160.482 25.3253 160.215 25.8693 159.831 26.424C159.447 26.9787 158.978 27.5013 158.423 27.992C157.89 28.4613 157.314 28.8667 156.695 29.208C156.098 29.528 155.511 29.72 154.935 29.784ZM154.391 28.376C154.476 28.376 154.626 28.3333 154.839 28.248C155.052 28.1413 155.223 28.056 155.351 27.992C155.436 27.9067 155.543 27.8107 155.671 27.704C155.82 27.576 155.938 27.5013 156.023 27.48C156.108 27.48 156.215 27.448 156.343 27.384C156.471 27.2987 156.652 27.1387 156.887 26.904C157.122 26.648 157.431 26.2747 157.815 25.784C158.242 25.3147 158.572 24.888 158.807 24.504C159.042 24.0987 159.106 23.7253 158.999 23.384C158.978 23.2987 158.914 23.2453 158.807 23.224C158.722 23.2027 158.604 23.1493 158.455 23.064C158.242 23.064 158.039 23.0107 157.847 22.904C157.676 22.776 157.474 22.616 157.239 22.424L156.727 21.784L156.183 22.328C155.842 22.6693 155.479 23.1813 155.095 23.864C154.732 24.5253 154.423 25.208 154.167 25.912C153.911 26.5947 153.762 27.1387 153.719 27.544C153.698 27.864 153.751 28.0773 153.879 28.184C154.007 28.2907 154.178 28.3547 154.391 28.376ZM166.216 30.264C165.747 30.264 165.395 30.2427 165.16 30.2C164.926 30.1573 164.744 30.0933 164.616 30.008C164.488 29.9227 164.339 29.8053 164.168 29.656C164.083 29.4853 163.976 29.304 163.848 29.112C163.72 28.92 163.614 28.7813 163.528 28.696C163.443 28.376 163.4 27.96 163.4 27.448C163.422 26.936 163.486 26.3813 163.592 25.784C163.72 25.1867 163.891 24.632 164.104 24.12C164.19 23.9493 164.264 23.7787 164.328 23.608C164.392 23.4373 164.424 23.352 164.424 23.352C164.424 23.2453 164.552 22.9893 164.808 22.584C165.086 22.1787 165.384 21.752 165.704 21.304C166.046 20.856 166.323 20.536 166.536 20.344C166.686 20.1733 166.91 19.992 167.208 19.8C167.528 19.608 167.806 19.4693 168.04 19.384C168.275 19.2987 168.51 19.224 168.744 19.16C169 19.096 169.288 19.064 169.608 19.064C169.907 19.064 170.184 19.128 170.44 19.256C170.696 19.384 170.942 19.608 171.176 19.928C171.56 20.312 171.774 20.696 171.816 21.08C171.88 21.4427 171.87 21.816 171.784 22.2C171.678 22.6267 171.539 22.9573 171.368 23.192C171.198 23.4053 171.006 23.5013 170.792 23.48C170.579 23.4587 170.334 23.2987 170.056 23C169.971 22.8293 169.928 22.6907 169.928 22.584C169.928 22.456 169.971 22.2747 170.056 22.04C170.142 21.7413 170.142 21.432 170.056 21.112C169.971 20.792 169.832 20.632 169.64 20.632C169.363 20.632 169.054 20.76 168.712 21.016C168.392 21.2507 168.062 21.5493 167.72 21.912C167.571 22.0827 167.358 22.3493 167.08 22.712C166.824 23.0533 166.568 23.4373 166.312 23.864C166.056 24.2693 165.843 24.664 165.672 25.048C165.438 25.752 165.246 26.3173 165.096 26.744C164.968 27.1707 164.904 27.384 164.904 27.384C164.904 27.4693 164.926 27.5547 164.968 27.64C165.032 27.704 165.064 27.7787 165.064 27.864C165.064 28.12 165.214 28.3227 165.512 28.472C165.747 28.6213 166.024 28.7067 166.344 28.728C166.664 28.728 167.059 28.6213 167.528 28.408C167.87 28.2373 168.19 28.0133 168.488 27.736C168.808 27.4587 169.139 27.2133 169.48 27C169.715 26.8507 169.896 26.7227 170.024 26.616C170.174 26.5093 170.248 26.4987 170.248 26.584C170.248 26.6693 170.28 26.712 170.344 26.712C170.408 26.712 170.483 26.6693 170.568 26.584C170.696 26.4133 170.835 26.3067 170.984 26.264C171.134 26.2 171.262 26.1787 171.368 26.2C171.496 26.2 171.56 26.232 171.56 26.296C171.518 26.488 171.56 26.648 171.688 26.776C171.688 26.8613 171.656 26.9787 171.592 27.128C171.55 27.256 171.486 27.3627 171.4 27.448C171.294 27.5973 171.134 27.768 170.92 27.96C170.728 28.152 170.547 28.3227 170.376 28.472C170.206 28.6 170.12 28.664 170.12 28.664C170.035 28.6427 169.95 28.664 169.864 28.728C169.8 28.792 169.726 28.8667 169.64 28.952C169.47 29.1013 169.31 29.2187 169.16 29.304C169.011 29.368 168.894 29.4 168.808 29.4C168.659 29.4853 168.542 29.5387 168.456 29.56C168.392 29.5813 168.36 29.6347 168.36 29.72C168.147 29.9333 167.88 30.0827 167.56 30.168C167.262 30.232 166.814 30.264 166.216 30.264ZM175.579 29.432C175.344 29.2827 175.131 29.0907 174.939 28.856C174.747 28.6 174.651 28.28 174.651 27.896C174.651 27.6827 174.694 27.32 174.779 26.808C174.864 26.296 174.982 25.72 175.131 25.08C175.28 24.44 175.43 23.8427 175.579 23.288C175.792 22.904 175.974 22.52 176.123 22.136C176.272 21.752 176.347 21.5173 176.347 21.432C176.39 21.176 176.443 20.8773 176.507 20.536C176.592 20.1947 176.678 19.8853 176.763 19.608C176.848 19.3307 176.912 19.1707 176.955 19.128C177.062 19.0213 177.19 18.9573 177.339 18.936C177.488 18.8933 177.638 18.9147 177.787 19C177.958 19.064 178.086 19.2027 178.171 19.416C178.406 19.672 178.523 19.9813 178.523 20.344C178.523 20.6853 178.406 21.1973 178.171 21.88C177.979 22.3067 177.787 22.808 177.595 23.384C177.403 23.96 177.232 24.4933 177.083 24.984C176.955 25.4533 176.88 25.7733 176.859 25.944L176.219 26.136C176.582 25.7947 176.923 25.4427 177.243 25.08C177.563 24.696 177.798 24.3973 177.947 24.184C178.31 23.6933 178.619 23.288 178.875 22.968C179.152 22.6267 179.504 22.2213 179.931 21.752C180.358 21.2613 180.774 20.9627 181.179 20.856C181.606 20.728 181.936 20.664 182.171 20.664C182.64 20.7493 183.014 20.9947 183.291 21.4C183.59 21.784 183.782 22.36 183.867 23.128C183.867 23.4267 183.835 23.7787 183.771 24.184C183.728 24.5893 183.707 24.792 183.707 24.792C183.707 24.792 183.878 24.568 184.219 24.12C184.582 23.672 185.062 23.1813 185.659 22.648C186.064 22.3493 186.459 22.1787 186.843 22.136C187.227 22.072 187.568 22.2 187.867 22.52C188.422 22.8187 188.784 23.2773 188.955 23.896C189.126 24.4933 189.168 25.2613 189.083 26.2C189.019 26.7547 189.008 27.1707 189.051 27.448C189.094 27.704 189.158 27.96 189.243 28.216C189.414 28.3013 189.446 28.4827 189.339 28.76C189.232 29.016 189.104 29.144 188.955 29.144C188.742 29.144 188.496 29.1013 188.219 29.016C187.963 28.9307 187.728 28.792 187.515 28.6C187.323 28.3867 187.227 28.0987 187.227 27.736V25.752C187.227 25.2827 187.206 24.8987 187.163 24.6C187.142 24.3013 187.088 24.12 187.003 24.056C186.768 23.928 186.427 24.0667 185.979 24.472C185.531 24.8773 185.051 25.4213 184.539 26.104C184.027 26.7867 183.547 27.4907 183.099 28.216C182.694 28.8773 182.438 29.2613 182.331 29.368C182.246 29.4533 182.086 29.4213 181.851 29.272C181.382 29.1227 181.083 28.92 180.955 28.664C180.848 28.3867 180.838 28.0773 180.923 27.736C181.03 27.3733 181.158 26.8827 181.307 26.264C181.478 25.6453 181.638 25.048 181.787 24.472C181.936 23.8747 182.032 23.448 182.075 23.192C181.99 23.0213 181.84 22.968 181.627 23.032C181.435 23.0747 181.232 23.1707 181.019 23.32C180.763 23.4907 180.454 23.8107 180.091 24.28C179.728 24.7493 179.355 25.2933 178.971 25.912C178.715 26.3173 178.448 26.7227 178.171 27.128C177.894 27.512 177.638 27.8533 177.403 28.152C177.168 28.4507 176.966 28.6747 176.795 28.824C176.496 29.2933 176.294 29.5493 176.187 29.592C176.08 29.6347 175.878 29.5813 175.579 29.432ZM200.109 31.032C199.896 31.1387 199.651 31.0747 199.373 30.84C199.096 30.6053 198.904 30.4133 198.797 30.264C198.605 30.008 198.467 29.656 198.381 29.208C198.296 28.76 198.253 28.3867 198.253 28.088C198.253 27.5333 198.211 27.2133 198.125 27.128C198.061 27.0427 197.923 27.1173 197.709 27.352C197.517 27.5653 197.229 27.864 196.845 28.248C196.675 28.4187 196.397 28.6427 196.013 28.92C195.629 29.1973 195.235 29.432 194.829 29.624C194.424 29.816 194.083 29.912 193.805 29.912C193.613 29.8907 193.421 29.784 193.229 29.592C193.037 29.4 192.867 29.1867 192.717 28.952C192.589 28.696 192.493 28.4827 192.429 28.312C192.323 27.992 192.312 27.4693 192.397 26.744C192.504 25.9973 192.675 25.176 192.909 24.28C193.165 23.3627 193.453 22.488 193.773 21.656C194.115 20.8027 194.456 20.1093 194.797 19.576C195.16 19.0213 195.512 18.744 195.853 18.744C196.088 18.744 196.269 18.8827 196.397 19.16C196.547 19.416 196.664 19.6293 196.749 19.8C196.856 20.0133 196.888 20.152 196.845 20.216C196.824 20.28 196.739 20.3973 196.589 20.568C196.419 20.7813 196.216 21.144 195.981 21.656C195.747 22.1467 195.501 22.6907 195.245 23.288C195.011 23.864 194.797 24.4187 194.605 24.952C194.413 25.4853 194.275 25.8907 194.189 26.168C194.147 26.3387 194.083 26.5733 193.997 26.872C193.933 27.1707 193.912 27.4053 193.933 27.576C193.933 27.5973 193.944 27.6507 193.965 27.736C193.987 27.8 194.072 27.832 194.221 27.832C194.691 27.832 195.16 27.64 195.629 27.256C196.12 26.8507 196.6 26.328 197.069 25.688C197.56 25.048 198.019 24.376 198.445 23.672C198.872 22.968 199.267 22.296 199.629 21.656C200.013 21.016 200.344 20.4933 200.621 20.088C200.899 19.6613 201.123 19.4373 201.293 19.416C201.443 19.3947 201.613 19.416 201.805 19.48C202.019 19.5227 202.2 19.5973 202.349 19.704C202.499 19.8107 202.563 19.96 202.541 20.152C202.285 20.9413 201.976 21.7307 201.613 22.52C201.251 23.288 200.909 24.0667 200.589 24.856C200.291 25.6453 200.077 26.456 199.949 27.288C199.864 27.8 199.896 28.3013 200.045 28.792C200.216 29.2827 200.483 29.72 200.845 30.104C201.059 30.3173 201.037 30.52 200.781 30.712C200.525 30.904 200.301 31.0107 200.109 31.032ZM206.46 25.56C205.863 25.6667 205.468 25.3787 205.276 24.696C205.084 24.0133 205.138 23.0747 205.436 21.88C205.564 21.624 205.671 21.3787 205.756 21.144C205.842 20.888 205.884 20.6853 205.884 20.536C205.97 20.2587 206.076 19.9387 206.204 19.576C206.354 19.192 206.503 18.84 206.652 18.52C206.802 18.1787 206.908 17.9547 206.972 17.848C207.058 17.848 207.143 17.7733 207.228 17.624C207.335 17.4747 207.388 17.3253 207.388 17.176C207.388 17.0053 207.42 16.8133 207.484 16.6C207.57 16.3867 207.655 16.2373 207.74 16.152C207.74 16.0453 207.783 15.928 207.868 15.8C207.954 15.672 207.996 15.5653 207.996 15.48C207.996 15.3947 208.018 15.32 208.06 15.256C208.124 15.192 208.156 15.1173 208.156 15.032C208.348 14.6907 208.594 14.1893 208.892 13.528C209.212 12.8453 209.522 12.1307 209.82 11.384C210.14 10.6373 210.407 9.976 210.62 9.4C210.834 8.824 210.94 8.472 210.94 8.344C210.983 8.17333 211.047 8.04533 211.132 7.96C211.218 7.87467 211.346 7.85333 211.516 7.896C211.602 7.832 211.687 7.8 211.772 7.8C211.858 7.77867 211.943 7.768 212.028 7.768C212.028 7.768 212.06 7.81067 212.124 7.896C212.21 7.98133 212.327 8.10933 212.476 8.28C212.647 8.42933 212.743 8.6 212.764 8.792C212.786 8.984 212.796 9.208 212.796 9.464C212.775 9.86933 212.626 10.328 212.348 10.84C212.071 11.352 211.762 11.9173 211.42 12.536C211.207 12.9413 210.994 13.3253 210.78 13.688C210.588 14.0507 210.492 14.2747 210.492 14.36C210.492 14.4453 210.45 14.5733 210.364 14.744C210.279 14.9147 210.183 15.128 210.076 15.384C209.948 15.5973 209.81 15.8533 209.66 16.152C209.511 16.4507 209.372 16.728 209.244 16.984C209.138 17.2187 209.084 17.368 209.084 17.432C209.063 17.5173 209.031 17.6027 208.988 17.688C208.967 17.7733 208.914 17.8587 208.828 17.944C208.743 17.944 208.69 18.008 208.668 18.136C208.668 18.2427 208.668 18.296 208.668 18.296C208.668 18.3813 208.615 18.584 208.508 18.904C208.423 19.2027 208.274 19.5653 208.06 19.992C207.655 21.1227 207.367 22.0293 207.196 22.712C207.026 23.3733 206.919 23.9387 206.876 24.408C206.834 24.92 206.791 25.2187 206.748 25.304C206.727 25.3893 206.631 25.4747 206.46 25.56ZM204.732 30.68C204.327 30.8293 203.986 30.904 203.708 30.904C203.452 30.8827 203.164 30.7547 202.844 30.52C202.439 30.136 202.3 29.752 202.428 29.368C202.578 28.9627 202.93 28.568 203.484 28.184C203.868 27.9493 204.146 27.8213 204.316 27.8C204.508 27.7787 204.796 27.8533 205.18 28.024C205.82 28.4293 206.098 28.8773 206.012 29.368C205.948 29.8587 205.522 30.296 204.732 30.68Z" fill="#7CB7DF"/>
</svg>
