<svg width="332" height="86" viewBox="0 0 332 86" fill="none" xmlns="http://www.w3.org/2000/svg">
<path d="M99.2148 51.491C93.0586 57.2297 86.9023 62.9684 82.4631 66.3545C78.0239 69.7406 75.4883 70.6002 71.6154 71.4593C67.7424 72.3183 62.6089 73.1507 58.8988 73.5111C55.1887 73.8716 53.0575 73.7349 49.0321 72.9191C45.0066 72.1033 39.1514 70.6125 33.7777 68.2761C28.4039 65.9397 23.6891 62.8028 20.7141 60.4664C17.7391 58.13 16.6468 56.6892 15.5593 54.2405C13.0499 48.59 12.2785 43.9756 12.119 42.3024C11.8439 39.4173 11.9716 37.2422 12.0816 35.7694C12.1377 35.0188 12.5271 33.1557 13.4755 31.242C15.0855 27.9933 19.5711 35.9731 20.5162 37.2612C22.1289 39.459 15.9001 33.6424 14.9453 32.7968C14.3461 32.2662 14.6266 31.2606 14.3299 30.6086C13.8836 29.6277 12.4489 30.1064 11.6923 30.4437C10.1876 31.4384 9.1735 32.6371 7.90692 33.7665C7.64961 34.0679 7.54805 34.4098 7.141 34.6724" stroke="#7CB7DF" stroke-width="2" stroke-linecap="round"/>
<path d="M107.749 33.92C106.922 33.8667 106.429 33.72 106.269 33.48C106.136 33.24 106.069 32.9867 106.069 32.72C106.202 32.32 106.349 31.9333 106.509 31.56C106.696 31.1867 106.829 30.7867 106.909 30.36C106.989 30.0133 107.069 29.6933 107.149 29.4C107.229 29.1067 107.322 28.7867 107.429 28.44C107.642 27.8 107.882 27.0133 108.149 26.08C108.442 25.1467 108.749 24.2133 109.069 23.28C109.389 22.3467 109.669 21.5733 109.909 20.96C110.122 20.3467 110.296 19.8267 110.429 19.4C110.589 18.9733 110.749 18.56 110.909 18.16C111.069 17.76 111.242 17.28 111.429 16.72C111.562 16.3733 111.682 16.04 111.789 15.72C111.896 15.3733 112.002 15.0267 112.109 14.68C112.242 14.3333 112.362 14 112.469 13.68C112.602 13.3333 112.722 12.9867 112.829 12.64C113.122 12.0267 113.376 11.44 113.589 10.88C113.829 10.32 114.042 9.70667 114.229 9.04C114.336 8.8 114.322 8.62666 114.189 8.52C114.082 8.41333 114.029 8.18667 114.029 7.84C114.002 7.52 114.082 7.29333 114.269 7.16C114.482 7 114.749 6.96 115.069 7.04C115.442 7.12 115.962 7.18667 116.629 7.24C117.322 7.29333 117.949 7.32 118.509 7.32C119.096 7.29333 119.416 7.26667 119.469 7.24C119.602 7.18667 120.042 7.10667 120.789 7C121.536 6.86667 122.442 6.72 123.509 6.56C124.576 6.4 125.669 6.25333 126.789 6.12C127.936 5.98666 128.949 5.86666 129.829 5.76C130.122 5.70667 130.402 5.70667 130.669 5.76C130.962 5.81333 131.242 5.86667 131.509 5.92C131.856 5.97333 132.202 6.16 132.549 6.48C132.896 6.8 133.016 7.18667 132.909 7.64C132.802 7.93333 132.576 8.09333 132.229 8.12C131.882 8.12 131.416 8.06667 130.829 7.96C130.776 7.96 130.722 8.06667 130.669 8.28C130.616 8.49333 130.549 8.74667 130.469 9.04C130.416 9.33333 130.322 9.64 130.189 9.96C130.029 10.1467 129.842 10.5067 129.629 11.04C129.442 11.5733 129.242 12.16 129.029 12.8C128.816 13.44 128.642 14.0267 128.509 14.56C128.376 15.0933 128.309 15.4667 128.309 15.68C127.936 16.2667 127.669 16.9067 127.509 17.6C127.376 18.2933 127.202 18.9467 126.989 19.56C126.962 19.6667 126.856 20.04 126.669 20.68C126.509 21.2933 126.309 22.04 126.069 22.92C125.829 23.8 125.589 24.68 125.349 25.56C125.109 26.4133 124.909 27.1467 124.749 27.76C124.589 28.3733 124.509 28.72 124.509 28.8C124.482 29.3333 124.416 29.88 124.309 30.44C124.229 31 124.176 31.5467 124.149 32.08C124.176 32.1867 124.189 32.28 124.189 32.36C124.189 32.4133 124.136 32.4667 124.029 32.52C123.816 32.7067 123.456 32.8 122.949 32.8C122.442 32.7733 122.122 32.68 121.989 32.52C121.882 32.3067 121.789 32.12 121.709 31.96C121.629 31.7733 121.602 31.5733 121.629 31.36C121.682 30.6133 121.776 29.8667 121.909 29.12C122.042 28.3733 122.162 27.6533 122.269 26.96C122.402 26.2667 122.562 25.64 122.749 25.08C122.936 24.52 123.069 24.2133 123.149 24.16L123.909 21.32C124.202 20.52 124.389 19.8933 124.469 19.44C124.549 18.96 124.629 18.4933 124.709 18.04C124.816 17.5867 125.002 17 125.269 16.28C125.536 15.6133 125.749 14.9467 125.909 14.28C126.096 13.5867 126.282 12.9067 126.469 12.24C126.656 11.6 126.842 11.04 127.029 10.56C127.216 10.0533 127.362 9.61333 127.469 9.24C127.602 8.86667 127.656 8.54667 127.629 8.28C127.042 8.33333 126.496 8.4 125.989 8.48C125.509 8.56 125.002 8.64 124.469 8.72C123.962 8.77333 123.336 8.85333 122.589 8.96C122.136 9.01333 121.536 9.10667 120.789 9.24C120.042 9.34667 119.349 9.45333 118.709 9.56C118.096 9.64 117.709 9.68 117.549 9.68C117.362 9.70667 117.202 9.76 117.069 9.84C116.936 9.92 116.869 10.0267 116.869 10.16C116.469 10.96 116.082 11.7733 115.709 12.6C115.336 13.4 115.002 14.1733 114.709 14.92C114.442 15.64 114.242 16.28 114.109 16.84C114.056 16.9467 113.949 17.2133 113.789 17.64C113.629 18.0667 113.442 18.56 113.229 19.12C113.016 19.68 112.816 20.2133 112.629 20.72C112.442 21.2267 112.296 21.6267 112.189 21.92C112.109 22.1867 112.082 22.2533 112.109 22.12C111.709 23.4 111.376 24.4133 111.109 25.16C110.869 25.88 110.669 26.4533 110.509 26.88C110.349 27.3067 110.216 27.68 110.109 28C110.002 28.32 109.896 28.7067 109.789 29.16C109.629 29.5867 109.496 30.0267 109.389 30.48C109.282 30.9333 109.176 31.3867 109.069 31.84C109.042 31.9733 109.002 32.12 108.949 32.28C108.922 32.44 108.869 32.7733 108.789 33.28C108.682 33.4933 108.549 33.6533 108.389 33.76C108.256 33.8933 108.042 33.9467 107.749 33.92ZM133.69 32.4C133.343 32.4 133.063 32.3333 132.85 32.2C132.663 32.0667 132.423 31.88 132.13 31.64C131.623 31.1067 131.263 30.6 131.05 30.12C130.836 29.6133 130.77 29.1333 130.85 28.68C130.93 28.4667 130.956 28.2667 130.93 28.08C130.93 27.8667 130.93 27.76 130.93 27.76C130.796 27.6267 130.756 27.5467 130.81 27.52C130.863 27.4667 130.916 27.3867 130.97 27.28C131.13 27.28 131.183 27.1333 131.13 26.84C131.076 26.6267 131.183 26.16 131.45 25.44C131.716 24.72 132.05 24.04 132.45 23.4C132.61 23.1333 132.85 22.7867 133.17 22.36C133.49 21.9067 133.836 21.4667 134.21 21.04C134.61 20.5867 134.97 20.2267 135.29 19.96C135.956 19.4 136.543 18.9867 137.05 18.72C137.556 18.4533 138.103 18.2533 138.69 18.12C139.276 17.9867 139.676 17.92 139.89 17.92C140.13 17.92 140.45 18.1333 140.85 18.56C141.463 18.8267 141.903 19.1467 142.17 19.52C142.463 19.8933 142.65 20.44 142.73 21.16C142.81 21.96 142.743 22.88 142.53 23.92C142.343 24.9333 141.716 26.2 140.65 27.72C139.983 28.68 139.37 29.4 138.81 29.88C138.25 30.3333 137.583 30.7867 136.81 31.24C136.25 31.6133 135.743 31.8933 135.29 32.08C134.836 32.24 134.303 32.3467 133.69 32.4ZM137.53 28.16C138.17 27.44 138.676 26.76 139.05 26.12C139.45 25.48 139.823 24.6667 140.17 23.68C140.276 23.3867 140.343 23.0267 140.37 22.6C140.396 22.1467 140.383 21.7333 140.33 21.36C140.303 20.96 140.21 20.7333 140.05 20.68C139.73 20.4933 139.343 20.44 138.89 20.52C138.436 20.5733 137.943 20.8267 137.41 21.28C136.583 21.9733 135.863 22.84 135.25 23.88C134.636 24.8933 134.036 26.0533 133.45 27.36C133.05 28.32 132.956 29.0933 133.17 29.68C133.41 30.24 133.903 30.44 134.65 30.28C135.423 30.0933 136.383 29.3867 137.53 28.16ZM140.721 44.96C140.134 44.96 139.574 44.8533 139.041 44.64C138.481 44.4267 137.961 44.08 137.481 43.6C137.241 43.0133 137.067 42.6267 136.961 42.44C136.827 42.28 136.587 42.04 136.241 41.72C136.241 41.5867 136.294 41.3333 136.401 40.96C136.507 40.6133 136.667 40.3067 136.881 40.04C137.441 39.3733 138.121 38.7733 138.921 38.24C139.721 37.7333 140.654 37.2933 141.721 36.92C141.854 36.8667 141.987 36.8 142.121 36.72C142.281 36.6667 142.427 36.64 142.561 36.64C142.694 36.64 142.774 36.56 142.801 36.4C142.854 36.24 142.974 36.2267 143.161 36.36C143.294 36.3067 143.401 36.24 143.481 36.16C143.561 36.08 143.694 36.0667 143.881 36.12C143.881 36.12 144.027 36.08 144.321 36C144.641 35.92 145.001 35.8133 145.401 35.68C145.801 35.5733 146.147 35.4667 146.441 35.36C146.761 35.28 146.921 35.24 146.921 35.24C146.974 34.52 146.987 33.7733 146.961 33C146.961 32.2267 146.747 31.6533 146.321 31.28C146.054 30.9867 145.841 30.6533 145.681 30.28C145.547 29.9067 145.374 29.5067 145.161 29.08C145.214 28.84 145.307 28.64 145.441 28.48C145.574 28.32 145.761 28.1867 146.001 28.08C146.507 27.84 147.121 27.4667 147.841 26.96C148.587 26.4267 149.347 25.8 150.121 25.08C150.894 24.36 151.574 23.5867 152.161 22.76C152.534 22.2267 152.667 21.72 152.561 21.24C152.481 20.76 152.014 20.4667 151.161 20.36C150.627 20.36 150.027 20.5467 149.361 20.92C148.694 21.2667 148.001 21.7467 147.281 22.36C146.854 22.52 146.547 22.48 146.361 22.24C146.174 21.9733 146.027 21.68 145.921 21.36C145.974 21.0667 146.081 20.8133 146.241 20.6C146.401 20.36 146.574 20.1333 146.761 19.92C146.974 19.7067 147.161 19.48 147.321 19.24C147.534 19.1333 147.721 19.0267 147.881 18.92C148.041 18.7867 148.214 18.6667 148.401 18.56C148.561 18.4533 148.721 18.3733 148.881 18.32C149.067 18.24 149.254 18.2 149.441 18.2C149.601 18.2 149.761 18.1733 149.921 18.12C150.081 18.04 150.254 18 150.441 18C151.694 18.0533 152.681 18.5333 153.401 19.44C154.121 20.3467 154.441 21.24 154.361 22.12C154.307 23 153.854 24.1467 153.001 25.56C152.761 25.96 152.361 26.3867 151.801 26.84C151.267 27.2933 150.694 27.7333 150.081 28.16C149.494 28.5867 148.974 28.96 148.521 29.28C148.067 29.5733 147.801 29.76 147.721 29.84C147.961 30.1333 148.214 30.6267 148.481 31.32C148.747 31.9867 148.961 32.6667 149.121 33.36C149.307 34.08 149.334 34.64 149.201 35.04C149.467 35.0933 149.801 35.0667 150.201 34.96C150.627 34.88 150.961 34.84 151.201 34.84C151.441 35.08 151.681 35.3067 151.921 35.52C152.161 35.7333 152.281 35.96 152.281 36.2C152.334 36.36 152.294 36.5067 152.161 36.64C152.054 36.7733 151.934 36.8533 151.801 36.88C151.454 36.9333 151.014 36.9467 150.481 36.92C149.947 36.8933 149.427 36.9867 148.921 37.2C148.547 37.76 148.227 38.3733 147.961 39.04C147.694 39.7333 147.347 40.44 146.921 41.16C146.494 41.9067 145.827 42.6667 144.921 43.44C144.601 43.7067 144.267 43.9467 143.921 44.16C143.574 44.4 143.294 44.52 143.081 44.52C142.654 44.6533 142.241 44.76 141.841 44.84C141.467 44.92 141.094 44.96 140.721 44.96ZM139.001 42.92C139.001 42.9733 139.201 42.9867 139.601 42.96C139.974 42.96 140.427 42.8933 140.961 42.76C141.521 42.6533 142.014 42.48 142.441 42.24C142.974 41.92 143.427 41.5333 143.801 41.08C144.174 40.6533 144.534 40.1867 144.881 39.68C145.014 39.4667 145.147 39.2267 145.281 38.96C145.414 38.72 145.521 38.4667 145.601 38.2C145.414 37.9867 145.107 38 144.681 38.24C144.254 38.48 143.747 38.7067 143.161 38.92C142.547 39.1333 141.801 39.4533 140.921 39.88C140.067 40.3333 139.414 40.8267 138.961 41.36C138.827 41.5467 138.681 41.72 138.521 41.88C138.361 42.04 138.187 42.1867 138.001 42.32C138.134 42.5067 138.281 42.6533 138.441 42.76C138.601 42.8667 138.787 42.92 139.001 42.92ZM165.338 32.56C165.178 32.5067 165.018 32.4667 164.858 32.44C164.698 32.3867 164.538 32.3333 164.378 32.28C164.245 32.2267 164.085 32.1867 163.898 32.16C163.631 31.7867 163.525 31.3333 163.578 30.8C163.631 30.24 163.751 29.6667 163.938 29.08C164.151 28.4933 164.351 27.92 164.538 27.36C164.751 26.8 164.871 26.32 164.898 25.92C164.871 25.8133 164.831 25.7867 164.778 25.84C164.725 25.8667 164.698 25.9067 164.698 25.96C164.511 26.1733 164.245 26.32 163.898 26.4C163.551 26.48 163.231 26.5467 162.938 26.6C162.431 26.68 161.925 26.7733 161.418 26.88C160.911 26.9867 160.418 27.1067 159.938 27.24C159.858 27.1867 159.765 27.12 159.658 27.04C159.578 26.96 159.498 26.8933 159.418 26.84C159.231 26.84 159.071 27.0133 158.938 27.36C158.805 27.7067 158.685 28.1333 158.578 28.64C158.471 29.12 158.365 29.5867 158.258 30.04C158.178 30.4667 158.098 30.7733 158.018 30.96C157.591 31.0133 157.285 31.0267 157.098 31C156.938 30.9733 156.631 30.8933 156.178 30.76C155.965 30.4667 155.845 30.1867 155.818 29.92C155.818 29.6533 155.858 29.36 155.938 29.04C156.071 28.4267 156.178 27.9333 156.258 27.56C156.365 27.1867 156.538 26.7067 156.778 26.12C156.911 25.8267 157.031 25.5467 157.138 25.28C157.271 24.9867 157.338 24.6667 157.338 24.32C157.551 24.0533 157.698 23.76 157.778 23.44C157.858 23.12 157.951 22.8 158.058 22.48C158.485 21.3867 158.818 20.5467 159.058 19.96C159.325 19.3467 159.511 18.8667 159.618 18.52C159.725 18.1733 159.791 17.8533 159.818 17.56C159.845 17.1867 160.071 17 160.498 17C160.765 17 161.045 17.1067 161.338 17.32C161.631 17.5067 161.858 17.7467 162.018 18.04C162.178 18.3333 162.191 18.64 162.058 18.96C161.978 19.1733 161.845 19.52 161.658 20C161.498 20.4533 161.311 20.96 161.098 21.52C160.911 22.0533 160.725 22.56 160.538 23.04C160.378 23.4933 160.245 23.8267 160.138 24.04C160.111 24.1467 160.058 24.24 159.978 24.32C159.898 24.3733 159.858 24.4667 159.858 24.6C160.045 24.7333 160.351 24.7867 160.778 24.76C161.231 24.7067 161.551 24.6267 161.738 24.52C162.138 24.52 162.525 24.52 162.898 24.52C163.298 24.52 163.698 24.52 164.098 24.52C164.498 24.76 164.805 25.12 165.018 25.6C165.205 25.0933 165.458 24.4267 165.778 23.6C166.098 22.7467 166.405 21.9067 166.698 21.08C166.991 20.2533 167.165 19.6267 167.218 19.2C167.271 18.96 167.378 18.7467 167.538 18.56C167.698 18.3733 167.871 18.2267 168.058 18.12C168.431 18.3067 168.791 18.4667 169.138 18.6C169.511 18.7067 169.751 19.0133 169.858 19.52C169.831 19.76 169.778 20 169.698 20.24C169.618 20.4533 169.538 20.6667 169.458 20.88C169.191 21.6533 168.858 22.5067 168.458 23.44C168.058 24.3467 167.685 25.28 167.338 26.24C167.018 27.1733 166.791 28.0533 166.658 28.88C166.658 28.96 166.591 29.2267 166.458 29.68C166.351 30.1333 166.231 30.5733 166.098 31C165.991 31.4267 165.925 31.6533 165.898 31.68C165.898 31.8667 165.845 32.04 165.738 32.2C165.631 32.3333 165.498 32.4533 165.338 32.56ZM175.033 31.84C174.819 31.8933 174.539 31.92 174.193 31.92C173.846 31.8933 173.539 31.8533 173.273 31.8C173.033 31.72 172.913 31.64 172.913 31.56C172.913 31.4267 172.846 31.36 172.713 31.36C172.713 31.36 172.646 31.3067 172.513 31.2C172.406 31.0933 172.233 30.9867 171.993 30.88C171.753 30.5067 171.633 30.1067 171.633 29.68C171.633 29.2267 171.753 28.52 171.993 27.56C172.073 26.8933 172.326 26.12 172.753 25.24C173.206 24.3333 173.753 23.4133 174.393 22.48C175.033 21.5467 175.699 20.7067 176.393 19.96C177.113 19.2133 177.766 18.6667 178.353 18.32C178.726 17.9467 179.179 17.7467 179.713 17.72C180.246 17.6933 180.753 17.8133 181.233 18.08C181.499 18.2133 181.766 18.4267 182.033 18.72C182.299 19.0133 182.553 19.3333 182.793 19.68C183.033 20.0267 183.233 20.3733 183.393 20.72C183.473 21.0133 183.513 21.28 183.513 21.52C183.539 21.7333 183.539 22 183.513 22.32C183.513 22.64 183.473 23.12 183.393 23.76C183.259 24.24 183.139 24.8267 183.033 25.52C182.953 26.2133 182.913 26.8133 182.913 27.32C182.859 27.8267 182.913 28.1867 183.073 28.4C183.259 28.6133 183.526 28.6267 183.873 28.44C184.193 28.28 184.499 28.2133 184.793 28.24C185.086 28.24 185.313 28.32 185.473 28.48C185.659 28.64 185.753 28.88 185.753 29.2C185.753 29.52 185.593 29.8533 185.273 30.2C184.979 30.52 184.606 30.8 184.153 31.04C183.726 31.2533 183.313 31.36 182.913 31.36C182.619 31.36 182.339 31.1867 182.073 30.84C181.806 30.4667 181.566 30.0267 181.353 29.52C181.166 28.9867 180.993 28.48 180.833 28L180.593 27.08L178.873 28.72C178.526 29.0933 178.179 29.44 177.833 29.76C177.513 30.0533 177.313 30.2667 177.233 30.4C177.099 30.64 176.846 30.88 176.473 31.12C176.126 31.36 175.646 31.6 175.033 31.84ZM175.153 29.48C175.606 29.2133 176.126 28.8267 176.713 28.32C177.299 27.7867 177.873 27.2133 178.433 26.6C178.993 25.96 179.459 25.3733 179.833 24.84C180.286 24.2267 180.633 23.6533 180.873 23.12C181.113 22.5867 181.286 22.08 181.393 21.6C181.286 21.3067 181.113 21 180.873 20.68C180.633 20.3333 180.419 20.1467 180.233 20.12C179.646 20.12 179.019 20.4933 178.353 21.24C177.713 21.96 177.086 22.7467 176.473 23.6C176.366 23.7333 176.219 23.9467 176.033 24.24C175.846 24.5333 175.659 24.8133 175.473 25.08C175.313 25.32 175.206 25.48 175.153 25.56C175.073 25.6667 174.913 25.9733 174.673 26.48C174.459 26.96 174.246 27.4533 174.033 27.96C173.819 28.44 173.713 28.76 173.713 28.92C173.713 29.08 173.726 29.2533 173.753 29.44C173.806 29.6267 173.939 29.7467 174.153 29.8C174.366 29.8533 174.699 29.7467 175.153 29.48ZM187.968 32.12C187.701 31.9333 187.501 31.76 187.368 31.6C187.234 31.44 187.181 31.2133 187.208 30.92C187.261 30.52 187.341 30.1067 187.448 29.68C187.554 29.2267 187.688 28.7867 187.848 28.36C187.928 27.88 188.021 27.4 188.128 26.92C188.261 26.44 188.474 25.9867 188.768 25.56C189.221 24.28 189.634 23.04 190.008 21.84C190.408 20.6133 190.941 19.1733 191.608 17.52C191.741 17.2267 191.861 17.0133 191.968 16.88C192.101 16.72 192.221 16.56 192.328 16.4C192.354 16.2933 192.434 16.24 192.568 16.24C192.728 16.2133 192.901 16.24 193.088 16.32C193.274 16.3733 193.421 16.4667 193.528 16.6C193.634 16.5733 193.781 16.7467 193.967 17.12C194.181 17.4933 194.261 17.7867 194.208 18C194.208 18.1067 194.181 18.2533 194.128 18.44C194.074 18.6267 193.994 18.8 193.888 18.96C193.781 19.0667 193.674 19.2267 193.568 19.44C193.461 19.6267 193.301 19.88 193.088 20.2C192.821 20.9467 192.594 21.5733 192.408 22.08C192.221 22.5867 191.994 23.16 191.728 23.8C191.541 24.0667 191.394 24.4267 191.288 24.88C191.181 25.3333 191.074 25.7733 190.968 26.2C190.781 26.68 190.608 27.12 190.448 27.52C190.314 27.92 190.248 28.1733 190.248 28.28C190.061 28.8667 189.914 29.4533 189.808 30.04C189.701 30.6 189.528 31.0933 189.288 31.52C189.261 31.92 189.141 32.1867 188.928 32.32C188.741 32.4533 188.421 32.3867 187.968 32.12ZM197.528 32.76C197.101 32.7067 196.781 32.6267 196.568 32.52C196.354 32.3867 195.954 32.1067 195.368 31.68C195.048 31.36 194.608 30.8667 194.048 30.2C193.488 29.5333 192.928 28.8267 192.368 28.08C191.808 27.3067 191.341 26.6533 190.968 26.12L192.608 23.92C192.954 24.3467 193.234 24.7467 193.448 25.12C193.661 25.4933 193.834 25.7467 193.967 25.88C194.581 26.7867 195.061 27.52 195.408 28.08C195.781 28.64 196.114 29.0933 196.408 29.44C196.701 29.7867 197.008 30.0933 197.328 30.36C197.674 30.6267 198.101 30.9067 198.608 31.2C198.688 31.2533 198.768 31.3333 198.848 31.44C198.928 31.5467 198.954 31.7067 198.928 31.92C198.821 32.2133 198.701 32.4 198.568 32.48C198.461 32.5333 198.114 32.6267 197.528 32.76ZM190.848 25.68C190.688 25.2267 190.741 24.7733 191.008 24.32C191.301 23.84 191.621 23.5067 191.968 23.32C192.074 23.1333 192.181 23.0133 192.288 22.96C192.421 22.88 192.501 22.7867 192.528 22.68C192.581 22.5733 192.714 22.4267 192.928 22.24C193.168 22.0533 193.381 21.88 193.568 21.72C193.994 21.4533 194.474 21.1333 195.008 20.76C195.568 20.36 196.101 19.96 196.608 19.56C197.114 19.16 197.541 18.8133 197.888 18.52C198.261 18.2267 198.488 18.04 198.568 17.96C198.648 17.8533 198.754 17.7867 198.888 17.76C199.048 17.7067 199.248 17.7333 199.488 17.84C199.808 17.92 200.021 18.0533 200.128 18.24C200.234 18.4 200.288 18.72 200.288 19.2C200.368 19.4933 200.248 19.8133 199.928 20.16C199.634 20.48 199.181 20.84 198.568 21.24C198.354 21.3733 198.061 21.5733 197.688 21.84C197.341 22.1067 197.034 22.36 196.768 22.6C196.581 22.7067 196.301 22.8933 195.928 23.16C195.581 23.4 195.274 23.64 195.008 23.88C194.794 24.0133 194.514 24.2533 194.168 24.6C193.821 24.92 193.474 25.16 193.128 25.32C192.274 26.12 191.714 26.5467 191.448 26.6C191.181 26.6533 190.981 26.3467 190.848 25.68ZM206.337 32.76C205.99 32.7867 205.71 32.76 205.497 32.68C205.284 32.5733 205.017 32.4267 204.697 32.24C204.11 31.7867 203.67 31.3333 203.377 30.88C203.11 30.4 202.99 29.9333 203.017 29.48C203.07 29.24 203.07 29.0267 203.017 28.84C202.99 28.6533 202.977 28.56 202.977 28.56C202.817 28.4267 202.764 28.3467 202.817 28.32C202.87 28.2667 202.91 28.1867 202.937 28.08C203.15 28.0267 203.177 27.88 203.017 27.64C202.937 27.4267 202.977 26.9467 203.137 26.2C203.324 25.4267 203.564 24.7067 203.857 24.04C203.99 23.7467 204.177 23.36 204.417 22.88C204.684 22.4 204.977 21.92 205.297 21.44C205.617 20.9333 205.91 20.5333 206.177 20.24C206.764 19.5733 207.284 19.08 207.737 18.76C208.217 18.4133 208.75 18.1333 209.337 17.92C209.87 17.7067 210.257 17.5867 210.497 17.56C210.737 17.5333 211.07 17.6933 211.497 18.04C212.137 18.2267 212.617 18.4933 212.937 18.84C213.284 19.16 213.55 19.6667 213.737 20.36C213.95 21.1333 214.017 22.0533 213.937 23.12C213.884 24.16 213.43 25.5067 212.577 27.16C212.07 28.2 211.564 28.9867 211.057 29.52C210.577 30.0533 209.99 30.6133 209.297 31.2C208.79 31.6267 208.324 31.96 207.897 32.2C207.47 32.44 206.95 32.6267 206.337 32.76ZM209.537 28C210.07 27.2 210.484 26.4667 210.777 25.8C211.097 25.1067 211.35 24.24 211.537 23.2C211.59 22.9067 211.604 22.5467 211.577 22.12C211.55 21.6667 211.484 21.2533 211.377 20.88C211.297 20.5067 211.177 20.3067 211.017 20.28C210.67 20.1467 210.284 20.1467 209.857 20.28C209.43 20.3867 208.964 20.7067 208.457 21.24C208.004 21.7733 207.59 22.3733 207.217 23.04C206.87 23.7067 206.55 24.44 206.257 25.24C205.964 26.04 205.684 26.8933 205.417 27.8C205.15 28.8133 205.164 29.5867 205.457 30.12C205.777 30.6533 206.297 30.7867 207.017 30.52C207.737 30.2267 208.577 29.3867 209.537 28ZM232.318 32.88C232.052 32.7467 231.852 32.6133 231.718 32.48C231.585 32.32 231.358 32.1467 231.038 31.96C230.932 31.5867 230.812 31.2133 230.678 30.84C230.572 30.44 230.532 30.0533 230.558 29.68C230.585 29.4667 230.545 29.24 230.438 29C230.358 28.7333 230.372 28.5067 230.478 28.32C230.425 27.8933 230.438 27.3467 230.518 26.68C230.598 25.9867 230.705 25.3333 230.838 24.72C230.972 24.08 231.065 23.6267 231.118 23.36C231.038 23.2533 230.958 23.1867 230.878 23.16C230.825 23.1333 230.745 23.1733 230.638 23.28C230.372 23.5467 230.118 23.8133 229.878 24.08C229.638 24.3467 229.385 24.6267 229.118 24.92C229.012 25.0267 228.892 25.1333 228.758 25.24C228.625 25.32 228.558 25.4533 228.558 25.64L227.118 27.56C227.012 27.7733 226.812 28.0533 226.518 28.4C226.252 28.72 226.038 29.1067 225.878 29.56C225.825 29.7467 225.732 29.9067 225.598 30.04C225.465 30.1467 225.332 30.2533 225.198 30.36C224.852 30.2267 224.625 30.1333 224.518 30.08C224.412 30.0267 224.212 29.8667 223.918 29.6C223.652 29.3333 223.465 29.0933 223.358 28.88C223.252 28.64 223.225 28.4 223.278 28.16C223.278 27.76 223.278 27.2 223.278 26.48C223.305 25.7333 223.305 25.0267 223.278 24.36C223.278 23.6667 223.225 23.1867 223.118 22.92C222.825 22.9467 222.625 22.9867 222.518 23.04C222.412 23.0933 222.278 23.2533 222.118 23.52C222.145 23.4933 222.025 23.68 221.758 24.08C221.518 24.4533 221.185 24.9467 220.758 25.56C220.358 26.1467 219.958 26.7467 219.558 27.36C219.158 27.9467 218.825 28.4533 218.558 28.88C218.318 29.28 218.212 29.4667 218.238 29.44C218.052 29.6533 217.892 29.88 217.758 30.12C217.652 30.36 217.545 30.6133 217.438 30.88C217.305 31.2 217.158 31.4133 216.998 31.52C216.838 31.6 216.692 31.5733 216.558 31.44C216.345 31.3067 216.118 31.1733 215.878 31.04C215.665 30.9067 215.478 30.7867 215.318 30.68C215.212 30.4933 215.118 30.3067 215.038 30.12C214.985 29.9067 214.945 29.6667 214.918 29.4C215.132 29.2667 215.278 29.1867 215.358 29.16C215.438 29.1067 215.505 29.0133 215.558 28.88C216.145 28 216.652 27.2533 217.078 26.64C217.505 26 217.865 25.48 218.158 25.08C218.452 24.68 218.678 24.3733 218.838 24.16C218.998 23.92 219.092 23.76 219.118 23.68C219.252 23.4133 219.412 23.16 219.598 22.92C219.812 22.68 220.012 22.4267 220.198 22.16C220.225 22.08 220.358 21.8933 220.598 21.6C220.838 21.28 221.092 20.96 221.358 20.64C221.625 20.32 221.812 20.1333 221.918 20.08C222.052 20 222.145 19.8933 222.198 19.76C222.278 19.6 222.358 19.44 222.438 19.28C222.492 19.04 222.612 18.8667 222.798 18.76C222.985 18.6533 223.265 18.6267 223.638 18.68C223.852 18.8667 224.092 19.0667 224.358 19.28C224.625 19.4667 224.905 19.6667 225.198 19.88C225.172 20.1467 225.158 20.4267 225.158 20.72C225.185 21.0133 225.292 21.4667 225.478 22.08C225.398 22.4 225.412 22.7333 225.518 23.08C225.625 23.4267 225.625 23.7467 225.518 24.04C225.518 24.3867 225.598 24.64 225.758 24.8C225.945 24.9333 226.225 24.8 226.598 24.4C227.025 23.8667 227.532 23.2933 228.118 22.68C228.705 22.04 229.278 21.44 229.838 20.88C230.425 20.2933 230.918 19.8 231.318 19.4C231.745 18.9733 231.998 18.7067 232.078 18.6C232.132 18.4667 232.225 18.4 232.358 18.4C232.518 18.3733 232.665 18.4 232.798 18.48C233.252 18.72 233.558 18.8933 233.718 19C233.878 19.1067 234.105 19.3067 234.398 19.6C234.665 19.9733 234.705 20.3067 234.518 20.6C234.412 20.8667 234.265 21.3067 234.078 21.92C233.918 22.5067 233.745 23.16 233.558 23.88C233.398 24.6 233.252 25.28 233.118 25.92C233.012 26.5333 232.945 27.0133 232.918 27.36C232.892 27.8933 232.865 28.4533 232.838 29.04C232.812 29.6 232.852 30.1867 232.958 30.8C233.172 31.6267 233.225 32.16 233.118 32.4C233.038 32.6133 232.772 32.7733 232.318 32.88ZM239.697 32.24C239.377 32.1333 239.03 32.0667 238.657 32.04C238.284 31.9867 237.964 31.8267 237.697 31.56C237.35 31.2133 237.084 30.8133 236.897 30.36C236.737 29.88 236.71 29.4 236.817 28.92C236.897 28.6267 236.937 28.3467 236.937 28.08C236.937 27.7867 237.004 27.5067 237.137 27.24C237.164 26.9467 237.23 26.68 237.337 26.44C237.444 26.1733 237.55 25.9067 237.657 25.64C237.844 25.1867 238.004 24.7333 238.137 24.28C238.297 23.8267 238.484 23.3867 238.697 22.96C239.097 22.1333 239.524 21.3333 239.977 20.56C240.457 19.7867 240.884 18.9867 241.257 18.16C241.364 17.9467 241.484 17.8133 241.617 17.76C241.777 17.68 241.937 17.64 242.097 17.64C242.31 17.64 242.524 17.68 242.737 17.76C242.95 17.84 243.137 17.9067 243.297 17.96C243.377 18.2 243.497 18.4 243.657 18.56C243.817 18.72 243.87 18.9467 243.817 19.24C243.444 19.7733 243.084 20.32 242.737 20.88C242.417 21.4133 242.097 21.96 241.777 22.52C241.484 23.0533 241.19 23.6133 240.897 24.2C240.71 24.6 240.564 25.0267 240.457 25.48C240.35 25.9333 240.204 26.36 240.017 26.76C239.83 27.1867 239.697 27.64 239.617 28.12C239.537 28.5733 239.43 29.0267 239.297 29.48C239.27 29.6133 239.27 29.7467 239.297 29.88C239.35 29.9867 239.444 30.0667 239.577 30.12C239.95 29.9867 240.324 29.8667 240.697 29.76C241.07 29.6533 241.404 29.48 241.697 29.24C242.23 28.8133 242.657 28.44 242.977 28.12C243.297 27.7733 243.55 27.3867 243.737 26.96C243.924 26.5067 244.057 25.92 244.137 25.2C244.164 25.04 244.15 24.8933 244.097 24.76C244.044 24.6 243.964 24.4667 243.857 24.36C243.617 24.2533 243.39 24.1333 243.177 24C242.99 23.84 242.844 23.6667 242.737 23.48C242.657 23.2667 242.657 23.0267 242.737 22.76C242.844 22.3867 243.057 22.12 243.377 21.96C243.724 21.8 244.044 21.7333 244.337 21.76C244.39 21.7867 244.43 21.8133 244.457 21.84C244.51 21.8667 244.55 21.9067 244.577 21.96C244.79 22.0667 245.004 22.2133 245.217 22.4C245.43 22.56 245.617 22.7067 245.777 22.84C245.884 23.1333 246.03 23.4533 246.217 23.8C246.404 24.1467 246.497 24.68 246.497 25.4C246.497 26.8933 246.097 28.1067 245.297 29.04C244.524 29.9733 243.497 30.7867 242.217 31.48C242.03 31.5867 241.83 31.6667 241.617 31.72C241.43 31.7467 241.257 31.8267 241.097 31.96C241.07 31.9333 240.95 31.9467 240.737 32C240.524 32.0267 240.31 32.0667 240.097 32.12C239.884 32.1733 239.75 32.2133 239.697 32.24ZM249.919 31.04C249.626 30.8533 249.359 30.6133 249.119 30.32C248.879 30 248.759 29.6 248.759 29.12C248.759 28.8533 248.812 28.4 248.919 27.76C249.026 27.12 249.172 26.4 249.359 25.6C249.546 24.8 249.732 24.0533 249.919 23.36C250.186 22.88 250.412 22.4 250.599 21.92C250.786 21.44 250.879 21.1467 250.879 21.04C250.932 20.72 250.999 20.3467 251.079 19.92C251.186 19.4933 251.292 19.1067 251.399 18.76C251.506 18.4133 251.586 18.2133 251.639 18.16C251.772 18.0267 251.932 17.9467 252.119 17.92C252.306 17.8667 252.492 17.8933 252.679 18C252.892 18.08 253.052 18.2533 253.159 18.52C253.452 18.84 253.599 19.2267 253.599 19.68C253.599 20.1067 253.452 20.7467 253.159 21.6C252.919 22.1333 252.679 22.76 252.439 23.48C252.199 24.2 251.986 24.8667 251.799 25.48C251.639 26.0667 251.546 26.4667 251.519 26.68L250.719 26.92C251.172 26.4933 251.599 26.0533 251.999 25.6C252.399 25.12 252.692 24.7467 252.879 24.48C253.332 23.8667 253.719 23.36 254.039 22.96C254.386 22.5333 254.826 22.0267 255.359 21.44C255.892 20.8267 256.412 20.4533 256.919 20.32C257.452 20.16 257.866 20.08 258.159 20.08C258.746 20.1867 259.212 20.4933 259.559 21C259.932 21.48 260.172 22.2 260.279 23.16C260.279 23.5333 260.239 23.9733 260.159 24.48C260.106 24.9867 260.079 25.24 260.079 25.24C260.079 25.24 260.292 24.96 260.719 24.4C261.172 23.84 261.772 23.2267 262.519 22.56C263.026 22.1867 263.519 21.9733 263.999 21.92C264.479 21.84 264.906 22 265.279 22.4C265.972 22.7733 266.426 23.3467 266.639 24.12C266.852 24.8667 266.906 25.8267 266.799 27C266.719 27.6933 266.706 28.2133 266.759 28.56C266.812 28.88 266.892 29.2 266.999 29.52C267.212 29.6267 267.252 29.8533 267.119 30.2C266.986 30.52 266.826 30.68 266.639 30.68C266.372 30.68 266.066 30.6267 265.719 30.52C265.399 30.4133 265.106 30.24 264.839 30C264.599 29.7333 264.479 29.3733 264.479 28.92V26.44C264.479 25.8533 264.452 25.3733 264.399 25C264.372 24.6267 264.306 24.4 264.199 24.32C263.906 24.16 263.479 24.3333 262.919 24.84C262.359 25.3467 261.759 26.0267 261.119 26.88C260.479 27.7333 259.879 28.6133 259.319 29.52C258.812 30.3467 258.492 30.8267 258.359 30.96C258.252 31.0667 258.052 31.0267 257.759 30.84C257.172 30.6533 256.799 30.4 256.639 30.08C256.506 29.7333 256.492 29.3467 256.599 28.92C256.732 28.4667 256.892 27.8533 257.079 27.08C257.292 26.3067 257.492 25.56 257.679 24.84C257.866 24.0933 257.986 23.56 258.039 23.24C257.932 23.0267 257.746 22.96 257.479 23.04C257.239 23.0933 256.986 23.2133 256.719 23.4C256.399 23.6133 256.012 24.0133 255.559 24.6C255.106 25.1867 254.639 25.8667 254.159 26.64C253.839 27.1467 253.506 27.6533 253.159 28.16C252.812 28.64 252.492 29.0667 252.199 29.44C251.906 29.8133 251.652 30.0933 251.439 30.28C251.066 30.8667 250.812 31.1867 250.679 31.24C250.546 31.2933 250.292 31.2267 249.919 31.04ZM277.462 31.6C276.902 32.08 276.249 32.36 275.502 32.44C274.782 32.52 274.075 32.4133 273.382 32.12C272.689 31.8 272.115 31.32 271.662 30.68C271.209 30.0933 270.915 29.4267 270.782 28.68C270.649 27.9067 270.635 26.9067 270.742 25.68C270.822 24.64 271.155 23.6 271.742 22.56C272.329 21.4933 273.035 20.5467 273.862 19.72C274.715 18.8933 275.555 18.32 276.382 18C276.782 17.7333 277.115 17.6133 277.382 17.64C277.675 17.64 278.115 17.6667 278.702 17.72C279.315 17.8 279.769 17.92 280.062 18.08C280.382 18.24 280.635 18.4533 280.822 18.72C281.222 19.12 281.489 19.52 281.622 19.92C281.755 20.2933 281.822 20.6667 281.822 21.04C281.715 21.6267 281.315 22.3467 280.622 23.2C279.955 24.0267 279.075 24.7067 277.982 25.24C277.395 25.4267 276.755 25.5067 276.062 25.48C275.369 25.4533 274.795 25.28 274.342 24.96C273.835 24.7467 273.502 24.7867 273.342 25.08C273.182 25.3467 273.035 26.0133 272.902 27.08C272.795 28.0933 272.875 28.84 273.142 29.32C273.409 29.7733 273.769 30.04 274.222 30.12C274.755 30.2267 275.169 30.3067 275.462 30.36C275.782 30.3867 276.169 30.2667 276.622 30C277.049 29.7333 277.315 29.5867 277.422 29.56C277.529 29.5067 277.609 29.4533 277.662 29.4C277.742 29.32 277.915 29.1467 278.182 28.88C278.369 28.6933 278.515 28.56 278.622 28.48C278.729 28.3733 278.849 28.32 278.982 28.32C279.115 28.32 279.235 28.3867 279.342 28.52C279.449 28.6267 279.555 28.7067 279.662 28.76C279.929 28.76 279.982 28.92 279.822 29.24C279.689 29.56 279.409 29.9467 278.982 30.4C278.555 30.8267 278.049 31.2267 277.462 31.6ZM277.422 23.12C277.715 22.9867 278.022 22.8 278.342 22.56C278.662 22.2933 278.929 22.0133 279.142 21.72C279.382 21.4 279.502 21.1333 279.502 20.92C279.502 20.5467 279.329 20.24 278.982 20C278.635 19.7333 278.115 19.6933 277.422 19.88C277.129 19.96 276.795 20.16 276.422 20.48C276.049 20.7733 275.689 21.1067 275.342 21.48C275.022 21.8533 274.755 22.1867 274.542 22.48C274.355 22.7733 274.289 22.9467 274.342 23C274.422 23.1333 274.649 23.24 275.022 23.32C275.395 23.3733 275.809 23.3867 276.262 23.36C276.742 23.3333 277.129 23.2533 277.422 23.12ZM287.79 32.56C287.016 32.6933 286.31 32.6533 285.67 32.44C285.03 32.2 284.51 31.8133 284.11 31.28C283.736 30.72 283.55 30.0133 283.55 29.16C283.47 28.36 283.563 27.44 283.83 26.4C284.096 25.3333 284.483 24.2667 284.99 23.2C285.523 22.1333 286.096 21.2133 286.71 20.44C287.243 19.8 287.776 19.2133 288.31 18.68C288.843 18.1467 289.323 17.7867 289.75 17.6C290.123 17.44 290.47 17.3467 290.79 17.32C291.136 17.2667 291.416 17.24 291.63 17.24C292.056 17.3467 292.51 17.5467 292.99 17.84C293.496 18.1067 293.75 18.4 293.75 18.72C293.75 18.72 293.776 18.76 293.83 18.84C293.91 18.8933 293.95 18.92 293.95 18.92C294.11 18.92 294.243 19.0933 294.35 19.44C294.483 19.7867 294.563 20.1867 294.59 20.64C294.616 21.0667 294.55 21.4267 294.39 21.72C294.283 22.2267 294.096 22.6667 293.83 23.04C293.563 23.4133 293.323 23.6 293.11 23.6C293.003 23.6 292.896 23.6133 292.79 23.64C292.71 23.64 292.67 23.7067 292.67 23.84C292.67 23.9733 292.59 24.0267 292.43 24C292.296 23.9733 292.15 23.8933 291.99 23.76C291.83 23.6 291.71 23.4133 291.63 23.2C291.63 23.0667 291.683 22.84 291.79 22.52C291.896 22.2 292.003 21.7867 292.11 21.28C292.27 20.5333 292.256 20.0533 292.07 19.84C291.883 19.6 291.523 19.5867 290.99 19.8C290.323 20.1733 289.683 20.6933 289.07 21.36C288.483 22.0267 287.936 22.8933 287.43 23.96C286.923 25 286.47 26.3067 286.07 27.88C285.91 28.4933 285.843 29.0267 285.87 29.48C285.923 29.9333 285.99 30.1733 286.07 30.2C286.443 30.3067 286.95 30.3333 287.59 30.28C288.23 30.2 288.696 30.08 288.99 29.92C289.416 29.7067 289.896 29.4267 290.43 29.08C290.963 28.7067 291.43 28.3733 291.83 28.08C291.963 28 292.123 27.8667 292.31 27.68C292.496 27.4933 292.696 27.3467 292.91 27.24C293.123 26.92 293.31 26.7333 293.47 26.68C293.63 26.6267 293.87 26.6 294.19 26.6C294.403 26.6533 294.603 26.7333 294.79 26.84C294.976 26.9467 295.096 27.0533 295.15 27.16C295.23 27.2667 295.19 27.36 295.03 27.44C294.923 27.44 294.856 27.48 294.83 27.56C294.83 27.6133 294.83 27.64 294.83 27.64C294.883 27.7467 294.763 27.9733 294.47 28.32C294.203 28.64 293.856 29 293.43 29.4C293.003 29.8 292.59 30.1467 292.19 30.44C291.816 30.7067 291.55 30.84 291.39 30.84C291.123 30.84 290.99 30.92 290.99 31.08C290.99 31.1333 290.79 31.2667 290.39 31.48C290.016 31.6933 289.576 31.9067 289.07 32.12C288.59 32.3333 288.163 32.48 287.79 32.56ZM300.048 32.24C299.728 32.1333 299.382 32.0667 299.008 32.04C298.635 31.9867 298.315 31.8267 298.048 31.56C297.702 31.2133 297.435 30.8133 297.248 30.36C297.088 29.88 297.062 29.4 297.168 28.92C297.248 28.6267 297.288 28.3467 297.288 28.08C297.288 27.7867 297.355 27.5067 297.488 27.24C297.515 26.9467 297.582 26.68 297.688 26.44C297.795 26.1733 297.902 25.9067 298.008 25.64C298.195 25.1867 298.355 24.7333 298.488 24.28C298.648 23.8267 298.835 23.3867 299.048 22.96C299.448 22.1333 299.875 21.3333 300.328 20.56C300.808 19.7867 301.235 18.9867 301.608 18.16C301.715 17.9467 301.835 17.8133 301.968 17.76C302.128 17.68 302.288 17.64 302.448 17.64C302.662 17.64 302.875 17.68 303.088 17.76C303.302 17.84 303.488 17.9067 303.648 17.96C303.728 18.2 303.848 18.4 304.008 18.56C304.168 18.72 304.222 18.9467 304.168 19.24C303.795 19.7733 303.435 20.32 303.088 20.88C302.768 21.4133 302.448 21.96 302.128 22.52C301.835 23.0533 301.542 23.6133 301.248 24.2C301.062 24.6 300.915 25.0267 300.808 25.48C300.702 25.9333 300.555 26.36 300.368 26.76C300.182 27.1867 300.048 27.64 299.968 28.12C299.888 28.5733 299.782 29.0267 299.648 29.48C299.622 29.6133 299.622 29.7467 299.648 29.88C299.702 29.9867 299.795 30.0667 299.928 30.12C300.302 29.9867 300.675 29.8667 301.048 29.76C301.422 29.6533 301.755 29.48 302.048 29.24C302.582 28.8133 303.008 28.44 303.328 28.12C303.648 27.7733 303.902 27.3867 304.088 26.96C304.275 26.5067 304.408 25.92 304.488 25.2C304.515 25.04 304.502 24.8933 304.448 24.76C304.395 24.6 304.315 24.4667 304.208 24.36C303.968 24.2533 303.742 24.1333 303.528 24C303.342 23.84 303.195 23.6667 303.088 23.48C303.008 23.2667 303.008 23.0267 303.088 22.76C303.195 22.3867 303.408 22.12 303.728 21.96C304.075 21.8 304.395 21.7333 304.688 21.76C304.742 21.7867 304.782 21.8133 304.808 21.84C304.862 21.8667 304.902 21.9067 304.928 21.96C305.142 22.0667 305.355 22.2133 305.568 22.4C305.782 22.56 305.968 22.7067 306.128 22.84C306.235 23.1333 306.382 23.4533 306.568 23.8C306.755 24.1467 306.848 24.68 306.848 25.4C306.848 26.8933 306.448 28.1067 305.648 29.04C304.875 29.9733 303.848 30.7867 302.568 31.48C302.382 31.5867 302.182 31.6667 301.968 31.72C301.782 31.7467 301.608 31.8267 301.448 31.96C301.422 31.9333 301.302 31.9467 301.088 32C300.875 32.0267 300.662 32.0667 300.448 32.12C300.235 32.1733 300.102 32.2133 300.048 32.24ZM323.838 31.96C323.491 32.12 323.091 32.1867 322.638 32.16C322.185 32.1333 321.571 31.9867 320.798 31.72C320.745 31.72 320.625 31.6667 320.438 31.56C320.278 31.4533 320.105 31.32 319.918 31.16C319.758 30.9733 319.625 30.7733 319.518 30.56C319.091 29.9467 318.918 29.04 318.998 27.84C319.078 26.64 319.451 25.2 320.118 23.52C320.305 23.12 320.585 22.6133 320.958 22C321.358 21.3867 321.745 20.8267 322.118 20.32C322.518 19.7867 322.798 19.48 322.958 19.4C322.958 19.4 323.105 19.3467 323.398 19.24C323.691 19.1333 324.065 18.96 324.518 18.72C324.651 18.6667 324.798 18.6133 324.958 18.56C325.145 18.5067 325.331 18.4667 325.518 18.44C325.705 18.4133 325.865 18.4133 325.998 18.44C326.531 18.4667 327.078 18.6667 327.638 19.04C328.225 19.3867 328.705 19.8 329.078 20.28C329.451 20.7333 329.571 21.1333 329.438 21.48C329.438 21.5333 329.358 21.64 329.198 21.8C329.065 21.9333 328.905 22.08 328.718 22.24C328.558 22.3733 328.425 22.5067 328.318 22.64C328.185 22.8 327.998 22.8667 327.758 22.84C327.545 22.8133 327.345 22.7067 327.158 22.52C326.998 22.3067 326.905 22.04 326.878 21.72C326.825 21.5067 326.625 21.3067 326.278 21.12C325.958 20.9333 325.798 20.84 325.798 20.84C325.585 20.84 325.278 21.04 324.878 21.44C324.505 21.8133 324.131 22.2667 323.758 22.8C323.278 23.28 322.865 23.8533 322.518 24.52C322.171 25.16 321.891 25.7733 321.678 26.36C321.491 26.92 321.358 27.32 321.278 27.56C321.171 27.8267 321.158 28.2 321.238 28.68C321.318 29.16 321.411 29.4533 321.518 29.56C321.625 29.6133 321.891 29.6267 322.318 29.6C322.771 29.5733 323.305 29.52 323.918 29.44C324.531 29.3333 325.131 29.2133 325.718 29.08C326.305 28.9467 326.785 28.8 327.158 28.64C327.665 28.32 328.105 28.1333 328.478 28.08C328.851 28.0267 329.131 28.0267 329.318 28.08C329.611 28.1867 329.785 28.3333 329.838 28.52C329.891 28.7067 329.825 28.92 329.638 29.16C329.451 29.3733 329.131 29.6 328.678 29.84C328.251 30.0533 327.865 30.2933 327.518 30.56C327.198 30.8 327.038 30.9867 327.038 31.12C326.931 31.12 326.811 31.16 326.678 31.24C326.571 31.2933 326.478 31.3067 326.398 31.28C326.345 31.28 326.131 31.32 325.758 31.4C325.385 31.48 324.998 31.5733 324.598 31.68C324.225 31.7867 323.971 31.88 323.838 31.96ZM186.795 58.8C187.168 58.5867 187.555 58.52 187.955 58.6C188.355 58.6533 188.662 58.8267 188.875 59.12C189.115 59.3867 189.155 59.7333 188.995 60.16C189.048 60 188.982 60.1067 188.795 60.48C188.635 60.8267 188.422 61.28 188.155 61.84C187.915 62.4 187.688 62.9333 187.475 63.44C187.288 63.92 187.168 64.2 187.115 64.28V64.4C187.542 64.4 187.795 64.5333 187.875 64.8C187.982 65.04 188.022 65.32 187.995 65.64C187.675 65.6933 187.448 65.7867 187.315 65.92C187.182 66.0267 187.008 66.0933 186.795 66.12C186.715 66.12 186.622 66.16 186.515 66.24C186.408 66.32 186.342 66.4133 186.315 66.52C186.288 66.6 186.208 66.92 186.075 67.48C185.968 68.0133 185.835 68.6 185.675 69.24C185.542 69.8533 185.422 70.32 185.315 70.64C185.262 70.8533 185.155 71.0267 184.995 71.16C184.835 71.2667 184.728 71.3333 184.675 71.36C184.142 71.1467 183.782 71.0133 183.595 70.96C183.435 70.88 183.275 70.7733 183.115 70.64C183.088 70.48 183.088 70.2933 183.115 70.08C183.142 69.84 183.208 69.56 183.315 69.24C183.448 68.84 183.555 68.4667 183.635 68.12C183.742 67.7467 183.848 67.2267 183.955 66.56C183.848 66.5067 183.622 66.5067 183.275 66.56C182.955 66.5867 182.608 66.6267 182.235 66.68C181.862 66.7333 181.542 66.7867 181.275 66.84C181.035 66.8933 180.928 66.9067 180.955 66.88C180.822 66.9333 180.568 66.9733 180.195 67C179.848 67 179.488 66.9867 179.115 66.96C178.768 66.9067 178.515 66.8533 178.355 66.8L178.115 66.92C178.088 67.1867 177.968 67.5867 177.755 68.12C177.542 68.6267 177.435 69.1067 177.435 69.56C177.408 69.9067 177.355 70.2533 177.275 70.6C177.195 70.9467 177.142 71.3067 177.115 71.68C177.088 72.2667 176.928 72.6267 176.635 72.76C176.368 72.8933 175.955 72.8 175.395 72.48C175.262 72.4 175.128 72.3067 174.995 72.2C174.888 72.0933 174.768 71.9733 174.635 71.84L175.275 68.76C175.382 68.3867 175.475 68.04 175.555 67.72C175.635 67.3733 175.728 67.04 175.835 66.72C176.048 66.1333 176.248 65.5333 176.435 64.92C176.648 64.3067 176.888 63.7333 177.155 63.2C177.155 63.2 177.195 63.0667 177.275 62.8C177.382 62.5067 177.502 62.1867 177.635 61.84C177.768 61.4667 177.875 61.1733 177.955 60.96C178.035 60.7467 178.048 60.7067 177.995 60.84C178.075 60.68 178.195 60.3733 178.355 59.92C178.515 59.44 178.662 58.9867 178.795 58.56C178.955 58.1067 179.035 57.8667 179.035 57.84C179.088 57.68 179.168 57.5733 179.275 57.52C179.382 57.44 179.515 57.4 179.675 57.4C180.128 57.3733 180.502 57.48 180.795 57.72C181.088 57.9333 181.248 58.2 181.275 58.52C181.248 58.68 181.235 58.8267 181.235 58.96C181.235 59.0933 181.208 59.2 181.155 59.28L179.075 64.36V64.68C179.342 64.84 179.728 64.8667 180.235 64.76C180.768 64.6267 181.168 64.56 181.435 64.56C181.568 64.5333 181.875 64.5067 182.355 64.48C182.862 64.4533 183.342 64.44 183.795 64.44C184.275 64.44 184.528 64.4533 184.555 64.48C184.848 63.68 185.115 62.9333 185.355 62.24C185.595 61.52 185.928 60.7867 186.355 60.04C186.382 59.9867 186.435 59.8133 186.515 59.52C186.622 59.2267 186.715 58.9867 186.795 58.8ZM191.639 71.56C191.533 71.3467 191.399 71.1867 191.239 71.08C191.079 70.9467 190.999 70.8267 190.999 70.72C190.999 70.6133 190.986 70.5067 190.959 70.4C190.959 70.2667 190.906 70.1467 190.799 70.04C190.666 69.88 190.679 69.52 190.839 68.96C190.999 68.3733 191.266 67.6667 191.639 66.84C192.013 65.9867 192.453 65.0933 192.959 64.16C193.173 63.9467 193.386 63.6667 193.599 63.32C193.813 62.9733 193.973 62.7467 194.079 62.64C194.079 62.5333 194.119 62.44 194.199 62.36C194.279 62.2533 194.373 62.2 194.479 62.2V61.96C194.479 61.8267 194.599 61.6 194.839 61.28C195.106 60.96 195.426 60.6133 195.799 60.24C196.173 59.84 196.559 59.4667 196.959 59.12C197.359 58.7467 197.693 58.48 197.959 58.32C198.519 57.9467 199.093 57.72 199.679 57.64C200.293 57.56 200.813 57.6933 201.239 58.04C201.319 58.12 201.453 58.2533 201.639 58.44C201.826 58.6267 202.039 58.84 202.279 59.08C202.546 59.2933 202.813 59.52 203.079 59.76L204.559 61.08L203.839 63.08C203.493 64.1467 203.399 65.08 203.559 65.88C203.746 66.68 204.013 67.3733 204.359 67.96C204.493 68.2533 204.759 68.5333 205.159 68.8C205.586 69.0667 205.986 69.2267 206.359 69.28C206.573 69.3067 206.773 69.3867 206.959 69.52C207.146 69.6533 207.239 69.8667 207.239 70.16C207.239 70.4267 207.186 70.64 207.079 70.8C206.973 70.96 206.786 71.0667 206.519 71.12C205.639 71.2267 204.813 71.0133 204.039 70.48C203.293 69.9467 202.599 69.0667 201.959 67.84C201.853 67.68 201.706 67.3867 201.519 66.96C201.359 66.5067 201.266 66.2133 201.239 66.08C201.133 66.2133 200.933 66.4667 200.639 66.84C200.346 67.1867 200.119 67.44 199.959 67.6C198.066 69.52 196.426 70.8133 195.039 71.48C193.679 72.12 192.546 72.1467 191.639 71.56ZM193.079 69.32C193.079 69.5067 193.359 69.5067 193.919 69.32C194.506 69.1067 195.133 68.7333 195.799 68.2C196.706 67.4267 197.613 66.5733 198.519 65.64C199.453 64.7067 200.199 63.84 200.759 63.04L201.639 61.6C201.373 60.9867 201.079 60.5733 200.759 60.36C200.466 60.12 200.213 60 199.999 60C199.653 60 199.133 60.32 198.439 60.96C197.773 61.6 197.053 62.4533 196.279 63.52C195.506 64.5867 194.773 65.76 194.079 67.04C193.813 67.5733 193.573 68.0933 193.359 68.6C193.173 69.08 193.079 69.32 193.079 69.32ZM227.62 72.2C227.327 72.2533 227.034 72.2667 226.74 72.24C226.447 72.2133 226.167 72.1067 225.9 71.92C225.794 71.7067 225.66 71.4667 225.5 71.2C225.367 70.9067 225.354 70.6533 225.46 70.44C225.594 70.12 225.66 69.6667 225.66 69.08C225.687 68.4933 225.794 68 225.98 67.6C226.007 67.5467 226.02 67.5067 226.02 67.48C226.047 67.4267 226.06 67.3733 226.06 67.32C226.087 67.0533 226.154 66.72 226.26 66.32C226.394 65.8933 226.487 65.56 226.54 65.32C226.567 65.2667 226.607 65.04 226.66 64.64C226.714 64.24 226.767 63.8133 226.82 63.36C226.874 62.9067 226.9 62.5867 226.9 62.4C226.9 62.2667 226.94 62.16 227.02 62.08C227.127 61.9733 227.127 61.84 227.02 61.68C226.594 62.08 226.06 62.6267 225.42 63.32C224.807 64.0133 224.22 64.72 223.66 65.44C223.1 66.1333 222.66 66.7333 222.34 67.24C222.287 67.3467 222.22 67.44 222.14 67.52C222.06 67.6 221.994 67.68 221.94 67.76C221.834 67.92 221.7 68.0667 221.54 68.2C221.38 68.3333 221.26 68.5067 221.18 68.72C220.727 69.1733 220.354 69.6 220.06 70C219.794 70.4 219.407 70.8133 218.9 71.24C218.554 71.32 218.234 71.2933 217.94 71.16C217.674 71.0267 217.394 70.9067 217.1 70.8C217.047 70.6667 216.98 70.5333 216.9 70.4C216.82 70.24 216.754 70.0933 216.7 69.96C216.78 69.3467 216.9 68.6 217.06 67.72C217.22 66.8133 217.354 65.92 217.46 65.04C217.594 64.16 217.634 63.48 217.58 63C217.554 62.8667 217.54 62.76 217.54 62.68C217.54 62.6 217.58 62.5067 217.66 62.4C217.66 62.3467 217.66 62.2933 217.66 62.24C217.687 62.1867 217.7 62.1467 217.7 62.12C217.567 61.9867 217.54 61.8533 217.62 61.72C217.7 61.5867 217.7 61.4533 217.62 61.32C217.594 61.2933 217.554 61.2667 217.5 61.24C217.474 61.2133 217.434 61.1867 217.38 61.16C216.794 62.0667 216.154 62.92 215.46 63.72C214.794 64.4933 214.14 65.3067 213.5 66.16C213.074 66.72 212.66 67.3733 212.26 68.12C211.887 68.8667 211.434 69.48 210.9 69.96C210.714 70.1467 210.527 70.36 210.34 70.6C210.18 70.8133 209.98 71 209.74 71.16C209.687 71.3467 209.58 71.4933 209.42 71.6C209.287 71.68 209.114 71.72 208.9 71.72C208.5 71.72 208.1 71.5867 207.7 71.32C207.3 71.0533 207.087 70.7467 207.06 70.4C207.06 70.2133 207.14 70.0267 207.3 69.84C207.327 69.7867 207.34 69.7333 207.34 69.68C207.367 69.6267 207.394 69.5867 207.42 69.56C207.927 69.3467 208.434 68.96 208.94 68.4C209.474 67.84 209.98 67.24 210.46 66.6C210.94 65.9333 211.38 65.3867 211.78 64.96C212.154 64.5867 212.447 64.2 212.66 63.8C212.874 63.3733 213.14 62.96 213.46 62.56C213.86 62.0533 214.26 61.5067 214.66 60.92C215.087 60.3333 215.5 59.76 215.9 59.2C216.327 58.64 216.754 58.1467 217.18 57.72C217.367 57.8267 217.554 57.92 217.74 58C217.954 58.08 218.18 58.12 218.42 58.12C218.554 58.28 218.674 58.44 218.78 58.6C218.914 58.7333 219.06 58.8667 219.22 59C219.594 59.32 219.847 59.7467 219.98 60.28C220.114 60.8133 220.18 61.3867 220.18 62C220.18 62.88 220.087 63.7733 219.9 64.68C219.74 65.56 219.62 66.3067 219.54 66.92C219.54 66.9467 219.54 66.9733 219.54 67C219.567 67 219.58 67.0133 219.58 67.04C220.167 66.5333 220.687 65.9467 221.14 65.28C221.594 64.6133 222.074 63.9867 222.58 63.4C223.514 62.3067 224.207 61.5067 224.66 61C225.14 60.4933 225.5 60.1333 225.74 59.92C225.98 59.7067 226.22 59.4933 226.46 59.28C226.647 59.1467 226.86 58.9733 227.1 58.76C227.367 58.52 227.714 58.1867 228.14 57.76C228.354 57.76 228.554 57.76 228.74 57.76C228.954 57.76 229.154 57.76 229.34 57.76C229.554 57.8933 229.714 58 229.82 58.08C229.927 58.1333 230.1 58.1867 230.34 58.24C230.367 58.3733 230.42 58.5733 230.5 58.84C230.58 59.1067 230.594 59.3067 230.54 59.44C230.487 59.6267 230.46 59.8133 230.46 60C230.46 60.1867 230.394 60.3733 230.26 60.56C230.047 60.88 229.847 61.4133 229.66 62.16C229.5 62.88 229.354 63.6 229.22 64.32C229.114 65.0133 229.047 65.5067 229.02 65.8C228.914 66.3067 228.807 66.6533 228.7 66.84C228.594 67 228.514 67.1733 228.46 67.36C228.407 67.5467 228.394 67.76 228.42 68C228.447 68.2133 228.42 68.4133 228.34 68.6C228.314 68.6267 228.287 68.6533 228.26 68.68C228.26 68.68 228.247 68.6933 228.22 68.72C228.22 68.9867 228.22 69.2667 228.22 69.56C228.247 69.8267 228.194 70.0667 228.06 70.28C228.114 70.4667 228.127 70.6667 228.1 70.88C228.074 71.0933 228.1 71.3067 228.18 71.52C228.074 71.6267 227.98 71.7333 227.9 71.84C227.82 71.9467 227.727 72.0667 227.62 72.2ZM243.302 72.52C242.422 72.2 241.742 71.6 241.262 70.72C240.782 69.8133 240.475 68.9333 240.342 68.08C240.315 68.08 240.235 68.1333 240.102 68.24C239.995 68.32 239.862 68.4533 239.702 68.64C239.328 69.0133 238.862 69.48 238.302 70.04C237.742 70.5733 237.155 71.0533 236.542 71.48C235.955 71.88 235.395 72.0533 234.862 72C234.648 71.8667 234.422 71.72 234.182 71.56C233.968 71.3733 233.755 71.1867 233.542 71C233.435 70.8933 233.342 70.7867 233.262 70.68C233.208 70.5733 233.155 70.4533 233.102 70.32C232.808 69.52 232.648 68.8133 232.622 68.2C232.595 67.56 232.662 66.9333 232.822 66.32C233.008 65.68 233.222 64.9733 233.462 64.2C233.488 64.12 233.582 63.7867 233.742 63.2C233.928 62.6133 234.142 61.9467 234.382 61.2C234.622 60.4533 234.848 59.7867 235.062 59.2C235.302 58.6133 235.475 58.2667 235.582 58.16C235.662 58.16 235.742 58.16 235.822 58.16C235.928 58.1333 236.022 58.12 236.102 58.12C236.368 58.12 236.568 58.2133 236.702 58.4C236.808 58.56 236.942 58.68 237.102 58.76C237.288 58.84 237.422 58.9467 237.502 59.08C237.635 59.3467 237.542 59.92 237.222 60.8C236.902 61.6533 236.555 62.6267 236.182 63.72C235.835 64.7067 235.542 65.7067 235.302 66.72C235.062 67.7067 235.048 68.5333 235.262 69.2C235.448 69.2 235.702 69.04 236.022 68.72C236.368 68.3733 236.635 68.1333 236.822 68C237.088 67.84 237.435 67.5333 237.862 67.08C238.315 66.6 238.755 66.12 239.182 65.64C239.608 65.1333 239.902 64.7467 240.062 64.48C240.168 64.32 240.328 64.0267 240.542 63.6C240.755 63.1467 240.968 62.6667 241.182 62.16C241.422 61.6267 241.608 61.1333 241.742 60.68C241.902 60.2267 241.968 59.9067 241.942 59.72C241.915 59.4533 241.942 59.2533 242.022 59.12C242.128 58.96 242.288 58.8133 242.502 58.68C242.635 58.68 242.782 58.68 242.942 58.68C243.102 58.68 243.248 58.6933 243.382 58.72C243.542 58.9067 243.715 59.08 243.902 59.24C244.088 59.4 244.275 59.5733 244.462 59.76C244.595 60.2667 244.515 60.9467 244.222 61.8C243.928 62.6533 243.635 63.5733 243.342 64.56C243.048 65.5467 242.862 66.5467 242.782 67.56C242.702 68.5467 242.968 69.4133 243.582 70.16C244.142 69.92 244.568 69.6933 244.862 69.48C245.182 69.24 245.488 69 245.782 68.76C246.075 68.4933 246.448 68.2267 246.902 67.96C247.168 68.12 247.368 68.44 247.502 68.92C247.635 69.4 247.702 69.7867 247.702 70.08C247.595 70.16 247.488 70.24 247.382 70.32C247.302 70.3733 247.235 70.4533 247.182 70.56C247.022 70.9067 246.702 71.2533 246.222 71.6C245.742 71.9467 245.235 72.2267 244.702 72.44C244.168 72.6267 243.702 72.6533 243.302 72.52ZM267.123 61.28C266.269 61.5467 265.509 61.9867 264.843 62.6C264.176 63.1867 263.603 63.8267 263.123 64.52C262.616 65.24 262.203 65.9733 261.883 66.72C261.589 67.4667 261.376 68.1067 261.243 68.64C261.109 69.2533 261.136 69.7067 261.323 70C261.536 70.2667 261.803 70.4267 262.123 70.48C262.496 70.5333 262.883 70.48 263.283 70.32C263.683 70.1333 263.936 69.9067 264.043 69.64C264.656 69.0267 265.229 68.3467 265.763 67.6C266.323 66.8533 266.736 65.9733 267.003 64.96C267.296 63.9467 267.336 62.72 267.123 61.28ZM275.083 52.32C274.896 52.4267 274.763 52.5733 274.683 52.76C274.603 52.9467 274.349 52.9733 273.923 52.84C273.576 52.7067 273.349 52.56 273.243 52.4C273.163 52.2133 273.069 52.04 272.963 51.88C272.883 51.6933 272.656 51.5733 272.283 51.52C271.669 51.3867 271.043 51.4533 270.403 51.72C269.789 51.96 269.176 52.1067 268.563 52.16C268.083 52.2133 267.603 52.3467 267.123 52.56C266.669 52.7467 266.216 52.9733 265.763 53.24C265.736 53.4 265.749 53.5067 265.803 53.56C265.883 53.6133 265.936 53.6667 265.963 53.72C266.016 53.7733 266.083 53.84 266.163 53.92C266.456 54.1867 266.816 54.6 267.243 55.16C267.696 55.72 268.136 56.4 268.563 57.2C268.989 58 269.336 58.9067 269.603 59.92C269.869 60.9067 269.949 61.9733 269.843 63.12C269.736 64.3467 269.336 65.6533 268.643 67.04C267.976 68.4 266.896 69.8133 265.403 71.28C264.709 71.9467 264.189 72.3867 263.843 72.6C263.496 72.7867 263.229 72.88 263.043 72.88C262.856 72.8533 262.669 72.8667 262.483 72.92C262.269 72.9733 262.069 72.9733 261.883 72.92C261.696 72.84 261.496 72.8267 261.283 72.88C260.509 72.5867 259.949 72.2533 259.603 71.88C259.283 71.5067 258.923 70.9867 258.523 70.32C258.416 69.5467 258.443 68.8933 258.603 68.36C258.763 67.8 258.976 67.28 259.243 66.8C259.509 66.2933 259.749 65.7467 259.963 65.16C260.149 65.0267 260.256 64.8667 260.283 64.68C260.309 64.4933 260.429 64.2667 260.643 64C260.749 63.8933 260.883 63.7333 261.043 63.52C261.203 63.28 261.336 63.0667 261.442 62.88C261.896 62.1067 262.469 61.4667 263.163 60.96C263.883 60.4267 264.616 59.9867 265.363 59.64C265.576 59.6133 265.776 59.6 265.963 59.6C266.149 59.6 266.336 59.5867 266.523 59.56C266.443 58.84 266.176 58.1067 265.723 57.36C265.269 56.5867 264.803 55.8933 264.323 55.28C263.843 54.6667 263.469 54.2267 263.203 53.96C263.176 53.9333 263.083 53.7467 262.923 53.4C262.789 53.0533 262.683 52.7867 262.603 52.6C262.763 52.12 263.136 51.6933 263.723 51.32C264.336 50.92 264.989 50.6 265.683 50.36C266.376 50.0933 266.949 49.9067 267.403 49.8C267.536 49.7733 267.856 49.72 268.363 49.64C268.896 49.5333 269.429 49.4267 269.963 49.32C270.496 49.2133 270.816 49.1467 270.923 49.12C271.136 49.0667 271.323 49.0533 271.483 49.08C271.669 49.08 271.816 49.1067 271.923 49.16C272.136 49.24 272.229 49.2533 272.203 49.2C272.176 49.12 272.256 49.08 272.443 49.08C272.603 49.08 272.789 49.0933 273.003 49.12C273.243 49.12 273.496 49.1867 273.763 49.32C274.029 49.4267 274.309 49.6533 274.603 50C274.843 50.2933 275.016 50.48 275.123 50.56C275.256 50.64 275.323 50.8133 275.323 51.08C275.296 51.1867 275.269 51.3467 275.243 51.56C275.216 51.7467 275.163 52 275.083 52.32ZM269.483 72.84C269.376 72.7867 269.23 72.68 269.043 72.52C268.883 72.36 268.736 72.2 268.603 72.04C268.523 71.96 268.456 71.8933 268.403 71.84C268.35 71.76 268.296 71.7067 268.243 71.68C268.243 71.4933 268.283 71.36 268.363 71.28C268.47 71.2 268.576 71.1067 268.683 71C268.79 70.84 268.963 70.76 269.203 70.76C269.443 70.76 269.63 70.6933 269.763 70.56C270.243 70.2133 270.736 69.8533 271.243 69.48C271.75 69.1067 272.176 68.6667 272.523 68.16C272.896 67.6267 273.27 67.0533 273.643 66.44C274.016 65.8267 274.376 65.2267 274.723 64.64C274.83 64.4533 275.003 64.12 275.243 63.64C275.483 63.16 275.71 62.6933 275.923 62.24C276.163 61.76 276.296 61.4267 276.323 61.24C276.083 61.16 275.856 61.0933 275.643 61.04C275.456 60.96 275.27 60.8933 275.083 60.84C274.843 60.4667 274.71 60.2533 274.683 60.2C274.656 60.12 274.643 59.8667 274.643 59.44C274.643 59.12 274.816 58.92 275.163 58.84C275.936 58.6533 276.616 58.5333 277.203 58.48C277.816 58.4267 278.416 58.32 279.003 58.16C279.376 58.0533 279.83 58.0133 280.363 58.04C280.896 58.0667 281.43 58.1867 281.963 58.4C282.203 58.5067 282.403 58.64 282.563 58.8C282.723 58.96 282.87 59.1467 283.003 59.36C283.35 59.84 283.523 60.2533 283.523 60.6C283.55 60.9467 283.536 61.28 283.483 61.6C283.43 61.92 283.47 62.28 283.603 62.68C283.416 63.4 283.23 64.04 283.043 64.6C282.856 65.1333 282.683 65.64 282.523 66.12C282.363 66.5733 282.216 67 282.083 67.4C281.95 67.8 281.843 68.2 281.763 68.6C281.656 69.0267 281.523 69.4533 281.363 69.88C281.203 70.3067 281.083 70.7467 281.003 71.2C280.95 71.5467 280.79 71.8 280.523 71.96C280.283 72.12 280.016 72.2667 279.723 72.4C279.616 72.4267 279.43 72.4 279.163 72.32C278.923 72.2133 278.696 72.0667 278.483 71.88C278.403 71.5867 278.376 71.32 278.403 71.08C278.43 70.84 278.483 70.6 278.563 70.36C278.643 70.1467 278.79 69.6667 279.003 68.92C279.216 68.1733 279.456 67.3333 279.723 66.4C279.99 65.4667 280.243 64.6 280.483 63.8C280.723 63 280.883 62.44 280.963 62.12C281.096 61.6933 281.136 61.3733 281.083 61.16C281.056 60.9467 281.016 60.7467 280.963 60.56C280.403 60.3467 280.016 60.28 279.803 60.36C279.616 60.4133 279.376 60.4667 279.083 60.52C278.95 60.6267 278.843 60.7467 278.763 60.88C278.683 61.0133 278.63 61.1467 278.603 61.28C278.31 62.0533 278.056 62.6667 277.843 63.12C277.656 63.5733 277.47 63.9867 277.283 64.36C277.096 64.7067 276.883 65.0933 276.643 65.52C276.43 65.9467 276.15 66.5333 275.803 67.28C275.59 67.76 275.323 68.2 275.003 68.6C274.71 69 274.443 69.4267 274.203 69.88L273.763 70.44C273.79 70.44 273.683 70.5467 273.443 70.76C273.203 70.9733 272.963 71.1867 272.723 71.4C272.51 71.6133 272.403 71.72 272.403 71.72L271.163 72.68C271.03 72.7867 270.803 72.84 270.483 72.84C270.163 72.84 269.83 72.84 269.483 72.84ZM295.504 73.04C295.237 73.1733 294.93 73.0933 294.584 72.8C294.237 72.5067 293.997 72.2667 293.864 72.08C293.624 71.76 293.45 71.32 293.344 70.76C293.237 70.2 293.184 69.7333 293.184 69.36C293.184 68.6667 293.13 68.2667 293.024 68.16C292.944 68.0533 292.77 68.1467 292.504 68.44C292.264 68.7067 291.904 69.08 291.424 69.56C291.21 69.7733 290.864 70.0533 290.384 70.4C289.904 70.7467 289.41 71.04 288.904 71.28C288.397 71.52 287.97 71.64 287.624 71.64C287.384 71.6133 287.144 71.48 286.904 71.24C286.664 71 286.45 70.7333 286.264 70.44C286.104 70.12 285.984 69.8533 285.904 69.64C285.77 69.24 285.757 68.5867 285.864 67.68C285.997 66.7467 286.21 65.72 286.504 64.6C286.824 63.4533 287.184 62.36 287.584 61.32C288.01 60.2533 288.437 59.3867 288.864 58.72C289.317 58.0267 289.757 57.68 290.184 57.68C290.477 57.68 290.704 57.8533 290.864 58.2C291.05 58.52 291.197 58.7867 291.304 59C291.437 59.2667 291.477 59.44 291.424 59.52C291.397 59.6 291.29 59.7467 291.104 59.96C290.89 60.2267 290.637 60.68 290.344 61.32C290.05 61.9333 289.744 62.6133 289.424 63.36C289.13 64.08 288.864 64.7733 288.624 65.44C288.384 66.1067 288.21 66.6133 288.104 66.96C288.05 67.1733 287.97 67.4667 287.864 67.84C287.784 68.2133 287.757 68.5067 287.784 68.72C287.784 68.7467 287.797 68.8133 287.824 68.92C287.85 69 287.957 69.04 288.144 69.04C288.73 69.04 289.317 68.8 289.904 68.32C290.517 67.8133 291.117 67.16 291.704 66.36C292.317 65.56 292.89 64.72 293.424 63.84C293.957 62.96 294.45 62.12 294.904 61.32C295.384 60.52 295.797 59.8667 296.144 59.36C296.49 58.8267 296.77 58.5467 296.984 58.52C297.17 58.4933 297.384 58.52 297.624 58.6C297.89 58.6533 298.117 58.7467 298.304 58.88C298.49 59.0133 298.57 59.2 298.544 59.44C298.224 60.4267 297.837 61.4133 297.384 62.4C296.93 63.36 296.504 64.3333 296.104 65.32C295.73 66.3067 295.464 67.32 295.304 68.36C295.197 69 295.237 69.6267 295.424 70.24C295.637 70.8533 295.97 71.4 296.424 71.88C296.69 72.1467 296.664 72.4 296.344 72.64C296.024 72.88 295.744 73.0133 295.504 73.04ZM298.803 73.16C298.723 73.1333 298.629 73.12 298.523 73.12C298.443 73.12 298.363 73.12 298.283 73.12C298.176 72.88 298.003 72.68 297.763 72.52C297.523 72.36 297.336 72.1733 297.203 71.96C297.043 71.6667 297.029 71.4267 297.163 71.24C297.323 71.0267 297.509 70.8267 297.723 70.64C297.963 70.4267 298.136 70.1867 298.243 69.92C298.403 69.84 298.709 69.6267 299.163 69.28C299.616 68.9333 300.136 68.52 300.723 68.04C301.309 67.56 301.896 67.0667 302.483 66.56C303.069 66.0267 303.589 65.5467 304.043 65.12C304.496 64.6933 304.803 64.3867 304.963 64.2C304.936 64.1733 304.909 64.1467 304.883 64.12C304.856 64.0933 304.816 64.0667 304.763 64.04C304.603 63.64 304.349 63.2 304.003 62.72C303.656 62.2133 303.296 61.72 302.923 61.24C302.576 60.7333 302.296 60.2933 302.083 59.92C301.923 59.6267 301.789 59.3467 301.683 59.08C301.603 58.8133 301.496 58.5467 301.363 58.28C301.416 58.1733 301.469 58.0667 301.523 57.96C301.603 57.8533 301.656 57.7467 301.683 57.64C302.216 57.6133 302.643 57.6933 302.963 57.88C303.283 58.0667 303.643 58.32 304.043 58.64C304.149 58.72 304.336 58.9867 304.603 59.44C304.869 59.8933 305.163 60.4133 305.483 61C305.829 61.56 306.176 62.0667 306.523 62.52C306.869 62.9467 307.176 63.2 307.443 63.28C307.629 62.8 307.803 62.2 307.963 61.48C308.149 60.76 308.309 60.04 308.443 59.32C308.603 58.6 308.709 57.9867 308.763 57.48C308.869 57.3467 308.963 57.24 309.043 57.16C309.149 57.0533 309.256 56.9467 309.363 56.84C309.736 56.9467 310.043 57.1067 310.283 57.32C310.523 57.5067 310.803 57.6933 311.123 57.88C311.123 58.9467 310.949 60.0533 310.603 61.2C310.283 62.3467 310.016 63.4267 309.803 64.44C309.803 64.4667 309.803 64.5067 309.803 64.56C309.803 64.5867 309.816 64.6133 309.843 64.64C310.456 64.3467 311.096 63.9467 311.763 63.44C312.456 62.9333 313.136 62.4 313.803 61.84C314.496 61.28 315.109 60.8 315.643 60.4C315.909 60 316.243 59.64 316.643 59.32C317.043 58.9733 317.376 58.6 317.643 58.2C317.776 58.2 317.896 58.2 318.003 58.2C318.109 58.2 318.216 58.2 318.323 58.2C318.456 58.3067 318.629 58.4533 318.843 58.64C319.056 58.8267 319.256 59.0667 319.443 59.36C319.416 59.5467 319.376 59.72 319.323 59.88C319.269 60.04 319.176 60.1867 319.043 60.32C318.376 60.9867 317.669 61.6267 316.923 62.24C316.203 62.8267 315.389 63.4667 314.483 64.16C314.029 64.5067 313.563 64.8267 313.083 65.12C312.629 65.4133 312.203 65.76 311.803 66.16C312.283 66.48 312.829 66.9067 313.443 67.44C314.083 67.9733 314.683 68.52 315.243 69.08C315.829 69.64 316.296 70.16 316.643 70.64C316.909 70.9867 317.003 71.3067 316.923 71.6C316.843 71.8933 316.656 72.12 316.363 72.28C316.096 72.44 315.803 72.52 315.483 72.52C315.163 72.52 314.896 72.4133 314.683 72.2C314.389 71.9067 314.109 71.6 313.843 71.28C313.576 70.9333 313.296 70.6133 313.003 70.32C312.443 69.76 311.856 69.1467 311.243 68.48C310.629 67.8133 310.016 67.2267 309.403 66.72C309.376 66.6667 309.336 66.64 309.283 66.64C309.256 66.6133 309.216 66.5867 309.163 66.56C308.949 67.1733 308.723 67.88 308.483 68.68C308.243 69.4533 308.069 70.1733 307.963 70.84C307.909 71.24 307.763 71.56 307.523 71.8C307.283 72.04 306.976 72.2267 306.603 72.36C306.363 72.2 306.136 72.04 305.923 71.88C305.736 71.72 305.536 71.5467 305.323 71.36C305.163 71.2 305.149 70.8533 305.283 70.32C305.416 69.7867 305.603 69.1867 305.842 68.52C306.083 67.8533 306.283 67.2533 306.443 66.72C306.603 66.1867 306.643 65.84 306.563 65.68C306.376 65.8667 306.043 66.2 305.562 66.68C305.083 67.1333 304.549 67.6267 303.963 68.16C303.403 68.6933 302.883 69.1733 302.403 69.6C301.949 70.0267 301.643 70.28 301.483 70.36C301.216 70.76 300.789 71.2533 300.203 71.84C299.643 72.4267 299.176 72.8667 298.803 73.16ZM327.032 71.6C326.472 72.08 325.819 72.36 325.072 72.44C324.352 72.52 323.646 72.4133 322.952 72.12C322.259 71.8 321.686 71.32 321.232 70.68C320.779 70.0933 320.486 69.4267 320.352 68.68C320.219 67.9067 320.206 66.9067 320.312 65.68C320.392 64.64 320.726 63.6 321.312 62.56C321.899 61.4933 322.606 60.5467 323.432 59.72C324.286 58.8933 325.126 58.32 325.952 58C326.352 57.7333 326.686 57.6133 326.952 57.64C327.246 57.64 327.686 57.6667 328.272 57.72C328.886 57.8 329.339 57.92 329.632 58.08C329.952 58.24 330.206 58.4533 330.392 58.72C330.792 59.12 331.059 59.52 331.192 59.92C331.326 60.2933 331.392 60.6667 331.392 61.04C331.286 61.6267 330.886 62.3467 330.192 63.2C329.526 64.0267 328.646 64.7067 327.552 65.24C326.966 65.4267 326.326 65.5067 325.632 65.48C324.939 65.4533 324.366 65.28 323.912 64.96C323.406 64.7467 323.072 64.7867 322.912 65.08C322.752 65.3467 322.606 66.0133 322.472 67.08C322.366 68.0933 322.446 68.84 322.712 69.32C322.979 69.7733 323.339 70.04 323.792 70.12C324.326 70.2267 324.739 70.3067 325.032 70.36C325.352 70.3867 325.739 70.2667 326.192 70C326.619 69.7333 326.886 69.5867 326.992 69.56C327.099 69.5067 327.179 69.4533 327.232 69.4C327.312 69.32 327.486 69.1467 327.752 68.88C327.939 68.6933 328.086 68.56 328.192 68.48C328.299 68.3733 328.419 68.32 328.552 68.32C328.686 68.32 328.806 68.3867 328.912 68.52C329.019 68.6267 329.126 68.7067 329.232 68.76C329.499 68.76 329.552 68.92 329.392 69.24C329.259 69.56 328.979 69.9467 328.552 70.4C328.126 70.8267 327.619 71.2267 327.032 71.6ZM326.992 63.12C327.286 62.9867 327.592 62.8 327.912 62.56C328.232 62.2933 328.499 62.0133 328.712 61.72C328.952 61.4 329.072 61.1333 329.072 60.92C329.072 60.5467 328.899 60.24 328.552 60C328.206 59.7333 327.686 59.6933 326.992 59.88C326.699 59.96 326.366 60.16 325.992 60.48C325.619 60.7733 325.259 61.1067 324.912 61.48C324.592 61.8533 324.326 62.1867 324.112 62.48C323.926 62.7733 323.859 62.9467 323.912 63C323.992 63.1333 324.219 63.24 324.592 63.32C324.966 63.3733 325.379 63.3867 325.832 63.36C326.312 63.3333 326.699 63.2533 326.992 63.12Z" fill="#7CB7DF"/>
</svg>
